<svg xmlns="http://www.w3.org/2000/svg" width="512" height="512" viewBox="0 0 512 512" fill="none"><path d="M477.878 263.836H378.644C379.511 261.933 380.214 259.93 380.73 257.828L380.898 257.144C382.21 251.781 378.929 246.367 373.566 245.051C368.198 243.746 362.784 247.019 361.472 252.387L361.304 253.066C359.452 260.633 351.796 265.285 344.226 263.426L179.093 222.977C175.429 222.078 172.336 219.809 170.379 216.582C168.422 213.359 167.84 209.562 168.738 205.898L209.183 40.7659C210.082 37.1019 212.351 34.0081 215.578 32.0511C218.804 30.098 222.597 29.5121 226.265 30.4105L391.394 70.8596C398.96 72.7112 403.605 80.3752 401.753 87.9377L379.589 178.426C378.277 183.789 381.558 189.199 386.921 190.516C392.28 191.832 397.698 188.547 399.015 183.184L421.179 92.6955C425.655 74.4221 414.429 55.9104 396.155 51.4339L231.023 10.9848C212.75 6.5082 194.238 17.7347 189.761 36.012L149.312 201.141C147.144 209.996 148.55 219.164 153.277 226.953C153.949 228.062 154.683 229.117 155.465 230.133H34.121C15.3086 230.133 0 245.437 0 264.254V434.269C0 453.085 15.3086 468.39 34.121 468.39H204.136C222.953 468.39 238.261 453.085 238.261 434.269V264.254C238.261 262.09 238.05 259.969 237.66 257.914L287.996 270.242C279.371 276.441 273.738 286.555 273.738 297.961V467.976C273.738 486.788 289.046 502.097 307.863 502.097H477.878C496.69 502.097 511.999 486.788 511.999 467.976V297.961C511.999 279.144 496.69 263.836 477.878 263.836V263.836ZM218.261 434.269C218.261 442.054 211.925 448.39 204.136 448.39H34.121C26.3359 448.39 20 442.054 20 434.269V264.254C20 256.469 26.3359 250.133 34.121 250.133H204.136C211.925 250.133 218.261 256.469 218.261 264.254V434.269ZM491.999 467.972C491.999 475.761 485.663 482.097 477.878 482.097H307.863C300.074 482.097 293.738 475.761 293.738 467.972V297.961C293.738 290.172 300.074 283.836 307.863 283.836H477.878C485.663 283.836 491.999 290.172 491.999 297.961V467.972Z" fill="#01212D"></path><path d="M189.605 268.395H48.6562C42.9257 268.395 38.2617 273.059 38.2617 278.785V299.977C38.2617 305.5 42.7421 309.977 48.2617 309.977C53.7851 309.977 58.2617 305.5 58.2617 299.977V288.395H179.996V410.129H58.2656V375.961C58.2656 370.437 53.7851 365.961 48.2656 365.961C42.7421 365.961 38.2656 370.437 38.2656 375.961V419.738C38.2656 425.465 42.9257 430.129 48.6562 430.129H189.605C195.336 430.129 199.996 425.469 199.996 419.738V278.785C199.996 273.059 195.336 268.395 189.605 268.395V268.395Z" fill="#01212D"></path><path d="M463.343 302.102H322.394C316.663 302.102 312.003 306.762 312.003 312.492V453.441C312.003 459.172 316.663 463.836 322.394 463.836H463.343C469.074 463.836 473.738 459.172 473.738 453.441V312.492C473.734 306.762 469.074 302.102 463.343 302.102V302.102ZM453.734 443.836H332.003V322.102H453.734V443.836Z" fill="#01212D"></path><path d="M379.347 89.8443C377.91 87.4771 375.64 85.8052 372.937 85.1411L236.007 51.6021C230.464 50.2583 224.839 53.6763 223.468 59.2271L189.941 196.118C188.566 201.68 191.976 207.321 197.554 208.696L334.461 242.231C334.468 242.231 334.476 242.235 334.488 242.235C335.3 242.434 336.117 242.528 336.922 242.528C341.593 242.528 345.855 239.344 347.023 234.61L380.554 97.7193C381.218 95.02 380.793 92.2232 379.347 89.8443ZM329.886 220.516L211.648 191.555L240.609 73.3208L358.843 102.282L329.886 220.516Z" fill="#01212D"></path><path d="M100.199 386.551L105.195 374.133H132.703L137.621 386.512C139.18 390.434 142.941 392.82 146.918 392.82C148.148 392.82 149.398 392.594 150.605 392.113C155.738 390.074 158.246 384.258 156.207 379.129L128.387 309.09C126.875 305.289 123.203 302.793 119.113 302.781C119.105 302.781 119.098 302.781 119.094 302.781C115.012 302.781 111.336 305.262 109.816 309.051L89.2342 360.219C89.2264 360.242 89.2186 360.266 89.2069 360.289L81.6444 379.086C79.5858 384.211 82.0663 390.035 87.1913 392.098C92.3202 394.156 98.1405 391.672 100.199 386.551V386.551ZM124.758 354.133H113.238L119.035 339.723L124.758 354.133Z" fill="#01212D"></path><path d="M366.343 428.773H406.675C414.128 428.773 421.132 425.871 426.402 420.602C431.675 415.332 434.573 408.324 434.573 400.875C434.573 394.062 432.12 387.82 428.054 382.973C432.12 378.125 434.573 371.879 434.573 365.07C434.573 349.688 422.058 337.172 406.675 337.172H366.343C360.82 337.172 356.343 341.648 356.343 347.172V418.773C356.343 424.297 360.82 428.773 366.343 428.773V428.773ZM412.261 406.461C410.769 407.953 408.784 408.773 406.675 408.773H376.343V392.973H406.675C411.031 392.973 414.573 396.516 414.573 400.875C414.573 402.984 413.753 404.969 412.261 406.461V406.461ZM376.343 357.168H406.675C411.031 357.168 414.573 360.715 414.573 365.07C414.573 369.426 411.031 372.973 406.675 372.973L376.343 372.969V357.168Z" fill="#01212D"></path><path d="M268.628 189.77L283.074 193.309C285.578 193.922 288.105 194.223 290.621 194.223C296.308 194.223 301.906 192.672 306.894 189.645C314.089 185.282 319.152 178.379 321.152 170.211C322.464 164.844 319.183 159.434 313.816 158.118C308.445 156.801 303.039 160.09 301.726 165.453C300.996 168.434 299.148 170.953 296.523 172.547C293.898 174.137 290.808 174.614 287.832 173.883L273.386 170.344C267.234 168.836 263.449 162.602 264.96 156.446L271.656 129.094C272.386 126.114 274.234 123.594 276.859 122.004C279.484 120.41 282.566 119.938 285.55 120.668L299.996 124.203C306.148 125.711 309.933 131.946 308.425 138.102C307.109 143.465 310.394 148.879 315.757 150.192C321.125 151.512 326.535 148.223 327.851 142.86C331.98 125.993 321.621 108.91 304.753 104.778L290.308 101.239C282.144 99.2386 273.679 100.539 266.484 104.903C259.293 109.266 254.23 116.168 252.23 124.34L245.531 151.688C241.402 168.555 251.761 185.637 268.628 189.77V189.77Z" fill="#01212D"></path><path d="M39.9492 343.68C42.2148 347.145 46.5937 348.812 50.5976 347.848C54.5781 346.891 57.6445 343.508 58.1757 339.437C58.7109 335.344 56.6093 331.262 52.9726 329.316C49.1406 327.27 44.2617 327.984 41.1875 331.059C37.8632 334.387 37.3437 339.77 39.9492 343.68V343.68Z" fill="#01212D"></path><path d="M372.038 220.379C373.648 224.242 377.577 226.734 381.757 226.535C385.874 226.34 389.523 223.527 390.78 219.605C392.05 215.641 390.683 211.148 387.355 208.617C383.976 206.047 379.261 205.898 375.718 208.238C371.777 210.844 370.257 216.031 372.038 220.379Z" fill="#01212D"></path></svg>