<svg xmlns="http://www.w3.org/2000/svg" width="512" height="512" viewBox="0 0 512 512" fill="none"><g clip-path="url(#clip0)"><path d="M494.933 0H17.0667C7.64101 0 0 7.64101 0 17.0667V42.6667C0.0282122 66.2191 19.1142 85.3051 42.6667 85.3333H59.7333V131.319C58.3297 132.494 57.1849 133.947 56.3712 135.586L42.4021 165.291L11.2213 170.052C6.31915 170.799 2.25417 174.241 0.708267 178.953C-0.906265 183.726 0.293877 189.001 3.8144 192.606L26.6667 215.97L21.2736 248.994C20.4117 254.054 22.537 259.157 26.7349 262.11C30.8079 265.023 36.197 265.323 40.5675 262.878L68.2667 247.62L95.9659 262.895C100.338 265.331 105.723 265.032 109.798 262.127C113.996 259.174 116.122 254.071 115.26 249.011L109.867 215.987L132.727 192.614C136.247 189.009 137.444 183.732 135.825 178.961C134.281 174.252 130.219 170.811 125.321 170.061L94.1312 165.299L80.1621 135.603C79.3462 133.965 78.2017 132.513 76.8 131.337V85.3333H179.2V120.678C162.557 124.976 151.706 140.977 153.872 158.029C156.038 175.08 170.545 187.861 187.733 187.861C204.922 187.861 219.429 175.08 221.595 158.029C223.76 140.977 212.909 124.976 196.267 120.678V85.3333H247.467V240.64C240.608 239.569 233.681 238.998 226.739 238.933C200.111 238.918 173.794 244.647 149.581 255.727C146.64 257.295 144.881 260.432 145.077 263.759C145.273 267.086 147.389 269.995 150.494 271.206C190.157 286.686 232.841 325.914 232.841 375.467C232.841 425.02 190.174 464.213 150.494 479.727C147.389 480.938 145.273 483.847 145.077 487.174C144.881 490.501 146.64 493.638 149.581 495.206C173.794 506.287 200.111 512.015 226.739 512C296.096 514.105 355.93 463.693 365.624 394.985C375.317 326.277 331.765 261.278 264.533 244.113V85.3333H332.8V154.812C316.157 159.109 305.306 175.111 307.472 192.162C309.638 209.214 324.145 221.995 341.333 221.995C358.522 221.995 373.029 209.214 375.195 192.162C377.36 175.111 366.509 159.109 349.867 154.812V85.3333H435.2V216.653C433.796 217.827 432.652 219.28 431.838 220.919L417.869 250.624L386.688 255.386C381.786 256.133 377.721 259.574 376.175 264.286C374.56 269.059 375.761 274.334 379.281 277.939L402.133 301.303L396.74 334.327C395.878 339.387 398.004 344.491 402.202 347.443C406.275 350.357 411.664 350.656 416.034 348.211L443.733 332.954L471.433 348.228C475.805 350.664 481.189 350.365 485.265 347.46C489.463 344.508 491.588 339.404 490.726 334.345L485.333 301.321L508.194 277.948C511.713 274.342 512.911 269.066 511.292 264.294C509.747 259.585 505.686 256.144 500.787 255.394L469.598 250.633L455.629 220.945C454.813 219.307 453.668 217.855 452.267 216.678V85.3333H469.333C492.886 85.3051 511.972 66.2191 512 42.6667V17.0667C512 7.64101 504.359 0 494.933 0V0ZM79.5477 174.387C81.4022 178.38 85.1295 181.182 89.4805 181.854L115.499 185.813L96.3584 205.389C93.3942 208.452 92.0499 212.735 92.7317 216.943L97.1605 244.07L74.5728 231.612C70.6526 229.427 65.8808 229.427 61.9605 231.612L39.3728 244.053L43.8101 216.917C44.4828 212.711 43.1361 208.434 40.1749 205.372L21.0347 185.813L47.0443 181.854C51.396 181.185 55.1261 178.387 56.9856 174.396L68.2667 150.409L79.5477 174.387ZM204.8 153.6C204.8 163.026 197.159 170.667 187.733 170.667C178.308 170.667 170.667 163.026 170.667 153.6C170.667 144.174 178.308 136.533 187.733 136.533C197.159 136.533 204.8 144.174 204.8 153.6ZM349.867 375.467C348.768 442.419 293.694 495.855 226.739 494.933C209.178 494.722 191.729 492.083 174.891 487.091C213.726 465.758 249.907 425.267 249.907 375.467C249.907 325.666 213.726 285.193 174.899 263.842C191.735 258.85 209.18 256.211 226.739 256C293.694 255.078 348.768 308.514 349.867 375.467ZM358.4 187.733C358.4 197.159 350.759 204.8 341.333 204.8C331.908 204.8 324.267 197.159 324.267 187.733C324.267 178.308 331.908 170.667 341.333 170.667C350.759 170.667 358.4 178.308 358.4 187.733ZM455.014 259.721C456.869 263.714 460.596 266.515 464.947 267.187L490.965 271.147L471.825 290.722C468.861 293.786 467.517 298.068 468.198 302.276L472.627 329.404L450.039 316.945C446.119 314.76 441.347 314.76 437.427 316.945L414.839 329.387L419.277 302.251C419.95 298.045 418.603 293.767 415.642 290.705L396.501 271.13L422.511 267.17C426.863 266.501 430.593 263.703 432.452 259.712L443.733 235.742L455.014 259.721ZM494.933 42.6667C494.933 56.8052 483.472 68.2667 469.333 68.2667H42.6667C28.5282 68.2667 17.0667 56.8052 17.0667 42.6667V17.0667H494.933V42.6667Z" fill="#01212D"></path></g><defs><clipPath id="clip0"><rect width="512" height="512" fill="white"></rect></clipPath></defs></svg>