<svg xmlns="http://www.w3.org/2000/svg" width="512" height="512" viewBox="0 0 512 512" fill="none"><g clip-path="url(#clip0)"><path d="M494.933 307.2H454.869C485.917 285.499 500.863 247.252 492.755 210.25C484.646 173.247 455.075 144.756 417.797 138.028C380.518 131.3 342.853 147.657 322.321 179.49L305.929 157.653L336.853 95.8891C347.396 74.7992 338.846 49.156 317.756 38.6134C296.666 28.0708 271.023 36.6211 260.48 57.711L226.133 126.464C221.619 117.081 213.805 109.689 204.186 105.702L101.786 63.0358C80.2004 54.635 55.855 64.9899 46.9349 86.3658C38.0148 107.742 47.7783 132.33 68.9323 141.764L105.148 156.851C73.7912 165.501 50.108 191.268 44.1268 223.241C38.1456 255.214 50.9127 287.8 77.0219 307.2H17.0667C7.64101 307.2 0 314.841 0 324.267V332.8C0 346.939 11.4615 358.4 25.6 358.4H125.065L102.758 432.751H102.886C102.605 433.539 102.441 434.364 102.4 435.2V452.267C102.4 466.405 113.862 477.867 128 477.867H384C398.139 477.867 409.6 466.405 409.6 452.267V435.2C409.556 434.376 409.392 433.562 409.114 432.785H409.242L386.936 358.4H486.4C500.539 358.4 512 346.939 512 332.8V324.267C512 314.841 504.359 307.2 494.933 307.2V307.2ZM401.067 153.6C443.482 153.6 477.867 187.985 477.867 230.4C477.867 272.816 443.482 307.2 401.067 307.2C358.651 307.2 324.267 272.816 324.267 230.4C324.314 188.004 358.671 153.647 401.067 153.6ZM59.7333 238.933C59.7005 215.805 71.4112 194.241 90.8288 181.675C111.35 168.626 137.141 167.052 159.095 177.51C163.405 179.419 168.447 177.473 170.355 173.163C172.264 168.853 170.317 163.812 166.007 161.903C159.86 159.21 153.452 157.157 146.884 155.776L75.4773 126.012C62.4394 120.566 56.279 105.587 61.7131 92.5441C67.1622 79.5048 82.1466 73.3476 95.1893 78.7883L197.589 121.455C209.066 126.198 215.463 138.513 212.745 150.63L195.678 227.43C194.656 232.03 197.555 236.587 202.155 237.611C202.766 237.745 203.389 237.814 204.015 237.816C208.014 237.815 211.476 235.037 212.343 231.134L221.952 187.878L257.707 235.52C260.534 239.29 265.883 240.054 269.653 237.227C273.424 234.399 274.188 229.05 271.36 225.28L235.52 177.493C229.663 169.751 228.72 159.351 233.088 150.682L275.755 65.3483C282.082 52.6897 297.473 47.5568 310.131 53.8838C322.79 60.2108 327.923 75.6017 321.596 88.2603L288.316 154.735C286.877 157.639 287.208 161.107 289.169 163.686L313.737 196.403C297.904 236.653 311.797 282.507 347.307 307.2H128C90.3149 307.158 59.7757 276.619 59.7333 238.933V238.933ZM392.533 452.267C392.533 456.98 388.713 460.8 384 460.8H128C123.287 460.8 119.467 456.98 119.467 452.267V443.733H392.533V452.267ZM213.333 426.667V409.6H298.667V426.667H213.333ZM389.598 426.667H315.733V409.6C315.733 400.174 308.092 392.533 298.667 392.533H213.333C203.908 392.533 196.267 400.174 196.267 409.6V426.667H122.402L142.882 358.4H369.118L389.598 426.667ZM494.933 332.8C494.933 337.513 491.113 341.333 486.4 341.333H25.6C20.8872 341.333 17.0667 337.513 17.0667 332.8V324.267H494.933V332.8Z" fill="#01212D"></path><path d="M122.163 273.502C107.046 268.125 96.1511 254.815 93.8667 238.933C93.8667 234.221 90.0462 230.4 85.3333 230.4C80.6205 230.4 76.8 234.221 76.8 238.933C79.127 262.184 94.7142 281.981 116.77 289.698C121.247 291.188 126.084 288.765 127.573 284.288C129.063 279.811 126.64 274.974 122.163 273.485V273.502Z" fill="#01212D"></path></g><defs><clipPath id="clip0"><rect width="512" height="512" fill="white"></rect></clipPath></defs></svg>