<svg xmlns="http://www.w3.org/2000/svg" width="512" height="512" viewBox="0 0 512 512" fill="none"><path d="M443.733 51.7035V34.1333C443.733 15.282 428.451 0 409.6 0C390.749 0 375.467 15.282 375.467 34.1333V51.2H341.333V34.1333C341.333 15.282 326.051 0 307.2 0C288.349 0 273.067 15.282 273.067 34.1333V51.2H238.933V34.1333C238.933 15.282 223.651 0 204.8 0C185.949 0 170.667 15.282 170.667 34.1333V51.2H136.533V34.1333C136.533 15.282 121.251 0 102.4 0C83.5487 0 68.2667 15.282 68.2667 34.1333V51.7035C29.4252 56.0851 0.0529818 88.9122 0 128V435.2C0.0470283 477.596 34.404 511.953 76.8 512H435.2C477.596 511.953 511.953 477.596 512 435.2V128C511.947 88.9122 482.575 56.0851 443.733 51.7035V51.7035ZM392.533 34.1333C392.533 24.7077 400.174 17.0667 409.6 17.0667C419.026 17.0667 426.667 24.7077 426.667 34.1333V85.3333C426.667 94.759 419.026 102.4 409.6 102.4C400.174 102.4 392.533 94.759 392.533 85.3333V34.1333ZM290.133 34.1333C290.133 24.7077 297.774 17.0667 307.2 17.0667C316.626 17.0667 324.267 24.7077 324.267 34.1333V85.3333C324.267 94.759 316.626 102.4 307.2 102.4C297.774 102.4 290.133 94.759 290.133 85.3333V34.1333ZM187.733 34.1333C187.733 24.7077 195.374 17.0667 204.8 17.0667C214.226 17.0667 221.867 24.7077 221.867 34.1333V85.3333C221.867 94.759 214.226 102.4 204.8 102.4C195.374 102.4 187.733 94.759 187.733 85.3333V34.1333ZM85.3333 34.1333C85.3333 24.7077 92.9743 17.0667 102.4 17.0667C111.826 17.0667 119.467 24.7077 119.467 34.1333V85.3333C119.467 94.759 111.826 102.4 102.4 102.4C92.9743 102.4 85.3333 94.759 85.3333 85.3333V34.1333ZM435.2 494.933H76.8C43.8258 494.896 17.1043 468.174 17.0667 435.2V153.6H494.933V435.2C494.896 468.174 468.174 494.896 435.2 494.933ZM494.933 136.533H17.0667V128C17.1234 98.3414 38.9153 73.208 68.2667 68.9493V85.3333C68.2667 104.185 83.5487 119.467 102.4 119.467C121.251 119.467 136.533 104.185 136.533 85.3333V68.2667H170.667V85.3333C170.667 104.185 185.949 119.467 204.8 119.467C223.651 119.467 238.933 104.185 238.933 85.3333V68.2667H273.067V85.3333C273.067 104.185 288.349 119.467 307.2 119.467C326.051 119.467 341.333 104.185 341.333 85.3333V68.2667H375.467V85.3333C375.467 104.185 390.749 119.467 409.6 119.467C428.451 119.467 443.733 104.185 443.733 85.3333V68.9493C473.085 73.208 494.877 98.3414 494.933 128V136.533Z" fill="#01212D"></path><path d="M256 170.667C171.169 170.667 102.4 239.436 102.4 324.267C102.4 409.098 171.169 477.867 256 477.867C340.831 477.867 409.6 409.098 409.6 324.267C409.501 239.477 340.79 170.765 256 170.667ZM256 460.8C202.467 460.872 153.848 429.604 131.705 380.865C109.563 332.126 117.997 274.938 153.267 234.667C161.587 240.777 162.133 253.781 162.133 273.067C162.878 293.76 173.247 312.917 190.165 324.856C186.522 324.474 182.863 324.277 179.2 324.267C169.565 323.011 160.223 328.127 156.092 336.922C150.536 350.362 160.657 368.99 173.158 381.5C177.248 386.341 180.643 391.729 183.245 397.508C193.374 417.016 207.232 443.733 256 443.733C318.66 443.733 358.4 389.726 358.4 366.933C358.223 358.193 356.686 349.533 353.843 341.265C370.827 322.288 371.281 293.712 354.908 274.205C338.536 254.698 310.315 250.19 288.679 263.626C267.044 277.061 258.573 304.356 268.8 327.68C256.651 318.787 248.887 305.122 247.467 290.133C247.646 281.109 242.106 272.956 233.651 269.798C221.846 265.166 208.452 267.381 198.767 275.567C193.199 283.117 190.275 292.291 190.447 301.67C183.376 293.801 179.382 283.645 179.2 273.067C179.2 255.411 179.2 234.249 165.436 222.379C210.858 181.995 277.516 176.523 328.916 208.959C380.316 241.396 404.065 303.918 387.162 362.3C370.259 420.681 316.779 460.843 256 460.8V460.8ZM281.6 307.2C281.6 288.349 296.882 273.067 315.733 273.067C334.585 273.067 349.867 288.349 349.867 307.2C349.867 326.051 334.585 341.333 315.733 341.333C296.882 341.333 281.6 326.051 281.6 307.2ZM315.733 358.4C323.964 358.399 332.072 356.402 339.362 352.58C340.595 357.268 341.257 362.087 341.333 366.933C341.333 379.733 310.263 426.667 256 426.667C217.6 426.667 207.838 407.893 198.391 389.649C195.063 382.278 190.626 375.461 185.233 369.434C174.251 358.443 170.351 347.102 171.861 343.458C172.51 341.888 176.077 341.333 179.2 341.333C185.629 341.198 192.047 341.947 198.272 343.561C207.666 363.958 223.434 380.75 243.2 391.407C247.291 393.743 252.501 392.322 254.839 388.233C257.176 384.142 255.755 378.932 251.665 376.593C229.425 365.216 213.559 344.352 208.538 319.881C205.83 309.166 206.622 297.865 210.799 287.633C215.578 284.366 221.637 283.598 227.08 285.568C229.16 286.066 230.568 288.002 230.4 290.133C230.4 312.405 251.255 358.4 315.733 358.4V358.4Z" fill="#01212D"></path></svg>