<svg xmlns="http://www.w3.org/2000/svg" width="511" height="511" viewBox="0 0 511 511" fill="none"><g clip-path="url(#clip0)"><path d="M203.52 381.605C177.641 381.605 156.584 402.661 156.584 428.541C156.584 454.42 177.641 475.476 203.52 475.476C229.403 475.476 250.456 454.42 250.456 428.541C250.456 402.661 229.399 381.605 203.52 381.605V381.605ZM203.52 455.515C188.647 455.515 176.545 443.414 176.545 428.541C176.545 413.663 188.647 401.562 203.52 401.562C218.393 401.562 230.495 413.663 230.495 428.541C230.495 443.414 218.393 455.515 203.52 455.515Z" fill="#01212D"></path><path d="M372.221 381.605C346.342 381.605 325.286 402.661 325.286 428.541C325.286 454.42 346.342 475.476 372.221 475.476C398.104 475.476 419.157 454.42 419.157 428.541C419.157 402.661 398.104 381.605 372.221 381.605V381.605ZM372.221 455.515C357.348 455.515 345.247 443.414 345.247 428.541C345.247 413.663 357.348 401.562 372.221 401.562C387.094 401.562 399.196 413.663 399.196 428.541C399.196 443.414 387.094 455.515 372.221 455.515V455.515Z" fill="#01212D"></path><path d="M381.442 424.72C379.804 420.798 375.75 418.295 371.512 418.591C367.368 418.876 363.777 421.819 362.635 425.8C361.488 429.792 363.017 434.24 366.408 436.65C369.773 439.039 374.319 439.11 377.757 436.833C381.695 434.232 383.219 429.063 381.442 424.72V424.72Z" fill="#01212D"></path><path d="M509.831 229.481L497.874 207.028C492.712 197.336 483.636 190.607 473.18 188.338V154.463C473.18 89.1028 420.007 35.9294 354.646 35.9294H303.095C297.586 35.9294 293.114 40.3973 293.114 45.9099V187.488H250.88C245.368 187.488 240.9 191.956 240.9 197.469C240.9 202.982 245.368 207.449 250.88 207.449H303.091H303.095H465.332C471.593 207.449 477.313 210.884 480.256 216.412L486.135 227.449C482.404 229.176 478.969 231.57 475.971 234.564C472.63 237.909 468.12 239.391 463.738 239.024C459.624 238.685 456.373 236.697 453.437 233.929C450.354 231.017 446.794 228.635 442.88 226.978C434.56 223.453 424.95 223.274 416.502 226.479C411.831 228.249 407.543 231.032 404.011 234.564C402.549 236.026 400.849 237.157 398.993 237.925C397.145 238.693 395.141 239.095 393.079 239.095C389.648 239.095 386.397 237.972 383.718 235.921C383.172 235.5 382.638 235.06 382.147 234.564C375.461 227.878 366.564 224.194 357.095 224.194C349.488 224.194 342.252 226.58 336.233 230.985C334.752 232.065 333.344 233.27 332.05 234.564C329.13 237.484 325.247 239.095 321.114 239.095C316.985 239.095 313.102 237.484 310.182 234.564C303.492 227.874 294.596 224.19 285.134 224.19C276.389 224.19 268.136 227.344 261.652 233.102C260.693 233.948 259.816 234.892 258.822 235.695C253.606 239.882 246.292 240.186 240.763 236.615C240.721 236.588 240.678 236.568 240.635 236.537C240.323 236.33 240.023 236.1 239.719 235.867C239.609 235.777 239.489 235.703 239.376 235.609C239.118 235.399 238.873 235.165 238.627 234.935C238.494 234.81 238.35 234.693 238.222 234.564C236.545 232.888 234.728 231.403 232.799 230.112C227.036 226.26 220.265 224.19 213.173 224.19C209.029 224.19 204.997 224.896 201.208 226.253C196.666 227.874 192.483 230.444 188.896 233.831C188.639 234.077 188.378 234.315 188.128 234.564C185.208 237.484 181.325 239.095 177.192 239.095C175.52 239.095 173.894 238.818 172.35 238.311C170.085 237.566 168.003 236.303 166.265 234.564C162.596 230.896 158.257 228.136 153.528 226.389L144.53 207.449H175.033C180.545 207.449 185.013 202.982 185.013 197.469C185.013 191.956 180.545 187.488 175.033 187.488H135.048L115.524 146.393C106.413 126.565 86.4364 113.754 64.608 113.754H31.4307C30.7368 113.754 30.0584 113.828 29.4034 113.96C28.3469 113.832 27.2709 113.754 26.1754 113.754C11.7427 113.754 0 125.496 0 139.929C0 154.362 11.7427 166.105 26.1754 166.105C40.6081 166.105 52.3468 154.362 52.3468 139.929C52.3468 137.789 52.0856 135.711 51.5983 133.715H64.608C78.6742 133.715 91.5475 141.98 97.4071 154.771C97.4266 154.81 97.4461 154.853 97.4656 154.896L112.947 187.488H104.514C90.6235 187.488 78.0583 195.161 71.7152 207.516L60.3702 229.609C58.7796 232.705 58.916 236.401 60.7289 239.371C62.5417 242.338 65.7698 244.151 69.2474 244.151C73.3799 244.151 77.2629 245.757 80.183 248.677C86.8731 255.371 95.7697 259.056 105.228 259.056C105.949 259.056 106.666 259.024 107.384 258.985L119.91 303.886C126.912 328.973 144.109 349.254 166.218 360.755C153.438 367.788 142.678 378.416 135.462 391.734C132.834 396.58 134.635 402.638 139.481 405.262C144.327 407.886 150.386 406.088 153.013 401.242C163.072 382.673 182.424 371.137 203.52 371.137C224.615 371.137 243.968 382.673 254.027 401.242C255.836 404.576 259.266 406.47 262.81 406.47C264.416 406.47 266.046 406.08 267.559 405.262C272.405 402.638 274.206 396.58 271.578 391.734C267.317 383.866 261.812 376.938 255.391 371.133H320.35C313.929 376.938 308.424 383.866 304.163 391.734C301.535 396.58 303.336 402.638 308.182 405.262C313.028 407.886 319.087 406.088 321.711 401.242C331.773 382.673 351.13 371.137 372.221 371.137C393.317 371.137 412.669 382.673 422.728 401.242C424.537 404.576 427.968 406.47 431.515 406.47C433.118 406.47 434.747 406.08 436.26 405.262C441.106 402.638 442.907 396.58 440.279 391.734C433.301 378.852 422.993 368.49 410.759 361.461C433.539 350.092 451.309 329.492 458.455 303.882L471.106 258.51C478.061 257.309 484.728 254.038 490.084 248.681C493.004 245.761 496.888 244.151 501.02 244.151C504.525 244.151 507.772 242.311 509.574 239.309C511.383 236.303 511.476 232.572 509.831 229.481V229.481ZM313.075 55.8904H354.646C409.001 55.8904 453.219 100.109 453.219 154.463V187.488H313.075V55.8904ZM26.1754 146.144C22.7485 146.144 19.961 143.356 19.961 139.929C19.961 136.502 22.7485 133.715 26.1754 133.715C29.6023 133.715 32.3898 136.502 32.3898 139.929C32.3898 143.356 29.6023 146.144 26.1754 146.144ZM83.9608 227.371L89.4695 216.635C92.3779 210.97 98.144 207.449 104.51 207.449H122.429L131.08 225.66C125.501 227.313 120.386 230.338 116.16 234.564C113.282 237.442 109.298 239.095 105.228 239.095C101.099 239.095 97.2161 237.484 94.296 234.564C91.2551 231.523 87.758 229.106 83.9608 227.371ZM439.231 298.521C430.58 329.523 402.057 351.176 369.87 351.176H208.498C176.311 351.176 147.789 329.523 139.138 298.521L126.206 252.182C127.645 251.122 129.013 249.941 130.276 248.681C132.959 245.999 136.389 244.518 139.898 244.221L162.039 290.829C169.992 308.128 186.214 320.085 204.713 322.853C208.491 332.669 218.019 339.66 229.149 339.66C243.582 339.66 255.325 327.921 255.325 313.488C255.325 299.055 243.582 287.313 229.149 287.313C218.569 287.313 209.442 293.625 205.321 302.681C194.374 300.295 184.931 292.88 180.155 282.451C180.136 282.408 180.116 282.365 180.097 282.323L168.541 257.999C171.337 258.697 174.237 259.059 177.189 259.059C182.701 259.059 188.015 257.8 192.818 255.434C195.231 254.245 197.52 252.783 199.633 251.044C200.537 250.303 201.411 249.512 202.249 248.673C202.28 248.638 202.319 248.611 202.354 248.576C207.621 243.414 215.695 242.779 221.649 246.681C223.606 247.972 225.138 249.773 226.958 251.239C233.231 256.299 240.982 259.056 249.157 259.056C257.929 259.056 266.206 255.886 272.682 250.104C273.68 249.219 274.596 248.237 275.652 247.418C281.301 243.024 289.313 243.083 294.884 247.613C294.888 247.617 294.892 247.621 294.892 247.621C295.297 247.952 295.687 248.303 296.065 248.681C302.756 255.371 311.652 259.059 321.114 259.059C330.576 259.059 339.473 255.371 346.167 248.681C347.258 247.59 348.541 246.627 349.913 245.921C355.746 242.868 363.137 243.785 368.03 248.681C368.849 249.5 369.703 250.272 370.584 251.001C370.599 251.013 370.615 251.028 370.634 251.044C370.763 251.149 370.9 251.247 371.028 251.352C377.27 256.342 384.958 259.059 393.075 259.059C397.083 259.059 400.985 258.389 404.669 257.118C409.675 255.391 414.268 252.537 418.124 248.681C422.786 244.019 430.151 242.822 436.042 245.812C438.825 247.223 440.786 249.633 443.215 251.527C445.613 253.395 448.244 254.97 451.036 256.174L439.231 298.521ZM222.935 313.484C222.935 310.061 225.723 307.27 229.149 307.27C232.576 307.27 235.364 310.057 235.364 313.484C235.364 316.915 232.576 319.699 229.149 319.699C225.723 319.699 222.935 316.911 222.935 313.484Z" fill="#01212D"></path><path d="M212.736 424.72C211.157 420.938 207.344 418.47 203.251 418.564C199.072 418.661 195.294 421.511 194.023 425.488C192.756 429.445 194.132 433.932 197.45 436.455C200.752 438.969 205.356 439.18 208.865 436.965C212.927 434.4 214.549 429.145 212.736 424.72V424.72Z" fill="#01212D"></path><path d="M203.742 201.29C205.348 205.145 209.27 207.633 213.442 207.434C217.547 207.243 221.2 204.428 222.456 200.522C223.727 196.561 222.346 192.077 219.029 189.551C215.656 186.986 210.951 186.837 207.415 189.173C203.481 191.773 201.964 196.95 203.742 201.29Z" fill="#01212D"></path></g><defs><clipPath id="clip0"><rect width="511" height="511" fill="white"></rect></clipPath></defs></svg>