<svg xmlns="http://www.w3.org/2000/svg" width="512" height="512" viewBox="0 0 512 512" fill="none"><g clip-path="url(#clip0)"><path d="M483.467 132.956C478.483 93.261 448.53 61.3862 412.26 57.1597C380.792 53.484 350.476 70.3862 334.999 100.23C334.804 100.612 334.632 100.73 334.609 100.737C334.577 100.73 334.406 100.612 334.206 100.234C319.226 71.7963 291.222 55.3277 261.125 57.3316C254.375 57.7691 247.766 59.1441 241.371 61.4331C239.211 55.6402 236.461 50.152 233.098 45.0036C214.906 17.1561 179.235 0.335935 137.649 0.00390622L136.489 0C95.4387 0 60.1733 16.2811 42.15 43.5583C29.9001 62.0933 25.5759 85.0384 29.2947 111.745C30.0564 117.218 35.1032 121.034 40.5797 120.272C46.0484 119.511 49.8648 114.46 49.1031 108.987C46.0758 87.2415 49.3492 68.937 58.8374 54.5816C73.1459 32.9294 102.177 19.9998 136.442 19.9998L137.528 20.0038C172.364 20.2811 201.836 33.7146 216.356 55.941C220.617 62.4683 223.617 69.7846 225.367 77.8041C229.059 94.7805 226.801 112.601 222.156 129.159C217.52 145.706 210.391 161.573 202.633 176.87C194.825 192.268 185.829 207.237 174.559 220.369C169.891 225.807 164.02 229.893 158.036 233.76C151.005 238.307 143.141 241.717 134.587 240.732C126.138 239.756 118.603 234.967 111.864 230.049C105.177 225.166 99.798 219.03 94.8293 212.451C93.4817 210.67 92.1731 208.858 90.8957 207.026C84.4974 197.838 78.4544 187.502 72.4193 175.432C69.9506 170.495 63.9428 168.495 59.0054 170.96C54.064 173.428 52.0601 179.436 54.5288 184.374C61.0014 197.315 67.5248 208.463 74.4818 218.455C77.8997 223.365 81.2825 227.776 84.7356 231.83C82.1653 234.393 79.263 237.459 76.4505 240.803C67.0873 251.936 62.3999 261.537 62.1264 270.154C61.9233 276.494 64.1499 282.146 68.5639 286.502C80.7239 298.505 95.6652 296.701 106.091 292.232C113.931 300.88 121.669 304.908 127.536 306.771C127.911 321.806 131.798 335.349 135.341 344.685C136.696 348.267 138.149 351.857 139.552 355.329C144.825 368.368 149.805 380.688 150.708 393.598C151.575 405.946 147.243 418.258 142.661 431.294C141.552 434.45 140.403 437.715 139.348 440.95C133.024 460.321 127.278 485.313 139.095 506.812C140.915 510.125 144.337 512 147.868 512C149.493 512 151.145 511.601 152.677 510.762C157.516 508.102 159.282 502.02 156.622 497.18C148.509 482.418 153.286 462.692 158.36 447.157C159.344 444.137 160.407 441.122 161.528 437.93C166.587 423.547 171.813 408.676 170.661 392.2C169.532 376.13 163.719 361.743 158.094 347.833C156.669 344.306 155.321 340.97 154.036 337.591C151.087 329.818 147.845 318.599 147.532 306.396C153.286 304.384 160.63 300.334 168.157 292.213C178.481 296.693 193.36 298.517 205.739 286.584C210.285 282.197 212.621 276.482 212.481 270.056C212.297 261.486 207.809 251.975 198.762 240.975C196.059 237.69 193.274 234.682 190.782 232.139C191.907 230.791 192.989 229.459 194 228.194C198.297 222.83 202.418 217.022 206.594 210.448C207.246 209.416 207.899 208.369 208.547 207.311C228.246 233.822 268.195 286.998 270.234 289.716C271.824 291.818 273.492 293.826 275.222 295.744C260.344 311.068 257.605 322.548 257.426 328.439C257.226 334.958 259.574 340.822 264.211 345.396C276.371 357.4 291.312 355.591 301.734 351.126C311.902 362.345 321.898 365.798 327.87 366.821C330.992 375.165 333.851 384.36 334.499 393.602C335.363 405.95 331.034 418.262 326.449 431.301C325.339 434.454 324.191 437.715 323.136 440.954C316.812 460.325 311.07 485.317 322.882 506.812C324.703 510.129 328.124 512 331.656 512C333.284 512 334.937 511.601 336.464 510.762C341.304 508.102 343.07 502.023 340.409 497.184C332.296 482.418 337.077 462.696 342.148 447.161C343.132 444.141 344.195 441.125 345.316 437.934C350.374 423.551 355.601 408.676 354.448 392.204C353.722 381.856 351.007 372.138 347.878 363.321C352.702 360.942 358.202 357.15 363.8 351.111C374.124 355.587 388.999 357.411 401.378 345.482C406.186 340.845 408.639 334.876 408.471 328.208C408.35 323.326 406.237 311.197 390.796 295.173C391.889 293.943 392.956 292.677 393.991 291.369L467.553 198.561C467.674 198.409 467.791 198.252 467.901 198.092C469.268 196.147 470.608 194.057 471.881 191.889C471.889 191.877 471.897 191.866 471.904 191.854C481.971 174.565 486.076 153.651 483.467 132.956V132.956ZM191.86 272.181V272.185C183.836 279.92 172.997 272.291 171.848 271.439C169.708 269.806 167.008 269.103 164.344 269.486C161.684 269.869 159.29 271.31 157.7 273.478C147.735 287.103 138.915 288.232 137.47 288.326C136.813 288.228 137.118 288.228 136.462 288.326C135.024 288.236 126.321 287.111 116.771 273.607C115.208 271.404 112.853 269.9 110.181 269.482C109.657 269.4 109.134 269.361 108.61 269.361C106.474 269.361 104.392 270.045 102.657 271.346C101.423 272.248 90.3684 279.916 82.6106 272.263C82.306 271.963 82.0872 271.744 82.1185 270.791C82.2864 265.545 89.2942 255.4 99.2199 245.588C108.482 252.49 118.806 258.525 130.356 260.353C141.575 262.131 152.926 259.518 162.833 254.174C167.458 251.678 171.758 248.662 176.055 245.65C185.75 255.377 192.375 265.217 192.489 270.482C192.508 271.482 192.266 271.791 191.86 272.181V272.181ZM387.503 331.072C387.503 331.076 387.499 331.076 387.499 331.076C379.476 338.806 368.644 331.181 367.495 330.329C365.358 328.697 362.655 327.997 359.995 328.376C357.335 328.763 354.937 330.201 353.351 332.368C343.378 345.993 334.558 347.13 333.109 347.224C332.452 347.122 332.757 347.122 332.109 347.224C330.671 347.13 321.968 346.001 312.417 332.501C310.859 330.294 308.5 328.794 305.832 328.376C305.308 328.294 304.785 328.251 304.261 328.251C302.125 328.251 300.043 328.935 298.308 330.236C297.074 331.138 286.015 338.81 278.258 331.154C277.586 330.494 277.39 330.001 277.418 329.048C277.554 324.611 282.715 316.744 290.324 308.962C303.343 317.814 318.046 322.236 332.745 322.232C347.71 322.232 362.671 317.65 375.839 308.501C384.042 316.947 388.382 324.693 388.483 328.704C388.511 329.755 388.272 330.333 387.503 331.072V331.072ZM454.635 181.768C453.682 183.385 452.694 184.932 451.694 186.37L378.319 278.943C371.054 288.111 361.909 294.834 351.89 298.623C339.222 303.361 325.097 303.193 312.527 298.205C302.464 294.162 293.355 287.15 286.215 277.681C285.668 276.955 235.828 210.612 219.297 188.221C222.981 181.092 226.586 173.487 230.223 165.194C239.293 144.514 246.355 122.464 247.117 99.7297C247.324 93.468 247.082 87.1868 246.23 80.9759C251.469 78.8822 256.891 77.6478 262.43 77.2885C284.547 75.8236 305.265 88.2063 316.511 109.558C320.148 116.46 327.077 120.741 334.605 120.741H334.679C342.238 120.714 349.167 116.378 352.761 109.429C364.55 86.6985 386.448 74.2885 409.944 77.0267C437.194 80.2025 459.772 104.773 463.627 135.452C465.686 151.811 462.494 168.26 454.635 181.768V181.768Z" fill="#01212D"></path><path d="M432.713 164.339C429.128 162.198 424.471 162.534 421.233 165.178C417.967 167.85 416.725 172.491 418.225 176.436C419.69 180.276 423.452 182.917 427.577 182.917C432.284 182.917 436.46 179.475 437.378 174.866C438.194 170.768 436.303 166.483 432.713 164.339Z" fill="#01212D"></path><path d="M411.336 191.717C408.23 189.862 404.214 189.866 401.097 191.694C398.109 193.448 396.003 196.881 393.953 199.581C388.91 206.225 380.386 217.858 368.625 234.151C356.144 251.44 346.878 259.202 341.304 262.667C336.406 265.717 333.636 265.913 333.019 265.909C328.257 264.405 323.023 266.674 320.918 271.334C318.644 276.366 320.878 282.292 325.914 284.565C327.339 285.209 329.781 285.991 333.195 285.991C342.89 285.991 360.433 279.667 384.839 245.858C390.375 238.19 395.925 230.534 401.523 222.913C404.308 219.127 407.097 215.342 409.941 211.6C412.156 208.682 415.421 205.709 416.054 201.952C416.722 197.967 414.808 193.792 411.336 191.717V191.717Z" fill="#01212D"></path><path d="M58.3103 147.503C58.9782 143.44 57.0173 139.265 53.4431 137.214C49.7556 135.101 45.0642 135.573 41.8532 138.351C38.7478 141.05 37.6501 145.554 39.0915 149.393C40.5368 153.241 44.3376 155.878 48.4509 155.878C53.2751 155.878 57.529 152.257 58.3103 147.503Z" fill="#01212D"></path></g><defs><clipPath id="clip0"><rect width="512" height="512" fill="white"></rect></clipPath></defs></svg>