<svg xmlns="http://www.w3.org/2000/svg" width="511" height="511" viewBox="0 0 511 511" fill="none"><path d="M502.202 303.824C490.861 292.506 472.908 292.28 461.216 303.258L442.892 319.169L463.968 273.574C467.379 266.054 467.609 257.679 464.623 249.999C461.672 242.42 455.953 236.502 448.522 233.336C434.67 227.434 418.541 232.919 410.978 246.12L385.906 290.221L391.719 217.679C391.727 217.601 391.73 217.523 391.734 217.445C392.573 202.638 382.315 189.457 367.879 186.787C360.159 185.356 352.346 187.06 345.883 191.578C339.481 196.054 335.161 202.763 333.719 210.479L319.302 283.769L301.996 225.637C313.282 212.108 324.658 198.475 331.5 190.292C338.444 181.987 337.976 169.855 330.413 162.069C315.36 146.568 291.325 143.722 273.263 155.301L247.657 171.715C252.401 143.395 260.534 94.818 265.107 67.6211C267.871 51.1962 257.883 35.4574 241.883 31.013L241.376 30.8726C233.345 28.6465 224.935 29.6875 217.699 33.8161C210.405 37.9798 205.177 44.7713 202.978 52.9428L190.514 99.2975L174.086 26.3892C172.429 18.7167 167.93 12.128 161.407 7.83174C154.818 3.48867 146.959 2.00329 139.286 3.64461C124.928 6.70893 115.037 20.167 116.277 34.9428C116.284 35.0208 116.292 35.0988 116.3 35.1767L124.101 107.531L97.8166 64.1085C89.9063 51.1494 73.6334 46.1085 59.9492 52.3853C52.6081 55.7537 47.0526 61.8278 44.3118 69.4847C41.536 77.2468 41.996 85.6094 45.6452 93.1026L67.9336 138.034L49.1812 122.631C37.189 111.976 19.2475 112.697 8.2261 124.319C-2.36258 135.481 -2.77583 152.763 7.25924 164.514C7.35281 164.623 7.44638 164.728 7.54384 164.83L54.6705 215.477C57.7621 219.406 60.7718 223.598 63.6256 227.937C66.651 232.541 72.8381 233.824 77.4463 230.794C82.0506 227.769 83.3293 221.582 80.304 216.978C77.0564 212.034 73.6178 207.262 70.0818 202.791C69.918 202.58 69.7426 202.377 69.5632 202.182L22.3235 151.418C19.1111 147.516 19.2631 141.683 22.7056 138.054C26.2729 134.296 32.1091 134.101 35.9921 137.613C36.1091 137.715 36.23 137.82 36.3469 137.917L80.9122 174.518C85.6256 178.389 92.2494 178.447 97.0213 174.658C101.817 170.845 103.259 164.338 100.53 158.837L63.5555 84.2995C62.3118 81.742 62.152 78.8726 63.1032 76.2137C64.0194 73.6562 65.8556 71.6328 68.2767 70.5256C72.7601 68.4632 78.1363 70.1747 80.7601 74.471L122.928 144.124C126.125 149.364 132.425 151.699 138.242 149.8C144.07 147.894 147.778 142.284 147.263 136.151C147.255 136.073 147.247 135.995 147.24 135.917L136.16 33.1728C135.805 28.4204 138.928 24.1241 143.458 23.1573C145.863 22.6465 148.339 23.1183 150.425 24.4945C152.561 25.9019 154.039 28.0773 154.581 30.6153C154.588 30.6543 154.596 30.6894 154.604 30.7245L177.072 130.44C178.374 136.401 183.52 140.67 189.602 140.83C195.711 140.986 201.045 136.986 202.631 131.091L222.253 58.1241C223.06 55.1338 224.955 52.6543 227.594 51.1494C230.171 49.6796 233.169 49.3054 236.035 50.1046L236.542 50.2449C242.67 51.9447 246.491 57.9954 245.427 64.3112C239.871 97.3599 229.056 161.96 225.458 183.457C224.592 188.615 226.85 193.808 231.208 196.681C235.54 199.543 241.165 199.582 245.532 196.783L284.035 172.104C294.308 165.52 307.489 167.11 316.097 175.972C316.499 176.389 316.541 177.067 316.191 177.488C308.647 186.514 295.586 202.163 283.216 216.993C283.204 217.005 283.196 217.021 283.185 217.032C277.902 223.368 272.744 229.551 268.198 235.001C260.756 243.933 254.113 253.516 248.308 263.605C248.21 263.773 248.113 263.937 248.027 264.104C245.193 269.063 242.545 274.132 240.136 279.325C234.846 290.736 223.848 298.248 211.438 298.927C211.177 298.942 210.916 298.966 210.659 299.001L154.265 306.56C137.329 308.829 120.448 300.771 111.267 286.026C108.355 281.348 102.203 279.917 97.5242 282.829C92.8459 285.742 91.4112 291.898 94.3234 296.572C106.148 315.558 126.822 326.9 148.592 326.9C151.353 326.9 154.136 326.716 156.92 326.342L212.943 318.829C228.729 317.843 243.025 309.956 252.362 297.543C256.397 318.139 261.068 341.987 264.159 357.769L238.113 342.061C219.738 330.985 195.793 334.49 181.169 350.397C173.824 358.389 173.688 370.529 180.857 378.638C191.976 391.219 214.705 417.001 230.386 434.79C240.822 446.63 249.696 459.835 256.76 474.026C265.598 491.78 283.251 503.188 302.896 503.878L359.107 509.847C361.352 510.084 363.578 510.201 365.797 510.201C393.754 510.201 418.912 491.605 427.11 463.96C427.169 463.765 427.22 463.566 427.266 463.363C432.904 438.892 443.337 416.307 458.272 396.225L503.991 344.303C504.085 344.198 504.179 344.089 504.264 343.979C513.98 331.952 513.091 314.689 502.202 303.824V303.824ZM488.853 331.301L443.025 383.34C442.849 383.539 442.682 383.749 442.522 383.964C425.855 406.268 414.206 431.367 407.894 458.564C401.688 479.012 382.097 492.209 361.216 489.999L304.635 483.991C304.378 483.964 304.117 483.944 303.855 483.936C291.43 483.597 280.234 476.392 274.627 465.133C266.791 449.387 256.943 434.74 245.36 421.593C229.672 403.796 206.935 378.007 195.813 365.422C195.446 365.009 195.469 364.33 195.863 363.901C204.089 354.954 217.524 352.954 227.805 359.153L266.97 382.771C271.415 385.449 277.033 385.254 281.286 382.28C285.563 379.285 287.68 374.034 286.674 368.899C284.233 356.428 273.161 299.901 267.399 270.506C272.195 262.529 277.575 254.923 283.532 247.781C284.541 246.568 285.586 245.317 286.651 244.038L308.054 315.933C309.805 321.777 315.274 325.636 321.345 325.305C327.419 324.974 332.44 320.572 333.582 314.588L353.309 214.28C353.317 214.245 353.325 214.21 353.333 214.171C353.805 211.617 355.22 209.403 357.317 207.937C359.364 206.502 361.828 205.964 364.245 206.412C368.799 207.254 372.038 211.461 371.816 216.221L363.559 319.235C363.551 319.313 363.547 319.391 363.543 319.469C363.196 325.609 367.06 331.118 372.935 332.861C378.799 334.599 385.033 332.096 388.101 326.74L428.311 256.015C430.83 251.617 436.159 249.761 440.697 251.699C443.146 252.74 445.04 254.709 446.023 257.243C447.048 259.874 446.966 262.748 445.824 265.27L410.877 340.86C408.3 346.436 409.921 352.899 414.818 356.58C419.691 360.237 426.307 360.003 430.916 355.999L474.463 318.19C474.58 318.089 474.697 317.983 474.81 317.874C478.6 314.256 484.436 314.295 488.105 317.952C491.645 321.484 491.956 327.313 488.853 331.301V331.301Z" fill="#01212D"></path><path d="M99.2084 257.605C100.019 253.582 98.1831 249.348 94.6977 247.184C91.0447 244.915 86.2572 245.289 82.9745 248.05C79.84 250.685 78.6471 255.172 80.0428 259.017C81.4658 262.935 85.2474 265.64 89.4307 265.64C94.1363 265.64 98.2845 262.21 99.2084 257.605V257.605Z" fill="#01212D"></path></svg>