<svg xmlns="http://www.w3.org/2000/svg" width="512" height="512" viewBox="0 0 512 512" fill="none"><g clip-path="url(#clip0)"><path d="M375.078 14.0338C366.597 5.55053 354.236 2.23582 342.649 5.33833C331.062 8.44083 322.01 17.4892 318.904 29.075C315.797 40.6608 319.107 53.0238 327.588 61.5071L357.267 91.1863L321.653 126.8L280.106 85.2522C270.144 75.7385 254.463 75.7385 244.501 85.2522C234.671 95.0851 234.671 111.024 244.501 120.857L113.924 251.434C83.8476 281.631 76.0081 327.479 94.3422 365.954L78.3192 382.002C67.5636 392.835 65.4704 409.561 73.2243 422.711L2.45923 493.476C0.277302 495.583 -0.597764 498.704 0.170366 501.638C0.938495 504.573 3.23028 506.865 6.16488 507.633C9.09947 508.401 12.2202 507.526 14.3276 505.344L85.0927 434.579C98.2178 442.436 115.009 440.334 125.792 429.484L141.849 413.461C180.32 431.894 226.236 424.041 256.394 393.871L309.802 340.463L369.144 281.113L386.938 263.302C396.774 273.134 412.719 273.131 422.551 263.294C432.383 253.457 432.379 237.513 422.543 227.68L380.995 186.141L416.608 150.528L446.288 180.207C454.737 188.846 467.178 192.278 478.861 189.193C490.545 186.108 499.67 176.982 502.753 165.298C505.836 153.613 502.402 141.173 493.761 132.725L375.078 14.0338ZM113.924 417.616C109.682 421.856 103.501 423.511 97.7081 421.958C91.9152 420.404 87.391 415.879 85.8397 410.085C84.2885 404.292 85.9458 398.111 90.1875 393.871L103.13 380.928C109.548 390.208 117.589 398.252 126.867 404.673L113.924 417.616ZM363.209 263.302L333.53 233.623C330.251 230.346 324.935 230.348 321.658 233.627C318.38 236.907 318.382 242.222 321.662 245.5L351.341 275.171L333.539 292.981L303.843 263.302C301.735 261.12 298.614 260.245 295.68 261.013C292.745 261.782 290.453 264.073 289.685 267.008C288.917 269.943 289.792 273.063 291.974 275.171L321.645 304.85L303.843 322.652L274.163 292.981C272.056 290.8 268.935 289.924 266.001 290.693C263.066 291.461 260.774 293.753 260.006 296.687C259.238 299.622 260.113 302.742 262.295 304.85L291.974 334.521L244.501 382.002C223.297 403.208 192.391 411.49 163.425 403.73C134.459 395.969 111.833 373.345 104.071 344.38C96.3085 315.414 104.589 284.507 125.792 263.302L256.369 132.725L375.069 251.434L363.209 263.302ZM410.691 251.434C407.37 254.604 402.144 254.604 398.823 251.434L392.889 245.5L262.303 114.923L256.369 108.989C253.97 106.588 253.252 102.979 254.551 99.8429C255.849 96.7069 258.909 94.6619 262.303 94.6612C264.531 94.6524 266.669 95.5384 268.238 97.1205L410.683 239.566C413.959 242.843 413.959 248.156 410.683 251.434H410.691ZM404.757 138.668L369.144 174.281L333.53 138.668L369.144 103.055L386.938 120.866L404.757 138.668ZM481.909 168.347C475.265 174.683 464.817 174.683 458.173 168.347L398.823 108.989L375.078 85.2522L339.456 49.6388C332.901 43.0818 332.903 32.4526 339.46 25.8979C346.017 19.3432 356.646 19.3451 363.201 25.9021L481.901 144.602C485.051 147.751 486.82 152.021 486.82 156.475C486.82 160.928 485.051 165.199 481.901 168.347H481.909Z" fill="#01212D"></path><path d="M211.825 295.978C212.144 284.867 207.859 274.117 199.982 266.273C192.543 259.092 182.526 255.206 172.189 255.494C161.853 255.781 152.067 260.217 145.039 267.801C128.109 284.731 130.275 308.753 133.548 345.113C134.11 351.291 134.698 357.854 135.227 364.846C135.546 368.974 138.828 372.253 142.957 372.568C149.949 373.105 156.529 373.701 162.724 374.247C176.153 375.455 187.904 376.513 198.194 376.513C215.821 376.513 229.317 373.433 239.994 362.748C247.302 355.6 251.704 345.999 252.349 335.796C252.932 325.343 248.987 315.144 241.521 307.804C233.72 299.87 222.945 295.579 211.825 295.978V295.978ZM228.134 350.888C216.744 362.269 196.977 360.481 164.226 357.535C160.13 357.166 155.833 356.78 151.401 356.411C151.023 351.962 150.637 347.698 150.268 343.602C147.322 310.868 145.534 291.051 156.907 279.669C160.78 275.225 166.297 272.551 172.185 272.262C178.073 271.974 183.825 274.097 188.114 278.142C194.38 284.855 196.63 294.38 194.031 303.188C193.05 306.192 193.84 309.493 196.075 311.728C198.31 313.963 201.611 314.753 204.615 313.772C213.416 311.165 222.938 313.399 229.661 319.647C233.766 323.62 235.934 329.187 235.596 334.89C235.173 340.962 232.514 346.662 228.134 350.888V350.888Z" fill="#01212D"></path></g><defs><clipPath id="clip0"><rect width="512" height="512" fill="white"></rect></clipPath></defs></svg>