<svg xmlns="http://www.w3.org/2000/svg" width="512" height="512" viewBox="0 0 512 512" fill="none"><path d="M466.765 211.472C466.765 154.984 444.769 101.879 404.828 61.9374C364.887 21.9961 311.781 0 255.293 0C153.992 0 66.6527 72.1131 47.6254 171.472C46.5864 176.894 50.141 182.136 55.5668 183.175C60.9887 184.214 66.2269 180.656 67.266 175.234C84.4964 85.285 163.57 20 255.293 20C360.871 20 446.765 105.894 446.765 211.472C446.765 276.914 413.679 337.062 359.39 372.21V332.632C394.812 302.203 415.035 258.32 415.035 211.472C415.035 123.39 343.375 51.7304 255.293 51.7304C167.215 51.7304 95.5628 123.39 95.5628 211.472C95.5628 257.312 115.071 300.57 149.246 330.921V370.898C130.676 358.491 114.192 342.784 100.965 324.804C84.0628 301.828 72.3597 274.921 67.1215 246.988C66.1019 241.562 60.8754 237.988 55.4496 239.007C50.0238 240.023 46.4457 245.25 47.4653 250.679C53.2543 281.542 66.184 311.273 84.8558 336.656C102.032 360.011 124.207 379.898 149.242 394.46V412.101C137.547 423.003 130.93 438.109 130.93 454.265C130.93 486.101 156.828 511.999 188.664 511.999C220.5 511.999 246.398 486.101 246.398 454.265C246.398 442.601 242.934 431.495 236.617 422.109C242.816 422.652 249.055 422.937 255.289 422.937C260.832 422.937 266.379 422.706 271.902 422.277C265.652 431.624 262.23 442.667 262.23 454.265C262.23 486.101 288.129 511.999 319.965 511.999C351.801 511.999 377.699 486.101 377.699 454.265C377.699 438.109 371.082 423.003 359.387 412.097V395.577C425.777 358.007 466.765 288.019 466.765 211.472ZM115.559 211.472C115.559 134.418 178.242 71.7303 255.289 71.7303C332.344 71.7303 395.031 134.418 395.031 211.472C395.031 247.328 381.492 281.199 357.351 306.941C355.086 300.46 350.937 294.663 345.558 290.402V268.429C356.769 262.816 370.539 250.253 370.547 228.41V169.136C370.547 163.613 366.07 159.136 360.547 159.136C355.023 159.136 350.547 163.613 350.547 169.136V228.406C350.539 246.445 334.703 251.492 332.984 251.984C328.605 253.152 325.558 257.117 325.558 261.648V282.605C321.894 282.343 318.031 282.316 314.371 282.609V261.648C314.371 257.117 311.406 253.171 307.027 252.007C305.223 251.492 289.383 246.445 289.383 228.41V169.136C289.383 163.613 284.906 159.136 279.383 159.136C273.859 159.136 269.383 163.613 269.383 169.136V228.41C269.383 250.257 283.156 262.816 294.371 268.429V290.406C285.953 297.089 280.543 307.402 280.543 318.96V348.937C263.324 352.077 245.281 351.952 228.106 348.574V318.96C228.106 307.402 222.695 297.093 214.281 290.41V268.429C225.492 262.816 239.262 250.257 239.262 228.41V203.472C239.262 191.996 233.516 177.976 223.891 165.965C213.309 152.761 200.477 145.187 188.684 145.187C176.895 145.187 164.063 152.761 153.481 165.965C143.856 177.98 138.106 192 138.106 203.472V228.41C138.106 250.257 151.879 262.816 163.094 268.429V290.39C158.149 294.312 154.242 299.484 151.856 305.433C128.602 279.859 115.559 246.527 115.559 211.472V211.472ZM201.707 251.984C197.328 253.152 194.281 257.117 194.281 261.648V282.609C194.262 282.609 194.238 282.609 194.219 282.605C193.371 282.546 192.52 282.507 191.656 282.507C188.813 282.507 185.934 282.39 183.098 282.609V261.648C183.098 257.117 180.133 253.175 175.754 252.007C173.949 251.492 158.11 246.445 158.11 228.41V203.468C158.11 188.441 176.684 165.187 188.684 165.187C200.688 165.187 219.262 188.441 219.262 203.468V228.41C219.262 246.445 203.43 251.492 201.707 251.984ZM188.664 491.999C167.86 491.999 150.93 475.069 150.93 454.265C150.93 442.605 156.211 431.78 165.414 424.562C167.828 422.663 169.242 419.765 169.242 416.691V388.929C169.246 388.827 169.262 388.726 169.262 388.624V318.96C169.262 312.214 173.348 306.41 179.172 303.87C181.93 302.671 184.766 302.515 187.715 302.515C190.152 302.515 192.641 302.374 195.039 302.867C202.481 304.441 208.086 311.058 208.086 318.96V416.691C208.086 419.765 209.5 422.663 211.918 424.562C221.121 431.776 226.398 442.605 226.398 454.265C226.398 475.069 209.473 491.999 188.664 491.999V491.999ZM228.109 401.019V368.89C237.055 370.421 246.148 371.214 255.293 371.214C263.773 371.214 272.227 370.534 280.543 369.21V401.284C263.215 403.562 245.387 403.472 228.109 401.019ZM319.965 491.999C299.16 491.999 282.23 475.069 282.23 454.265C282.23 442.605 287.512 431.78 296.715 424.562C299.129 422.663 300.543 419.765 300.543 416.691V318.964C300.543 312.183 304.668 306.351 310.535 303.835C313.594 302.527 316.719 302.515 319.965 302.515C323.215 302.515 326.336 302.531 329.398 303.839C333.305 305.511 336.433 308.652 338.09 312.562C338.926 314.531 339.387 316.691 339.387 318.96V416.691C339.387 419.765 340.797 422.667 343.215 424.562C352.418 431.78 357.699 442.605 357.699 454.265C357.699 475.069 340.773 491.999 319.965 491.999V491.999Z" fill="#01212D"></path><path d="M322.102 245.465C327.625 245.465 332.102 240.984 332.102 235.465V169.133C332.102 163.613 327.625 159.133 322.102 159.133C316.582 159.133 312.102 163.613 312.102 169.133V235.465C312.102 240.984 316.578 245.465 322.102 245.465Z" fill="#01212D"></path><path d="M48.8988 218.539C51.852 221.488 56.4652 222.304 60.2426 220.511C63.9457 218.754 66.2856 214.75 65.9301 210.652C65.5707 206.48 62.602 202.91 58.5551 201.82C54.4731 200.722 49.9965 202.398 47.6566 205.922C45.0551 209.843 45.559 215.203 48.8988 218.539V218.539Z" fill="#01212D"></path><path d="M320.109 317.175C314.586 317.175 310.109 321.652 310.109 327.175V412.531C310.109 418.054 314.586 422.531 320.109 422.531C325.633 422.531 330.109 418.054 330.109 412.531V327.175C330.109 321.652 325.633 317.175 320.109 317.175V317.175Z" fill="#01212D"></path><path d="M188.832 317.175C183.313 317.175 178.832 321.652 178.832 327.175V412.531C178.832 418.054 183.313 422.531 188.832 422.531C194.356 422.531 198.832 418.054 198.832 412.531V327.175C198.832 321.652 194.356 317.175 188.832 317.175V317.175Z" fill="#01212D"></path></svg>