<svg xmlns="http://www.w3.org/2000/svg" width="512" height="512" viewBox="0 0 512 512" fill="none"><path d="M85.1172 293.797C79.5977 293.797 75.1172 298.273 75.1172 303.797V400.566C75.1172 406.09 79.5977 410.566 85.1172 410.566C90.6406 410.566 95.1172 406.09 95.1172 400.566V303.797C95.1172 298.273 90.6406 293.797 85.1172 293.797Z" fill="#01212D"></path><path d="M128.477 400.66V294.484C128.477 281.578 122.32 270.086 112.801 262.77V236.367C125.293 230.367 141.117 216.438 141.117 191.824V163.551C141.117 150.98 134.656 134.328 124.258 120.094C117.289 110.555 102.938 94.5547 85.1133 94.5547C56.7852 94.5547 29.1133 138.211 29.1133 163.551V191.824C29.1133 216.438 44.9414 230.367 57.4414 236.371V262.766C47.918 270.082 41.7617 281.574 41.7617 294.484V400.66C28.5078 412.801 21 429.746 21 447.883C21 483.238 49.7617 512 85.1172 512C120.473 512 149.234 483.238 149.234 447.883C149.234 429.746 141.727 412.801 128.477 400.66V400.66ZM70.0898 219.863C67.9414 219.258 49.1133 213.305 49.1133 191.824V163.551C49.1133 155.27 54.3438 142.547 62.1289 131.891C69.8203 121.359 78.8477 114.555 85.1133 114.555C91.3867 114.555 100.41 121.359 108.105 131.891C115.887 142.543 121.117 155.266 121.117 163.551V191.824C121.117 213.305 102.297 219.258 100.223 219.848C95.8438 221.012 92.7969 224.977 92.7969 229.508V254.734C90.2422 254.461 87.6836 254.496 85.1172 254.496C82.5547 254.496 79.9961 254.461 77.4414 254.734V229.508C77.4414 224.977 74.4687 221.031 70.0898 219.863ZM85.1172 492C60.793 492 41 472.211 41 447.883C41 434.25 47.1719 421.594 57.9336 413.152C60.3516 411.258 61.7617 408.355 61.7617 405.285V294.484C61.7617 286.254 66.7695 279.172 73.8945 276.109C77.5664 274.527 81.3242 274.504 85.2227 274.504C89.0508 274.504 92.7305 274.57 96.3359 276.109C103.465 279.164 108.477 286.25 108.477 294.484V405.285C108.477 408.355 109.887 411.258 112.305 413.152C123.066 421.594 129.234 434.25 129.234 447.883C129.234 472.211 109.445 492 85.1172 492V492Z" fill="#01212D"></path><path d="M461 76.6523C461.027 76.6289 461.055 76.5977 461.086 76.5664C461.758 75.8906 462.379 75.1758 462.969 74.4414H472.25C483.047 74.4414 491.828 65.6602 491.828 54.8633V19.5781C491.828 8.78125 483.047 0 472.25 0H177.117C166.32 0 157.539 8.78125 157.539 19.5781V54.8633C157.539 65.6602 166.32 74.4414 177.117 74.4414H186.473C187.086 75.2031 187.727 75.9375 188.418 76.625C188.789 76.9922 189.191 77.5039 189.57 78.0781C194.531 85.7109 195.344 101.848 192.324 108.336C190.121 113.078 187.793 115.699 185.824 117.617C185.543 117.891 185.266 118.16 184.996 118.41C171.062 131.422 163.07 150.062 163.07 169.559V181.148C163.07 181.172 163.066 181.199 163.066 181.223V434.699C163.066 434.727 163.07 434.754 163.07 434.777V456.512C163.07 487.105 187.965 511.996 218.559 511.996H430.887C461.484 511.996 486.371 487.105 486.371 456.512V169.562C486.371 150.059 478.379 131.414 464.461 118.434C464.254 118.238 464.043 118.047 463.84 117.836C463.785 117.781 463.73 117.727 463.676 117.672C461.578 115.609 459.336 113.043 457.121 108.297C454.184 101.969 454.879 86.3672 459.652 78.4414C460.203 77.5273 460.688 76.9648 461 76.6523V76.6523ZM177.539 20H471.828V54.4414H457.547C457.527 54.4414 457.508 54.4375 457.484 54.4375H191.949C191.93 54.4375 191.91 54.4414 191.891 54.4414H177.539V20ZM430.891 491.996H218.559C198.992 491.996 183.074 476.078 183.074 456.512V444.699H466.375V456.512C466.375 476.078 450.453 491.996 430.891 491.996ZM466.375 169.562V171.227H277.098C271.574 171.227 267.098 175.703 267.098 181.227C267.098 186.746 271.574 191.227 277.098 191.227H466.371V424.703H183.07V191.227H200.906C206.43 191.227 210.906 186.746 210.906 181.227C210.906 175.703 206.43 171.227 200.906 171.227H183.07V169.562C183.07 155.586 188.746 142.273 198.652 133.023C199.016 132.684 199.383 132.332 199.762 131.961C204.363 127.477 207.664 122.785 210.461 116.766C215.664 105.594 215.199 87.668 210.004 74.4453H439.457C434.344 87.6133 433.891 105.746 438.984 116.73C441.773 122.711 445.039 127.379 449.57 131.852C449.965 132.254 450.367 132.637 450.793 133.035C460.695 142.27 466.375 155.586 466.375 169.562V169.562Z" fill="#01212D"></path><path d="M361.637 342.445C361.875 341.469 362.016 340.48 362.031 339.492C362.094 335.203 359.312 331.266 355.254 329.887C350.023 328.109 344.344 330.91 342.57 336.141C342.551 336.191 341.672 338.687 339.496 341.273C336.867 344.027 332.668 346.762 326.297 347.004C319.922 346.762 315.723 344.027 313.094 341.273C310.918 338.687 310.035 336.191 310.019 336.141C308.246 330.91 302.566 328.109 297.336 329.887C294.418 330.879 292.09 333.207 291.094 336.125C289.07 342.059 293.316 348.449 296.781 352.934C302.383 360.187 311.695 367.027 325.383 367.027C325.691 367.027 325.988 367.008 326.293 367.004C326.602 367.008 326.895 367.027 327.207 367.027C340.895 367.027 350.203 360.187 355.809 352.934C358.195 350.016 360.691 346.312 361.637 342.445V342.445Z" fill="#01212D"></path><path d="M351.625 303.527C353.203 307.379 357.184 309.914 361.344 309.695C365.481 309.481 369.086 306.688 370.371 302.766C371.672 298.809 370.25 294.301 366.942 291.777C363.57 289.215 358.836 289.047 355.305 291.399C351.391 294.008 349.813 299.188 351.625 303.527V303.527Z" fill="#01212D"></path><path d="M287.164 303.527C288.742 307.379 292.723 309.914 296.883 309.695C301.004 309.481 304.648 306.691 305.914 302.766C307.195 298.801 305.801 294.309 302.48 291.777C299.109 289.215 294.375 289.047 290.844 291.399C286.93 294.008 285.355 299.188 287.164 303.527V303.527Z" fill="#01212D"></path><path d="M238.27 266.539C218.527 266.859 202.559 283.016 202.559 302.836C202.559 321.223 216.305 336.449 234.055 338.812C246.992 377.184 283.32 404.891 326 404.891C368.68 404.891 405.008 377.184 417.945 338.812C435.699 336.453 449.445 321.223 449.445 302.836C449.445 283.012 433.477 266.859 413.73 266.539C398.18 233.68 364.703 210.891 326 210.891C287.297 210.891 253.82 233.68 238.27 266.539ZM229.348 316.066C225.238 313.102 222.559 308.277 222.559 302.836C222.559 296.727 225.938 291.387 230.926 288.594C229.102 297.613 228.582 306.898 229.348 316.066ZM421.078 288.594C426.066 291.387 429.445 296.723 429.445 302.836C429.445 308.277 426.766 313.105 422.656 316.066C423.441 306.906 422.902 297.602 421.078 288.594ZM326 230.891C359.121 230.891 387.422 251.914 398.27 281.316C403.223 294.754 404.277 309.504 401.402 323.523C394.156 358.512 363.105 384.891 326 384.891C288.93 384.891 257.898 358.559 250.621 323.613C247.687 309.516 248.91 294.98 253.684 281.438C264.496 251.973 292.832 230.891 326 230.891Z" fill="#01212D"></path><path d="M230.547 185.051C233.223 191.469 241.93 193.32 246.856 188.289C249.676 185.469 250.547 181.082 249.016 177.398C246.941 172.43 241.172 169.977 236.156 171.922C230.988 173.926 228.449 179.93 230.547 185.051Z" fill="#01212D"></path></svg>