<svg xmlns="http://www.w3.org/2000/svg" width="513" height="513" viewBox="0 0 513 513" fill="none"><g clip-path="url(#clip0)"><path d="M329.941 74.505C322.987 48.478 306.388 26.772 283.203 13.386C268.034 4.629 250.759 0 233.245 0C197.297 0 163.872 19.214 146.015 50.144L82.731 159.754C82.725 159.764 82.718 159.773 82.712 159.783C82.706 159.793 82.702 159.804 82.696 159.814L19.41 269.427C-8.27798 317.385 8.21402 378.928 56.172 406.616C71.338 415.372 88.611 420 106.123 420C138.909 420 169.682 404.128 188.439 377.543C188.611 377.299 188.772 377.048 188.921 376.791L319.958 150.589C333.335 127.495 336.88 100.476 329.941 74.505ZM171.846 366.366C156.807 387.435 132.272 400 106.123 400C92.117 400 78.302 396.298 66.172 389.295C27.764 367.121 14.557 317.834 36.731 279.426L95.034 178.443L116.68 190.94C116.682 190.941 116.683 190.943 116.685 190.943C116.686 190.944 116.688 190.944 116.689 190.945L234.171 258.776L171.846 366.366ZM302.651 140.562L244.195 241.472L135.344 178.625L163.32 130.169C166.081 125.386 164.443 119.27 159.66 116.509C154.877 113.747 148.761 115.386 146 120.169L118.024 168.625L105.033 161.125L163.334 60.145C177.631 35.382 204.419 20 233.245 20C247.253 20 261.071 23.702 273.203 30.707C291.758 41.419 305.046 58.808 310.619 79.668C316.177 100.472 313.347 122.098 302.651 140.562Z" fill="#01212D"></path><path d="M462.253 342.82C437.835 335.843 405.633 332.001 371.58 332.001C337.527 332.001 305.326 335.843 280.908 342.82C251.896 351.109 237.171 362.779 237.137 377.506C237.137 377.524 237.134 377.54 237.134 377.557V466.445C237.134 481.223 251.838 492.918 280.836 501.203C305.208 508.167 337.435 512.002 371.578 512.002C405.721 512.002 437.948 508.167 462.32 501.203C491.319 492.918 506.022 481.223 506.022 466.445V377.619C506.024 377.599 506.026 377.578 506.026 377.557C506.026 362.806 491.298 351.118 462.253 342.82ZM286.403 362.051C309.085 355.571 339.335 352.002 371.581 352.002C403.828 352.002 434.078 355.571 456.76 362.051C480.871 368.94 485.997 376.339 486.026 377.546C486.026 377.55 486.025 377.554 486.025 377.558V377.575C485.984 378.795 480.842 386.183 456.76 393.064C434.078 399.544 403.828 403.113 371.581 403.113C339.335 403.113 309.085 399.544 286.403 393.064C262.224 386.156 257.136 378.733 257.136 377.558C257.136 376.383 262.224 368.959 286.403 362.051ZM486.026 466.445C486.024 467.871 480.829 475.115 456.828 481.973C434.192 488.44 403.917 492.002 371.58 492.002C339.242 492.002 308.968 488.441 286.332 481.973C262.331 475.116 257.136 467.871 257.136 466.445V403.13C263.539 406.535 271.462 409.595 280.909 412.294C305.327 419.271 337.528 423.113 371.581 423.113C405.634 423.113 437.836 419.271 462.254 412.294C471.7 409.595 479.621 406.536 486.025 403.131V428.087C471.677 435.187 453.779 440.937 433.82 444.818C428.398 445.872 424.858 451.121 425.912 456.543C426.841 461.32 431.026 464.636 435.718 464.636C436.351 464.636 436.993 464.575 437.637 464.45C455.449 460.987 471.875 456.087 486.026 450.073V466.445Z" fill="#01212D"></path><path d="M174.683 90.4861C169.9 87.7251 163.785 89.3631 161.023 94.1461L160.861 94.4271C158.1 99.2101 159.738 105.325 164.521 108.087C166.096 108.996 167.815 109.428 169.512 109.428C172.968 109.428 176.329 107.635 178.181 104.427L178.343 104.146C181.105 99.3631 179.466 93.2481 174.683 90.4861Z" fill="#01212D"></path><path d="M415.713 457.961C415.165 452.467 410.275 448.458 404.768 449.006L404.543 449.028C399.045 449.548 395.01 454.428 395.531 459.926C396.021 465.103 400.377 468.983 405.474 468.983C405.789 468.983 406.109 468.968 406.429 468.938L406.758 468.906C412.253 468.357 416.263 463.456 415.713 457.961Z" fill="#01212D"></path></g><defs><clipPath id="clip0"><rect width="512.002" height="512.002" fill="white"></rect></clipPath></defs></svg>