<svg xmlns="http://www.w3.org/2000/svg" width="512" height="512" viewBox="0 0 512 512" fill="none"><path d="M234.516 62.8281C238.613 62.0625 241.852 58.5977 242.461 54.4961C243.063 50.4219 241.024 46.2891 237.422 44.293C233.672 42.2148 228.863 42.8008 225.731 45.7344C222.723 48.5508 221.774 53.0469 223.336 56.8516C225.125 61.1953 229.902 63.7656 234.516 62.8281Z" fill="#01212D"></path><path d="M417.453 314.91C417.211 307.145 416.395 299.383 415.027 291.734C414.203 287.09 413.195 282.477 411.965 277.914C411.875 277.59 411.77 277.277 411.652 276.969C402.242 243.137 381.926 212.93 353.449 191.91C343.117 184.281 334.094 179.547 328.668 177.027V139.367C328.668 133.848 324.191 129.367 318.668 129.367H289.602V98.3438H328.914C334.438 98.3438 338.914 93.8672 338.914 88.3438V53.0312C338.914 47.5078 334.438 43.0312 328.914 43.0312H318.34V27.7539C318.34 12.4492 305.891 0 290.586 0H208.324C193.02 0 180.57 12.4492 180.57 27.7539V45.3164C164.141 50.3789 126.895 66.0234 103.301 108.258C100.246 113.727 100.316 120.215 103.488 125.621C106.668 131.039 112.312 134.273 118.586 134.273H127.602C134.703 134.273 141.563 131.633 146.914 126.84C158.02 116.895 182.18 100.648 222.938 98.5703V129.367H193.871C188.348 129.367 183.871 133.848 183.871 139.367V177.027C178.445 179.547 169.422 184.281 159.09 191.91C130.625 212.922 110.309 243.117 100.895 276.934C100.773 277.254 100.66 277.578 100.57 277.914C98.957 283.895 97.7109 289.961 96.7969 296.078C95.6094 303.965 95 311.961 95 319.941V463.57C95 463.594 95.0039 463.613 95.0039 463.637V474.617C95.0039 495.23 111.773 512 132.387 512H380.152C400.766 512 417.535 495.23 417.535 474.617V319.934C417.535 318.258 417.504 316.582 417.453 314.91V314.91ZM133.566 111.941C131.891 113.445 129.77 114.273 127.602 114.273H122.941C148.867 71.6719 191.977 62.9414 192.391 62.8633C197.129 61.9844 200.566 57.8516 200.566 53.0273V27.7539C200.566 23.4805 204.047 20 208.324 20H290.586C294.859 20 298.34 23.4805 298.34 27.7539V43.0312H272.246C266.727 43.0312 262.246 47.5078 262.246 53.0312C262.246 58.5547 266.727 63.0312 272.246 63.0312H308.328H308.336H308.34H318.914V78.3438H231.719C178.957 78.3438 147.578 99.3945 133.566 111.941ZM242.938 98.3438H269.602V129.367H242.938V98.3438ZM203.871 149.367H308.668V174.145H203.871V149.367ZM170.969 208C181.961 199.887 191.141 195.609 194.586 194.145H317.949C321.418 195.621 330.594 199.898 341.57 208C363.07 223.871 379.242 245.762 388.539 270.52H376.445C370.926 270.52 366.445 274.996 366.445 280.52C366.445 286.043 370.926 290.52 376.445 290.52H394.406C396.477 300.18 397.535 310.059 397.535 319.941V453.57H115.004V319.934C115.004 310.055 116.063 300.18 118.133 290.52H300.371C305.895 290.52 310.371 286.043 310.371 280.52C310.371 274.996 305.895 270.52 300.371 270.52H123.996C133.297 245.762 149.469 223.871 170.969 208V208ZM380.148 492H132.387C122.801 492 115.004 484.203 115.004 474.617V473.57H397.535V474.617C397.535 484.203 389.734 492 380.148 492Z" fill="#01212D"></path><path d="M155.219 354.715C155.219 369.148 166.965 380.895 181.398 380.895H331.141C345.574 380.895 357.32 369.148 357.32 354.715C357.32 340.277 345.574 328.535 331.141 328.535H181.398C166.965 328.535 155.219 340.277 155.219 354.715ZM337.316 354.715C337.316 358.121 334.547 360.895 331.141 360.895H181.398C177.992 360.895 175.219 358.121 175.219 354.715C175.219 351.309 177.992 348.535 181.398 348.535H331.141C334.547 348.535 337.316 351.309 337.316 354.715Z" fill="#01212D"></path><path d="M302.574 399.195H209.965C204.441 399.195 199.965 403.672 199.965 409.195C199.965 414.719 204.441 419.195 209.965 419.195H302.574C308.098 419.195 312.574 414.719 312.574 409.195C312.574 403.672 308.098 399.195 302.574 399.195Z" fill="#01212D"></path><path d="M330.328 284.34C331.863 288.09 335.668 290.59 339.719 290.516C343.898 290.441 347.683 287.684 349.027 283.73C350.351 279.832 349.086 275.398 345.902 272.785C342.535 270.027 337.629 269.785 334.008 272.199C330.094 274.809 328.519 279.996 330.328 284.34Z" fill="#01212D"></path></svg>