<svg xmlns="http://www.w3.org/2000/svg" width="511" height="511" viewBox="0 0 511 511" fill="none"><g clip-path="url(#clip0)"><path d="M290.829 219.613C289.313 215.828 285.406 213.372 281.356 213.461C277.165 213.555 273.406 216.401 272.128 220.385C270.857 224.339 272.225 228.826 275.547 231.352C278.923 233.921 283.625 234.069 287.161 231.73C291.094 229.122 292.611 223.964 290.829 219.613V219.613Z" fill="#01212D"></path><path d="M503.484 239.461C504.575 227.274 502.645 214.896 497.78 203.66C488.84 182.966 470.681 167.15 448.501 161.434C442.61 159.91 436.439 159.103 430.076 159.103C428.201 159.103 426.314 159.193 424.443 159.333C418.478 159.781 412.661 160.939 407.078 162.764C402.922 157.793 396.934 154.339 390.006 153.54C384.544 152.908 379.581 156.838 378.95 162.311C378.357 167.442 381.769 172.113 386.704 173.2C383.628 175.446 380.704 177.933 377.96 180.674C371.87 186.76 366.973 193.727 363.394 201.282C357.297 197.43 352.236 194.428 348.061 192.089C358.876 178.565 366.704 162.569 370.681 145.711C371.784 141.041 372.622 136.319 373.16 131.551C379.347 130.07 385.215 126.92 390.034 122.101C393.928 118.202 393.928 111.883 390.034 107.988C386.135 104.089 379.819 104.089 375.917 107.988C375.203 108.701 374.431 109.325 373.628 109.871C371.866 84.4325 361.971 60.3586 344.966 40.7602C327.804 20.9864 305.11 7.73496 279.901 2.5069C266.436 -0.304002 252.451 -0.764039 238.837 1.19697C225.434 3.12289 212.393 7.36459 200.424 13.7076C188.927 19.8012 178.444 27.8051 169.52 37.2787C161.075 46.2416 154.034 56.5184 148.752 67.6451C143.192 79.3487 139.567 91.9959 138.132 104.877C137.945 106.553 137.777 108.238 137.66 109.926C136.81 109.356 136.015 108.705 135.294 107.984C131.395 104.089 125.079 104.089 121.181 107.984C117.282 111.883 117.282 118.202 121.181 122.101C126.019 126.935 131.91 130.089 138.12 131.567C140.432 151.984 148.031 171.594 160.323 188.311C161.223 189.536 162.151 190.732 163.091 191.914C163.134 191.964 163.169 192.019 163.208 192.066C157.91 195.017 152.604 198.245 148.198 201.017C144.034 192.343 138.226 184.604 131.169 178.206C133.82 173.543 135.072 168.035 134.413 162.311C133.785 156.838 128.83 152.916 123.36 153.54C117.883 154.167 113.953 159.118 114.584 164.592C114.67 165.352 114.612 166.089 114.436 166.791C106.241 162.713 97.1847 160.124 87.6175 159.36C85.6487 159.2 83.6682 159.099 81.6916 159.099C62.0036 159.099 43.4968 166.76 29.5748 180.674C15.6489 194.584 7.98036 213.087 7.98425 232.763C7.98425 245.812 11.5203 258.802 18.148 270.046C20.0232 273.219 22.1246 276.253 24.4481 279.114C24.1557 279.192 23.8555 279.258 23.5515 279.293C18.0778 279.925 14.148 284.872 14.7796 290.35C15.3682 295.438 19.6801 299.188 24.6821 299.188C25.0641 299.188 25.4501 299.165 25.836 299.122C31.0953 298.514 35.8087 296.377 39.5982 293.215C49.8827 300.397 62.0737 305.028 75.2511 306.171C73.8125 314.545 72.2218 325.558 72.2218 333.332C72.2218 365.165 82.4362 396.03 101.762 422.591C119.083 446.4 142.908 465.702 170.962 478.759C171.204 482.026 172.062 485.246 173.547 488.225C176.717 494.595 182.459 499.406 189.305 501.421C210.993 507.807 233.301 511 255.609 511C277.917 511 300.225 507.807 321.913 501.421C328.759 499.406 334.502 494.595 337.671 488.225C339.145 485.258 340.003 482.049 340.248 478.798C368.322 465.745 392.166 446.439 409.499 422.619C428.84 396.049 439.063 365.176 439.063 333.328C439.063 325.558 437.48 314.58 436.041 306.206C444.115 305.562 452.139 303.551 459.558 300.299C466.493 297.278 472.957 293.173 478.751 288.069C478.123 293.543 482.053 298.49 487.526 299.118C487.912 299.165 488.298 299.184 488.68 299.184C493.678 299.184 497.994 295.434 498.583 290.346C499.406 283.169 497.234 276.327 493.062 271.071C498.821 261.652 502.38 251.06 503.448 239.937C503.464 239.785 503.468 239.621 503.484 239.461V239.461ZM448.482 283.251C446.747 283.882 444.969 284.428 443.176 284.872C438.946 285.925 434.56 286.467 430.088 286.467C400.447 286.467 376.334 262.377 376.33 232.763C376.33 228.514 376.833 224.342 377.788 220.303C378.041 219.691 378.232 219.06 378.353 218.424C381.211 208.085 387.012 199.15 394.696 192.417C398.037 201.341 406.139 208.136 416.236 209.302C419.651 209.695 422.115 212.795 421.722 216.21C420.072 230.557 430.4 243.578 444.751 245.231C448.166 245.625 450.63 248.724 450.236 252.14C449.106 261.984 453.608 271.2 461.183 276.549C457.445 279.212 453.359 281.41 448.996 283.052C448.825 283.118 448.657 283.188 448.482 283.251V283.251ZM480.298 213.645C483.339 221.57 484.415 230.155 483.515 238.592C482.618 246.88 479.823 254.607 475.577 261.336C475.569 261.336 475.562 261.333 475.55 261.333C472.135 260.939 469.675 257.839 470.065 254.42C471.718 240.073 461.386 227.056 447.035 225.403C443.62 225.009 441.156 221.91 441.55 218.491C443.199 204.144 432.872 191.126 418.521 189.473C415.106 189.079 412.642 185.98 413.035 182.561C413.063 182.323 413.078 182.085 413.102 181.847C418.482 180.046 424.213 179.072 430.127 179.072C434.751 179.072 439.238 179.66 443.523 180.764C460.435 185.13 474.135 197.539 480.298 213.645V213.645ZM158.108 105.91C158.428 103.388 158.845 100.873 159.356 98.3818C163.633 77.6606 174.452 59.302 189.547 45.5672C189.913 45.2319 190.288 44.9044 190.658 44.5769C190.857 44.4054 191.048 44.2261 191.247 44.0545C204.837 32.2651 221.64 24.1793 239.995 21.2164C254.182 18.9357 268.892 19.7856 282.701 23.7544C286.537 24.8577 290.307 26.191 293.979 27.7505C302.743 31.4737 310.857 36.4366 318.108 42.4132C318.443 42.69 318.775 42.9746 319.106 43.2592C319.359 43.4697 319.613 43.6803 319.866 43.8986C338.322 59.8751 350.689 82.5339 353.394 107.754C339.453 94.0738 316.981 94.144 303.137 107.988C300.159 110.963 296.205 112.604 291.999 112.604C287.788 112.604 283.835 110.963 280.861 107.988C266.935 94.066 244.28 94.066 230.354 107.992C227.379 110.963 223.422 112.604 219.215 112.604C215.009 112.604 211.052 110.963 208.077 107.988C194.26 94.1752 171.855 94.0738 157.906 107.672C157.972 107.084 158.034 106.495 158.108 105.91ZM135.45 232.767C135.45 247.11 129.863 260.596 119.711 270.74C109.559 280.884 96.0619 286.471 81.7033 286.471C69.3798 286.471 58.0231 282.295 48.9471 275.305C49.0913 273.601 49.0718 271.867 48.8691 270.104C48.4753 266.689 50.9354 263.59 54.3545 263.196C68.7014 261.543 79.0327 248.522 77.3836 234.175C76.9899 230.76 79.4499 227.66 82.869 227.266C97.2198 225.609 107.551 212.592 105.898 198.245C105.504 194.83 107.968 191.73 111.384 191.337C112.612 191.192 113.805 190.966 114.966 190.662C123.797 197.637 130.459 207.368 133.528 218.783C133.61 219.095 133.719 219.391 133.828 219.687C134.884 223.878 135.45 228.257 135.45 232.767ZM86.2335 179.27C88.3543 179.45 90.4401 179.758 92.4908 180.183C87.7345 185.559 85.1887 192.853 86.0698 200.526C86.4635 203.945 84.0035 207.044 80.5844 207.438C66.2375 209.091 55.9061 222.108 57.5552 236.459C57.949 239.875 55.489 242.974 52.0699 243.368C43.9101 244.307 37.0563 248.923 32.9588 255.368C31.2239 251.644 29.8906 247.703 29.0446 243.578C28.3273 240.089 27.953 236.479 27.953 232.779C27.953 203.165 52.0465 179.072 81.6604 179.072C83.1263 179.072 84.5844 179.138 86.0308 179.255C86.097 179.259 86.1672 179.263 86.2335 179.27ZM316.962 427.051C310.857 423.597 303.367 422.693 296.17 425.141C269.691 434.139 241.625 434.123 215.005 425.094C207.832 422.661 200.362 423.574 194.268 427.02C166.6 410.463 150.272 384.131 150.272 355.527C150.272 307.009 197.543 267.531 255.648 267.531C313.749 267.531 361.012 307.009 361.012 355.527C361.012 384.163 344.665 410.502 316.962 427.051V427.051ZM319.8 479.34C319.387 480.17 318.377 481.659 316.276 482.279C276.588 493.963 234.631 493.963 194.943 482.279C192.841 481.659 191.832 480.17 191.418 479.34C191.017 478.536 190.459 476.895 191.192 474.938C191.192 474.934 191.196 474.93 191.196 474.926C194.397 466.462 197.594 457.999 200.791 449.535L201.625 447.32C201.742 447.012 201.886 446.728 202.042 446.455C202.077 446.396 202.12 446.342 202.159 446.283C202.299 446.061 202.451 445.847 202.623 445.652C203.672 444.424 205.2 443.702 206.81 443.702C207.403 443.702 208.003 443.796 208.596 443.999C239.41 454.451 271.917 454.466 302.595 444.038C304.997 443.223 307.535 444.127 308.923 446.104C308.989 446.197 309.067 446.283 309.129 446.381C309.313 446.681 309.472 447 309.601 447.34L314.256 459.655C316.174 464.739 318.096 469.827 320.022 474.93C320.053 475.016 320.077 475.102 320.104 475.188C320.697 477.032 320.182 478.568 319.8 479.34V479.34ZM393.363 410.88C378.747 430.962 358.829 447.464 335.355 459.032L331.761 449.515L329.266 442.915C343.426 434.053 355.375 422.673 364.158 409.609C375.16 393.254 380.973 374.556 380.973 355.531C380.973 296.003 324.751 247.574 255.648 247.574C186.537 247.574 130.311 296.003 130.311 355.531C130.311 390.576 149.438 422.619 181.96 442.895L175.875 459C152.413 447.429 132.51 430.93 117.902 410.852C101.076 387.726 92.1828 360.923 92.1828 333.336C92.1828 325.987 94.1594 313.562 95.7188 305.098C110.066 302.354 123.263 295.406 133.82 284.857C147.742 270.943 155.411 252.444 155.411 232.767C155.411 228.67 155.056 224.654 154.409 220.736C160.179 217.005 169.403 211.235 177.438 207.068C194.685 222.339 216.007 232.202 239.367 235.426C239.831 235.489 240.291 235.52 240.748 235.52C245.652 235.52 249.929 231.902 250.619 226.904C251.375 221.442 247.558 216.405 242.1 215.652C220.888 212.728 201.703 203.212 186.74 188.44C183.824 185.189 180.763 182.144 178.077 178.682C175.465 175.309 173.052 171.777 170.9 168.097C166.514 160.604 163.075 152.541 160.814 144.156C159.609 139.699 158.705 135.169 158.128 130.592C163.083 128.881 167.738 126.054 171.691 122.105C174.666 119.13 178.619 117.493 182.83 117.493C187.036 117.493 190.993 119.13 193.968 122.105C200.713 128.85 209.679 132.565 219.219 132.565C228.759 132.565 237.726 128.85 244.471 122.105C250.615 115.965 260.607 115.965 266.747 122.105C280.673 136.027 303.328 136.031 317.254 122.105C320.229 119.13 324.182 117.493 328.393 117.493C332.599 117.493 336.556 119.13 339.531 122.105C343.5 126.074 348.178 128.908 353.16 130.612C351.04 147.38 344.552 163.399 334.498 176.974C331.796 180.623 328.821 184.054 325.652 187.305C321.278 191.738 316.435 195.789 311.262 199.344C306.72 202.467 305.57 208.682 308.689 213.224C311.812 217.765 318.026 218.916 322.568 215.793C326.474 213.107 330.205 210.159 333.761 207.036C338.973 209.746 346.529 214.105 357.301 221.083C356.696 224.912 356.373 228.814 356.373 232.767C356.373 268.412 381.843 298.217 415.546 304.985C417.11 313.449 419.102 325.925 419.102 333.336C419.102 360.931 410.201 387.745 393.363 410.88V410.88Z" fill="#01212D"></path><path d="M284.985 171.52C284.985 155.321 271.808 142.144 255.609 142.144C239.41 142.144 226.233 155.321 226.233 171.52C226.233 179.364 229.29 186.744 234.837 192.292C240.385 197.84 247.757 200.896 255.605 200.896H255.609C271.808 200.896 284.985 187.719 284.985 171.52ZM255.609 180.935C253.091 180.935 250.728 179.957 248.95 178.179C247.173 176.401 246.194 174.035 246.194 171.52C246.194 166.327 250.416 162.101 255.609 162.101C260.802 162.101 265.024 166.327 265.024 171.52C265.024 176.709 260.798 180.935 255.609 180.935Z" fill="#01212D"></path><path d="M115.212 246.541C113.606 242.619 109.508 240.101 105.282 240.405C101.138 240.705 97.5473 243.625 96.405 247.617C95.2549 251.621 96.7949 256.034 100.183 258.467C103.508 260.857 108.124 260.927 111.528 258.658C115.434 256.05 117.021 250.88 115.212 246.541Z" fill="#01212D"></path><path d="M412.248 246.541C410.642 242.615 406.56 240.101 402.33 240.405C398.166 240.709 394.618 243.629 393.445 247.617C392.271 251.609 393.858 256.046 397.227 258.467C400.56 260.865 405.164 260.931 408.575 258.658C412.482 256.05 414.053 250.876 412.248 246.541Z" fill="#01212D"></path></g><defs><clipPath id="clip0"><rect width="511" height="511" fill="white"></rect></clipPath></defs></svg>