<svg xmlns="http://www.w3.org/2000/svg" width="512" height="512" viewBox="0 0 512 512" fill="none"><path d="M492.606 112.203L399.071 18.668C374.18 -6.22266 333.684 -6.22266 308.793 18.668C305.336 22.125 302.274 25.9883 299.692 30.1445L282.766 57.418C253.199 105.066 215.156 145.863 169.696 178.688C166.942 180.672 164.328 182.898 161.922 185.305L147.227 199.996C124.59 222.637 122.543 258.184 141.082 283.156L131.614 292.625L125.883 286.895C118.344 279.359 106.086 279.363 98.551 286.895L78.926 306.52C75.2737 310.172 73.262 315.023 73.262 320.188C73.262 325.352 75.2737 330.203 78.9221 333.855L128.672 383.602C128.672 383.602 128.672 383.605 128.676 383.605C128.676 383.609 128.68 383.609 128.68 383.613L177.418 432.352C181.188 436.117 186.137 438 191.082 438C196.031 438 200.981 436.117 204.75 432.348L224.375 412.723C228.024 409.074 230.035 404.219 230.035 399.055C230.035 393.895 228.024 389.039 224.375 385.391L218.645 379.66L228.114 370.191C253.086 388.73 288.633 386.68 311.27 364.047L325.965 349.348C328.367 346.945 330.594 344.332 332.582 341.578C365.406 296.117 406.203 258.074 453.852 228.508L481.125 211.582C485.285 209 489.149 205.937 492.606 202.48C504.66 190.426 511.301 174.395 511.301 157.344C511.301 140.293 504.66 124.258 492.606 112.203V112.203ZM191.082 417.727L178.992 405.641L183.942 400.691C187.848 396.785 187.848 390.453 183.942 386.547C180.039 382.645 173.707 382.641 169.801 386.547L164.848 391.496L149.887 376.535L154.875 371.543C158.781 367.637 158.781 361.305 154.875 357.398C150.969 353.496 144.641 353.496 140.735 357.398L135.742 362.391L120.781 347.43L125.813 342.398C129.715 338.492 129.715 332.16 125.813 328.254C121.906 324.352 115.574 324.352 111.668 328.254L106.637 333.285L93.5432 320.188L112.215 301.516L209.754 399.055L191.082 417.727ZM478.461 188.336C476.09 190.711 473.438 192.816 470.578 194.586L443.305 211.512C393.434 242.461 350.723 282.281 316.367 329.871C315 331.762 313.473 333.559 311.821 335.207L297.129 349.902C280.035 366.992 252.227 366.992 235.137 349.902L234.699 349.461C230.793 345.559 224.465 345.559 220.555 349.461L204.5 365.516L145.754 306.77L161.805 290.715C165.711 286.809 165.711 280.477 161.805 276.57L161.367 276.133C144.278 259.043 144.278 231.234 161.367 214.145L176.059 199.453C177.711 197.801 179.508 196.27 181.399 194.906C228.989 160.547 268.809 117.84 299.762 67.9648L316.684 40.6953C318.457 37.8398 320.559 35.1875 322.934 32.8086C340.024 15.7188 367.832 15.7188 384.926 32.8086L478.461 126.348C486.742 134.625 491.301 145.633 491.301 157.34C491.301 169.051 486.742 180.059 478.461 188.336Z" fill="#01212D"></path><path d="M372.398 135.008C368.246 131.371 361.926 131.789 358.289 135.945C354.648 140.101 355.066 146.418 359.223 150.058C359.832 150.59 360.273 150.996 360.652 151.375C369.285 160.008 372.242 173.695 368.981 189.914C365.422 207.605 355.051 225.765 339.777 241.039C320.223 260.594 295.938 271.457 276.242 271.457C265.77 271.453 256.59 268.383 250.117 261.91C241.484 253.277 238.527 239.59 241.785 223.371C245.348 205.676 255.715 187.519 270.988 172.246C279.129 164.105 288.117 157.348 297.703 152.156C302.559 149.527 304.367 143.457 301.734 138.598C299.106 133.742 293.035 131.937 288.18 134.566C276.895 140.676 266.352 148.598 256.844 158.105C238.816 176.133 226.504 197.91 222.176 219.43C217.555 242.422 222.453 262.531 235.973 276.051C246.176 286.25 260.121 291.543 276.231 291.543C281.477 291.543 286.953 290.98 292.598 289.848C314.113 285.519 335.895 273.211 353.922 255.18C371.949 237.152 384.266 215.371 388.59 193.855C393.215 170.859 388.313 150.75 374.793 137.23C374.102 136.539 373.34 135.836 372.398 135.008V135.008Z" fill="#01212D"></path><path d="M268.562 200.883C264.656 204.785 264.656 211.117 268.562 215.023L298.902 245.363C300.855 247.316 303.414 248.293 305.973 248.293C308.531 248.293 311.09 247.316 313.043 245.363C316.949 241.457 316.949 235.125 313.043 231.219L282.707 200.883C278.801 196.976 272.469 196.976 268.562 200.883Z" fill="#01212D"></path><path d="M296.277 187.312L326.613 217.648C328.566 219.601 331.125 220.578 333.687 220.578C336.246 220.578 338.805 219.601 340.758 217.648C344.664 213.746 344.664 207.414 340.758 203.508L310.418 173.168C306.516 169.265 300.184 169.261 296.277 173.168C292.371 177.074 292.371 183.406 296.277 187.312V187.312Z" fill="#01212D"></path><path d="M17.7269 466.421C12.3558 465.124 6.95342 468.425 5.65655 473.792C3.67608 481.98 2.13702 490.476 1.07842 499.042C0.398736 504.523 4.29327 509.515 9.77374 510.195C10.1917 510.246 10.6058 510.269 11.0159 510.269C15.9886 510.269 20.3011 506.562 20.9261 501.496C21.8948 493.683 23.2972 485.941 25.098 478.492C26.3948 473.124 23.094 467.718 17.7269 466.421V466.421Z" fill="#01212D"></path><path d="M91.3635 364.425C88.0081 360.039 81.7307 359.199 77.344 362.558C63.6448 373.035 51.3518 385.371 40.8088 399.226C37.4651 403.621 38.3166 409.894 42.7112 413.238C44.5237 414.617 46.6526 415.281 48.762 415.281C51.7776 415.281 54.7581 413.925 56.7268 411.339C66.1877 398.906 77.2112 387.839 89.4924 378.445C93.8831 375.089 94.7151 368.812 91.3635 364.425V364.425Z" fill="#01212D"></path><path d="M157.793 447.191C158.082 441.671 153.848 436.968 148.332 436.675C142.848 436.402 138.11 440.62 137.82 446.14C136.508 471.019 140.727 491.574 150.348 507.234C152.238 510.304 155.52 511.999 158.879 511.999C160.664 511.999 162.473 511.523 164.106 510.519C168.809 507.628 170.281 501.468 167.387 496.761C160.035 484.792 156.719 467.652 157.793 447.191Z" fill="#01212D"></path><path d="M90.426 445.746C85.1408 444.152 79.5588 447.14 77.9612 452.429C72.9573 469.007 71.4104 486.578 73.4924 503.238C74.1291 508.3 78.4338 511.999 83.4065 511.999C83.8205 511.999 84.2385 511.976 84.6565 511.921C90.1369 511.238 94.0276 506.238 93.3401 500.757C91.6018 486.847 92.9026 472.136 97.1096 458.21C98.7073 452.925 95.7151 447.343 90.426 445.746V445.746Z" fill="#01212D"></path><path d="M107.188 403.511C102.891 407.628 98.8713 412.242 95.2463 417.234C91.9963 421.703 92.9846 427.957 97.4533 431.203C99.2307 432.492 101.285 433.113 103.324 433.113C106.418 433.113 109.469 431.683 111.422 428.992C114.352 424.964 117.578 421.253 121.02 417.964C125.008 414.144 125.149 407.816 121.328 403.824C117.508 399.832 111.18 399.695 107.188 403.511V403.511Z" fill="#01212D"></path><path d="M38.6878 436.382C37.055 432.46 32.9925 429.925 28.7386 430.245C24.5862 430.554 20.9964 433.464 19.844 437.468C18.6917 441.476 20.2347 445.925 23.637 448.339C27.0081 450.738 31.5589 450.8 35.0081 448.527C38.9573 445.925 40.469 440.726 38.6878 436.382V436.382Z" fill="#01212D"></path><path d="M321.566 135.687C323.164 139.586 327.215 142.117 331.426 141.847C335.555 141.578 339.148 138.715 340.355 134.765C341.578 130.765 340.09 126.261 336.699 123.797C333.437 121.426 328.945 121.238 325.515 123.371C321.418 125.918 319.711 131.23 321.566 135.687Z" fill="#01212D"></path></svg>