<svg xmlns="http://www.w3.org/2000/svg" width="50" height="50" viewBox="0 0 50 50" fill="none"><path d="M47.3139 47.4397L45.1019 34.4902C44.8636 33.095 43.8738 31.9742 42.5186 31.5654L36.5526 29.7653C36.4291 28.3069 35.8311 26.9311 34.836 25.842C34.04 24.9709 33.0389 24.3366 31.9352 23.9866C32.1241 23.7771 32.2992 23.5682 32.4599 23.3639C33.8786 21.5595 34.6382 19.5716 34.8315 18.215H35.2918C36.4889 18.215 37.4628 17.2412 37.4628 16.044V14.9312C37.4628 14.1322 37.0134 13.4083 36.3375 13.0326V10.3564C36.3375 9.95205 36.0097 9.62422 35.6053 9.62422C35.2009 9.62422 34.8731 9.95195 34.8731 10.3564V13.3607C34.588 13.4103 34.2477 13.4958 33.8997 13.6424C33.8641 13.6554 33.8294 13.6704 33.7966 13.6885C33.718 13.7243 33.6392 13.7621 33.5608 13.8047V7.9041C33.5608 6.27393 32.2347 4.94775 30.6045 4.94775H28.5835C27.8864 4.94775 27.2055 5.19062 26.6658 5.63184L26.4675 5.79395C26.1032 6.0918 25.6435 6.25586 25.1728 6.25586C24.7022 6.25586 24.2424 6.0918 23.8781 5.79395L23.6799 5.63184C23.1402 5.19072 22.4593 4.94775 21.7622 4.94775H19.741C18.1108 4.94775 16.7847 6.27393 16.7847 7.9041V13.8047C16.7062 13.7621 16.6275 13.7243 16.5489 13.6885C16.5161 13.6704 16.4815 13.6554 16.4459 13.6424C16.0978 13.4958 15.7575 13.4103 15.4725 13.3607V5.76416C15.4725 3.39326 17.4014 1.46436 19.7723 1.46436H30.5731C32.9441 1.46436 34.8729 3.39326 34.8729 5.76416V6.91514C34.8729 7.31953 35.2008 7.64736 35.6051 7.64736C36.0094 7.64736 36.3373 7.31963 36.3373 6.91514V5.76416C36.3373 2.58584 33.7515 0 30.5731 0H19.7723C16.5938 0 14.0081 2.58584 14.0081 5.76416V13.0327C13.3322 13.4084 12.8828 14.1322 12.8828 14.9312V16.0441C12.8828 17.2413 13.8567 18.2151 15.0538 18.2151H15.5141C15.7073 19.5717 16.467 21.5596 17.8857 23.364C18.0462 23.5681 18.2212 23.7768 18.4099 23.9861C15.8727 24.792 14.0226 27.073 13.793 29.7653L7.82675 31.5654C6.47158 31.9742 5.48173 33.095 5.24345 34.4902L4.34521 39.7489C4.27714 40.1476 4.54511 40.5258 4.94365 40.5938C5.34209 40.6621 5.7205 40.394 5.78867 39.9954L6.68691 34.7367C6.83105 33.8926 7.42988 33.2146 8.2497 32.9674L13.7678 31.3024V32.7508C12.5029 32.9836 11.4267 33.8524 10.9834 35.0563C10.8657 35.3758 10.7926 35.7104 10.766 36.0506L10.2327 42.8958C10.1925 43.4114 10.3709 43.9249 10.722 44.3043C11.073 44.6838 11.571 44.9016 12.0881 44.9016H13.001C13.4054 44.9016 13.7332 44.5738 13.7332 44.1693C13.7332 43.7648 13.4054 43.4372 13.001 43.4372H12.0881C11.9778 43.4372 11.8718 43.3909 11.7969 43.3099C11.7221 43.229 11.6841 43.1196 11.6927 43.0098L12.226 36.1645C12.2421 35.9583 12.2863 35.7557 12.3576 35.5622C12.666 34.7248 13.4988 34.1577 14.4302 34.1512L14.5508 34.1503C14.5564 34.1502 14.562 34.1502 14.5676 34.1502C15.4727 34.1502 16.274 34.6635 16.612 35.4614C16.7068 35.6852 16.7644 35.9217 16.7834 36.1645L17.3169 43.0099C17.3254 43.1196 17.2874 43.229 17.2126 43.31C17.1378 43.3908 17.0316 43.4372 16.9214 43.4372H16.0085C15.6041 43.4372 15.2763 43.7649 15.2763 44.1693C15.2763 44.5737 15.6041 44.9016 16.0085 44.9016H16.9214C17.4385 44.9016 17.9365 44.6839 18.2875 44.3043C18.6387 43.9247 18.8171 43.4113 18.7769 42.8959L18.2434 36.0506C18.2121 35.65 18.1169 35.2595 17.9603 34.89C17.478 33.7517 16.4467 32.9602 15.232 32.746V30.8606L17.749 30.1012C17.978 30.5835 18.4318 31.6258 19.3308 33.8726C20.2367 36.1396 21.3628 39.0453 22.4428 41.8701C22.4505 41.8938 22.4594 41.917 22.4693 41.9396C23.19 43.8255 23.8892 45.6726 24.4871 47.2659C24.5943 47.5517 24.8675 47.7409 25.1727 47.7409C25.4778 47.7409 25.751 47.5517 25.8582 47.2659C26.456 45.6726 27.1552 43.8255 27.876 41.9396C27.886 41.917 27.8948 41.8937 27.9025 41.8701C28.9817 39.047 30.1072 36.1431 31.0128 33.8768C31.9129 31.6271 32.3671 30.5839 32.5962 30.1012L35.1132 30.8606V35.1854C33.3692 35.5241 32.0482 37.0622 32.0482 38.9038C32.0482 40.9928 33.7477 42.6924 35.8368 42.6924C37.9259 42.6924 39.6254 40.9929 39.6254 38.9038C39.6254 37.0683 38.3131 35.5339 36.5775 35.1885V31.3025L42.0957 32.9675C42.9155 33.2147 43.5143 33.8927 43.6585 34.7368L45.8704 47.6863C45.9071 47.9011 45.85 48.111 45.7095 48.2775C45.569 48.4439 45.3717 48.5357 45.1538 48.5357H5.1915C4.97363 48.5357 4.77636 48.444 4.63584 48.2775C4.49541 48.111 4.43818 47.9012 4.4749 47.6863L5.20488 43.4127C5.27294 43.0141 5.00498 42.6358 4.60644 42.5678C4.208 42.4994 3.82959 42.7677 3.76142 43.1662L3.03144 47.4398C2.92255 48.0777 3.09941 48.7272 3.5166 49.2219C3.93398 49.7164 4.54443 50 5.1915 50H45.1538C45.8009 50 46.4114 49.7164 46.8287 49.2218C47.2459 48.7271 47.4227 48.0776 47.3139 47.4397ZM34.8817 14.8524C35.2719 14.7552 35.585 14.7569 35.5886 14.757C35.7147 14.7587 35.8374 14.7292 35.9464 14.6721C35.979 14.7532 35.9982 14.8404 35.9982 14.9312V16.0441C35.9982 16.4338 35.6812 16.7508 35.2916 16.7508H34.8817V14.8524ZM15.4636 16.7508H15.0537C14.6641 16.7508 14.3471 16.4338 14.3471 16.0441V14.9312C14.3471 14.8404 14.3664 14.7532 14.3989 14.6722C14.5078 14.7293 14.6305 14.7588 14.7567 14.757C14.7623 14.758 15.0746 14.7563 15.4636 14.8528V16.7508ZM16.9279 17.5718V15.6481C17.1498 15.7146 17.3925 15.7056 17.6165 15.6121C18.0008 15.4518 18.249 15.0794 18.249 14.6633V7.9041C18.249 7.08145 18.9184 6.41211 19.741 6.41211H21.762C22.1222 6.41211 22.474 6.5376 22.7528 6.76553L22.9511 6.92764C23.5762 7.43877 24.3651 7.72012 25.1727 7.72012C25.9802 7.72012 26.7691 7.43867 27.3942 6.92764L27.5925 6.76553C27.8712 6.5376 28.2231 6.41211 28.5833 6.41211H30.6043C31.4269 6.41211 32.0963 7.08145 32.0963 7.9041V14.6634C32.0963 15.0794 32.3445 15.4519 32.7288 15.6122C32.8571 15.6657 32.9915 15.6917 33.1247 15.6917C33.224 15.6917 33.3225 15.6771 33.4174 15.6488V17.5718C33.4174 18.6408 32.6783 20.7168 31.3086 22.4588C30.8549 23.0358 30.2717 23.6558 29.5536 24.1976C29.5309 24.2128 29.5091 24.2293 29.4883 24.2469C28.3759 25.0693 26.9455 25.6994 25.1727 25.6994C23.3998 25.6994 21.9694 25.0693 20.8569 24.2468C20.8361 24.2293 20.8144 24.2128 20.7918 24.1977C20.0737 23.6558 19.4905 23.0358 19.0367 22.4588C17.6671 20.7169 16.9279 18.6408 16.9279 17.5718ZM29.9695 29.4014L25.1727 32.9867L20.3758 29.4014C20.8515 28.7968 21.118 28.0207 21.118 27.3281V26.1479C22.246 26.7545 23.592 27.1639 25.1727 27.1639C26.7533 27.1639 28.0994 26.7545 29.2273 26.1479V27.3281C29.2273 28.0207 29.4938 28.7968 29.9695 29.4014ZM19.1538 28.5841C18.7628 28.4352 18.3293 28.4107 17.9192 28.522C17.9013 28.5262 17.8837 28.531 17.8666 28.536L15.337 29.2993C15.7648 27.1956 17.473 25.5212 19.6536 25.1969V27.3281C19.6536 27.7875 19.4485 28.2624 19.1538 28.5841ZM21.141 34.4618C21.1396 34.4584 21.1383 34.455 21.137 34.4517C21.0999 34.3578 21.0633 34.2652 21.0269 34.1737C21.0204 34.1571 21.0139 34.1406 21.0073 34.1242C20.9718 34.0347 20.9365 33.9458 20.9018 33.8584C20.8993 33.8522 20.8969 33.8462 20.8944 33.8399C20.7859 33.5672 20.6813 33.3056 20.5808 33.0549C20.5734 33.0367 20.5661 33.0183 20.5588 33.0002C20.5299 32.9283 20.5015 32.8575 20.4732 32.7876C20.4629 32.7619 20.4526 32.7365 20.4424 32.7111C20.415 32.6434 20.3879 32.576 20.3611 32.5101C20.3531 32.4903 20.3453 32.4712 20.3374 32.4516C20.2889 32.3318 20.2414 32.2151 20.1951 32.1014C20.1826 32.0706 20.1698 32.0393 20.1574 32.0089C20.1393 31.9646 20.1216 31.9214 20.1038 31.8779C20.0847 31.8311 20.0655 31.7846 20.0468 31.7389C20.0397 31.7218 20.0324 31.7037 20.0254 31.6867C20.0197 31.673 20.0145 31.6604 20.009 31.6469C19.9244 31.4414 19.844 31.2478 19.7678 31.0656C19.7672 31.0642 19.7665 31.0627 19.7659 31.0612C19.7253 30.9643 19.6855 30.8695 19.6474 30.7793C19.6275 30.7325 19.608 30.6865 19.5889 30.6414L23.7143 33.7248L21.9905 34.4571C21.9875 34.4584 21.9844 34.4597 21.9813 34.461L21.2616 34.7668C21.2208 34.6636 21.1809 34.5624 21.141 34.4618ZM22.8881 38.945C22.7435 38.5697 22.5977 38.1923 22.4518 37.8152C22.2234 37.2255 22.0054 36.6647 21.7967 36.1306L22.0699 36.0145L23.1863 37.3122L22.8881 38.945ZM25.1868 44.896C25.1658 44.8524 25.1408 44.8113 25.1119 44.773C24.781 43.8985 24.3611 42.792 23.8964 41.5745L24.58 37.8318H25.7653L26.4489 41.5745C25.9619 42.85 25.5245 44.0033 25.1868 44.896ZM26.0399 36.3676H24.3054L23.4846 35.4135L25.1727 34.6964L26.8607 35.4135L26.0399 36.3676ZM27.8935 37.8152C27.7476 38.1923 27.6019 38.5697 27.4572 38.945L27.159 37.3121L28.2754 36.0144L28.5486 36.1305C28.3399 36.6646 28.1219 37.2255 27.8935 37.8152ZM30.698 30.7793C30.6618 30.8648 30.6241 30.9546 30.5857 31.0462C30.5808 31.0581 30.5757 31.0701 30.5707 31.0821C30.5327 31.173 30.494 31.2657 30.454 31.3623C30.4514 31.3687 30.4486 31.3754 30.446 31.3818C30.4114 31.4651 30.376 31.5511 30.3399 31.6387C30.3332 31.6551 30.3268 31.6702 30.3201 31.6867C30.3121 31.7063 30.3035 31.7271 30.2954 31.747C30.2794 31.786 30.2631 31.8259 30.2467 31.8657C30.2266 31.9148 30.2065 31.9638 30.1859 32.0141C30.1794 32.0301 30.1726 32.0468 30.166 32.0629C30.115 32.1878 30.0627 32.3165 30.0092 32.4487C30.0008 32.4694 29.9925 32.4897 29.9841 32.5107C29.9576 32.5761 29.9307 32.6428 29.9036 32.7099C29.8931 32.7361 29.8824 32.7623 29.8718 32.7889C29.8438 32.8581 29.8156 32.9282 29.7871 32.9993C29.7791 33.0191 29.771 33.0395 29.763 33.0594C29.6637 33.3066 29.5606 33.5646 29.4537 33.8333C29.4502 33.8422 29.4467 33.8509 29.4432 33.8599C29.4086 33.9467 29.3736 34.035 29.3383 34.1239C29.3317 34.1405 29.3251 34.1571 29.3184 34.1738C29.2819 34.2658 29.2451 34.3588 29.2078 34.4532C29.2071 34.455 29.2064 34.4567 29.2058 34.4584C29.1655 34.5602 29.1251 34.6625 29.0839 34.767L28.3635 34.4609C28.3609 34.4599 28.3584 34.4588 28.3559 34.4577L26.6311 33.725L30.7566 30.6416C30.7373 30.6865 30.7178 30.7324 30.698 30.7793ZM32.4787 28.5361C32.4786 28.5361 32.4784 28.536 32.4783 28.536C32.4777 28.5358 32.477 28.5357 32.4765 28.5354C32.0517 28.408 31.5985 28.4291 31.1916 28.5841C30.8968 28.2624 30.6918 27.7875 30.6918 27.3281V25.1958C32.886 25.5192 34.5891 27.1779 35.0113 29.3002L32.4787 28.5361ZM38.161 38.9038C38.161 40.1854 37.1184 41.228 35.8368 41.228C34.5553 41.228 33.5126 40.1854 33.5126 38.9038C33.5126 37.6222 34.5553 36.5796 35.8368 36.5796C37.1184 36.5796 38.161 37.6222 38.161 38.9038Z" fill="#E00031"></path></svg>