<svg xmlns="http://www.w3.org/2000/svg" width="34" height="48" viewBox="0 0 34 48" fill="none"><path d="M16.999 28.978C19.3863 28.978 21.72 28.2701 23.7049 26.9438C25.6899 25.6175 27.237 23.7324 28.1505 21.5268C29.0641 19.3213 29.3031 16.8943 28.8374 14.5529C28.3717 12.2115 27.2221 10.0608 25.534 8.37272C23.846 6.68466 21.6952 5.53507 19.3538 5.06934C17.0124 4.6036 14.5855 4.84263 12.3799 5.75621C10.1744 6.66978 8.28923 8.21686 6.96293 10.2018C5.63662 12.1868 4.92871 14.5204 4.92871 16.9077C4.93192 20.108 6.20464 23.1763 8.46756 25.4392C10.7305 27.7021 13.7988 28.9748 16.999 28.978ZM16.999 6.20811C19.1159 6.20811 21.1852 6.83584 22.9454 8.01191C24.7055 9.18799 26.0773 10.8596 26.8874 12.8153C27.6975 14.7711 27.9095 16.9231 27.4965 18.9993C27.0835 21.0755 26.0641 22.9826 24.5673 24.4795C23.0704 25.9763 21.1633 26.9957 19.0871 27.4087C17.0109 27.8217 14.8589 27.6097 12.9031 26.7996C10.9474 25.9895 9.27577 24.6177 8.0997 22.8576C6.92362 21.0975 6.2959 19.0281 6.2959 16.9112C6.29859 14.0734 7.4271 11.3526 9.43374 9.34595C11.4404 7.33931 14.1612 6.2108 16.999 6.20811Z" fill="#E00031"></path><path d="M12.933 18.7366L11.424 23.2636C11.379 23.3987 11.3774 23.5445 11.4193 23.6806C11.4612 23.8168 11.5446 23.9364 11.6578 24.0228C11.771 24.1093 11.9083 24.1582 12.0507 24.1628C12.193 24.1673 12.3333 24.1273 12.4518 24.0483L17.0002 21.0159L21.5487 24.0483C21.6672 24.1273 21.8074 24.1673 21.9498 24.1628C22.0921 24.1582 22.2295 24.1093 22.3427 24.0228C22.4559 23.9364 22.5392 23.8168 22.5812 23.6806C22.6231 23.5445 22.6214 23.3987 22.5764 23.2636L21.0674 18.7366L24.0537 15.7503C24.1495 15.6548 24.2147 15.533 24.2411 15.4004C24.2676 15.2677 24.2541 15.1302 24.2024 15.0053C24.1506 14.8804 24.063 14.7736 23.9505 14.6985C23.838 14.6234 23.7058 14.5834 23.5705 14.5835H19.1354L17.6487 10.123C17.6033 9.9869 17.5162 9.86857 17.3998 9.78472C17.2835 9.70088 17.1437 9.65576 17.0002 9.65576C16.8568 9.65576 16.717 9.70088 16.6006 9.78472C16.4842 9.86857 16.3972 9.9869 16.3518 10.123L14.8651 14.5835H10.4299C10.2947 14.5834 10.1624 14.6234 10.05 14.6985C9.93748 14.7736 9.84982 14.8804 9.79808 15.0053C9.74634 15.1302 9.73284 15.2677 9.7593 15.4004C9.78575 15.533 9.85097 15.6548 9.9467 15.7503L12.933 18.7366ZM15.3596 15.9507C15.5032 15.9506 15.6432 15.9052 15.7596 15.8211C15.876 15.737 15.9629 15.6183 16.008 15.4819L17.0002 12.5011L17.9944 15.4843C18.0395 15.6206 18.1264 15.7393 18.2428 15.8234C18.3592 15.9076 18.4992 15.9529 18.6428 15.953H21.9221L19.8037 18.071C19.714 18.1607 19.6511 18.2737 19.622 18.3972C19.5929 18.5207 19.5987 18.6499 19.6389 18.7702L20.6514 21.8081L17.3795 19.6249C17.2672 19.55 17.1352 19.51 17.0002 19.51C16.8652 19.51 16.7332 19.55 16.6209 19.6249L13.351 21.805L14.3635 18.7671C14.4037 18.6467 14.4095 18.5176 14.3804 18.3941C14.3513 18.2706 14.2883 18.1576 14.1987 18.0679L12.0803 15.9499L15.3596 15.9507Z" fill="#E00031"></path><path d="M33.6268 41.7882L27.2881 28.9093C27.7815 28.8118 28.2258 28.5462 28.5454 28.1579C28.865 27.7696 29.0401 27.2825 29.0409 26.7796V25.4905C29.0405 25.3315 29.0875 25.176 29.1759 25.0439C29.2642 24.9117 29.3899 24.8088 29.537 24.7483L30.7291 24.2538C30.9925 24.1446 31.2318 23.9846 31.4334 23.7829C31.6349 23.5813 31.7948 23.3419 31.9038 23.0784C32.0128 22.8149 32.0688 22.5326 32.0687 22.2475C32.0685 21.9623 32.0122 21.68 31.903 21.4167L31.4135 20.2288C31.3523 20.082 31.3361 19.9203 31.3671 19.7642C31.398 19.6082 31.4747 19.4649 31.5873 19.3526L32.4955 18.4448C32.9019 18.0372 33.1301 17.4851 33.1301 16.9095C33.1301 16.3338 32.9019 15.7817 32.4955 15.3741L31.583 14.462C31.4703 14.3497 31.3935 14.2065 31.3624 14.0505C31.3313 13.8945 31.3474 13.7327 31.4084 13.5858L31.9022 12.3932C32.0112 12.1298 32.0672 11.8474 32.0671 11.5622C32.067 11.2771 32.0107 10.9948 31.9014 10.7314C31.7922 10.468 31.6321 10.2287 31.4303 10.0272C31.2286 9.82567 30.9891 9.66587 30.7256 9.55691L29.5385 9.0659C29.3915 9.00534 29.2658 8.90245 29.1774 8.7703C29.089 8.63815 29.0419 8.4827 29.042 8.32371V7.03933C29.0414 6.46368 28.8125 5.91177 28.4055 5.50469C27.9985 5.0976 27.4466 4.86857 26.8709 4.86785H25.5788C25.4198 4.86812 25.2643 4.8211 25.1322 4.73275C25 4.64441 24.8971 4.51875 24.8366 4.37176L24.3432 3.17957C24.2339 2.91616 24.0737 2.67688 23.8718 2.47541C23.6699 2.27394 23.4303 2.11423 23.1667 2.00539C22.9031 1.89656 22.6206 1.84075 22.3354 1.84115C22.0502 1.84154 21.7679 1.89813 21.5045 2.00769L20.3198 2.49754C20.1728 2.55858 20.011 2.5746 19.8548 2.54359C19.6987 2.51257 19.5553 2.43591 19.4428 2.32332L18.5346 1.4159C18.1272 1.00933 17.5751 0.781006 16.9995 0.781006C16.4239 0.781006 15.8718 1.00933 15.4643 1.4159L14.5514 2.3284C14.4392 2.44107 14.296 2.5178 14.14 2.54883C13.9841 2.57985 13.8224 2.56377 13.6756 2.50262L12.4827 2.00769C11.9506 1.78773 11.3529 1.78806 10.821 2.00862C10.2891 2.22917 9.86663 2.6519 9.64633 3.18387L9.1557 4.37137C9.09523 4.51843 8.99236 4.64418 8.86019 4.73259C8.72802 4.82101 8.57253 4.86809 8.41352 4.86785H7.12914C6.55349 4.86857 6.00162 5.0976 5.59461 5.50469C5.1876 5.91177 4.95867 6.46368 4.95805 7.03933V8.3284C4.95832 8.48737 4.91129 8.64283 4.82295 8.77499C4.73461 8.90716 4.60895 9.01005 4.46196 9.07059L3.26977 9.56512C2.73817 9.78598 2.31607 10.2089 2.09631 10.741C1.87654 11.273 1.87711 11.8706 2.09789 12.4022L2.5893 13.5882C2.65048 13.735 2.66662 13.8967 2.63567 14.0527C2.60471 14.2087 2.52807 14.352 2.41547 14.4643L1.50727 15.3721C1.10078 15.7797 0.872505 16.3319 0.872505 16.9075C0.872505 17.4831 1.10078 18.0353 1.50727 18.4429L2.41977 19.3554C2.5325 19.4676 2.60929 19.6109 2.64038 19.7669C2.67147 19.9229 2.65546 20.0846 2.59438 20.2315L2.10063 21.4241C1.99162 21.6876 1.93558 21.97 1.93571 22.2551C1.93585 22.5403 1.99215 22.8226 2.10141 23.086C2.21066 23.3494 2.37074 23.5886 2.57248 23.7902C2.77422 23.9917 3.01368 24.1515 3.27719 24.2604L4.46039 24.753C4.6074 24.8136 4.73309 24.9165 4.82149 25.0486C4.90989 25.1808 4.95701 25.3362 4.95688 25.4952V26.7788C4.95764 27.2817 5.13272 27.7688 5.45231 28.1571C5.7719 28.5455 6.21623 28.811 6.70961 28.9085L0.37094 41.7874C0.31129 41.9087 0.288941 42.0449 0.30672 42.179C0.324499 42.313 0.381606 42.4387 0.470824 42.5402C0.560041 42.6418 0.677363 42.7146 0.807959 42.7495C0.938554 42.7844 1.07656 42.7797 1.20453 42.7362L7.29828 40.6628L9.37172 46.7565C9.41531 46.8846 9.49586 46.9968 9.60322 47.079C9.71057 47.1613 9.83989 47.2099 9.97484 47.2186H10.019C10.1466 47.2186 10.2717 47.1828 10.3801 47.1154C10.4885 47.0479 10.5758 46.9515 10.6323 46.837L16.9995 33.9038L23.3666 46.8382C23.4231 46.9527 23.5104 47.0491 23.6188 47.1165C23.7272 47.184 23.8523 47.2198 23.9799 47.2198H24.0241C24.159 47.211 24.2883 47.1624 24.3956 47.0801C24.503 46.9979 24.5836 46.8857 24.6272 46.7577L26.7006 40.6639L32.7944 42.7374C32.9223 42.7809 33.0604 42.7855 33.191 42.7507C33.3215 42.7158 33.4389 42.6429 33.5281 42.5414C33.6173 42.4398 33.6744 42.3141 33.6922 42.1801C33.71 42.0461 33.6876 41.9099 33.628 41.7886L33.6268 41.7882ZM6.32524 26.7796V25.496C6.32614 25.0662 6.19909 24.6459 5.96027 24.2886C5.72144 23.9313 5.38167 23.6532 4.98422 23.4897L3.79828 22.9991C3.70067 22.9588 3.61196 22.8996 3.53723 22.825C3.4625 22.7504 3.40321 22.6618 3.36276 22.5642C3.32231 22.4666 3.30148 22.3621 3.30148 22.2565C3.30148 22.1508 3.32229 22.0463 3.36274 21.9487L3.8561 20.7577C4.02106 20.3611 4.06435 19.9244 3.98046 19.5032C3.89658 19.082 3.6893 18.6952 3.385 18.3921L2.4725 17.4764C2.32187 17.3256 2.23726 17.1211 2.23726 16.9079C2.23726 16.6947 2.32187 16.4902 2.4725 16.3393L3.37992 15.4315C3.6842 15.1281 3.89127 14.741 3.97475 14.3195C4.05823 13.898 4.01434 13.4612 3.84867 13.0647L3.35883 11.8807C3.3183 11.7832 3.2974 11.6786 3.29732 11.573C3.29724 11.4674 3.31798 11.3628 3.35836 11.2652C3.39874 11.1676 3.45797 11.0789 3.53265 11.0043C3.60733 10.9296 3.696 10.8703 3.7936 10.83L4.98578 10.3358C5.38275 10.1719 5.72204 9.89374 5.96054 9.53658C6.19904 9.17942 6.32598 8.75943 6.32524 8.32996V7.0409C6.32555 6.82775 6.41033 6.62341 6.56101 6.47265C6.7117 6.3219 6.91599 6.23701 7.12914 6.2366H8.41313C8.84287 6.23745 9.26315 6.11038 9.62043 5.87156C9.97772 5.63275 10.2558 5.293 10.4194 4.89559L10.91 3.70965C10.9503 3.61196 11.0094 3.52316 11.0839 3.44832C11.1585 3.37348 11.2471 3.31407 11.3446 3.27348C11.4422 3.23289 11.5468 3.21191 11.6524 3.21175C11.7581 3.21159 11.8627 3.23224 11.9604 3.27254L13.153 3.76551C13.5493 3.93057 13.9857 3.97414 14.4068 3.89068C14.828 3.80722 15.2148 3.6005 15.5182 3.29676L16.4307 2.38387C16.584 2.23772 16.7877 2.15619 16.9995 2.15619C17.2113 2.15619 17.4149 2.23772 17.5682 2.38387L18.4756 3.29129C18.7788 3.59589 19.1658 3.80333 19.5873 3.88716C20.0088 3.97099 20.4458 3.92742 20.8424 3.76199L22.0284 3.27019C22.1259 3.22968 22.2305 3.20881 22.3361 3.20876C22.4417 3.20871 22.5462 3.22949 22.6438 3.26991C22.7414 3.31033 22.83 3.3696 22.9046 3.44431C22.9793 3.51903 23.0384 3.60774 23.0788 3.70535L23.5733 4.89715C23.737 5.29415 24.0151 5.63348 24.3722 5.87199C24.7293 6.11051 25.1493 6.23742 25.5788 6.2366H26.8698C27.0829 6.23701 27.2872 6.3219 27.4379 6.47265C27.5886 6.62341 27.6734 6.82775 27.6737 7.0409V8.32449C27.6733 8.75378 27.8006 9.17349 28.0394 9.53024C28.2782 9.887 28.6177 10.1647 29.0147 10.328L30.2026 10.8198C30.3002 10.8601 30.3889 10.9193 30.4636 10.9939C30.5384 11.0685 30.5977 11.1572 30.6381 11.2547C30.6786 11.3523 30.6994 11.4568 30.6994 11.5624C30.6994 11.6681 30.6786 11.7726 30.6381 11.8702L30.1428 13.0624C29.9779 13.459 29.9346 13.8957 30.0185 14.317C30.1024 14.7383 30.3096 15.1252 30.6139 15.4284L31.5264 16.3409C31.677 16.4918 31.7617 16.6963 31.7617 16.9095C31.7617 17.1227 31.677 17.3271 31.5264 17.478L30.619 18.3854C30.3147 18.6888 30.1076 19.0759 30.0242 19.4974C29.9407 19.9189 29.9846 20.3558 30.1502 20.7522L30.6416 21.9382C30.6821 22.0357 30.703 22.1403 30.703 22.2459C30.7031 22.3515 30.6823 22.456 30.642 22.5536C30.6016 22.6512 30.5424 22.7399 30.4677 22.8146C30.3931 22.8893 30.3044 22.9485 30.2069 22.9889L29.0147 23.4831C28.6177 23.647 28.2784 23.9252 28.0399 24.2823C27.8014 24.6395 27.6745 25.0595 27.6752 25.4889V26.778C27.6749 26.9911 27.5901 27.1954 27.4394 27.3461C27.2887 27.4968 27.0844 27.5816 26.8713 27.5819H25.5858C25.156 27.5811 24.7358 27.7082 24.3785 27.947C24.0212 28.1858 23.7431 28.5255 23.5795 28.9229L23.0889 30.1093C23.0487 30.207 22.9896 30.2958 22.9151 30.3707C22.8405 30.4455 22.7519 30.5049 22.6543 30.5455C22.5567 30.5861 22.4521 30.607 22.3465 30.6071C22.2408 30.6071 22.1362 30.5864 22.0385 30.546L20.8459 30.0546C20.4496 29.8894 20.0132 29.8458 19.592 29.9292C19.1709 30.0127 18.7841 30.2195 18.4807 30.5233L17.5682 31.4362C17.4149 31.5824 17.2113 31.6639 16.9995 31.6639C16.7877 31.6639 16.584 31.5824 16.4307 31.4362L15.5233 30.5284C15.2199 30.2242 14.8328 30.0171 14.4113 29.9337C13.9898 29.8502 13.553 29.894 13.1565 30.0597L11.9705 30.5514C11.873 30.5919 11.7685 30.6128 11.6629 30.6128C11.5574 30.6129 11.4528 30.5921 11.3553 30.5517C11.2577 30.5114 11.1691 30.4522 11.0944 30.3775C11.0198 30.3029 10.9605 30.2142 10.9202 30.1167L10.4256 28.9218C10.2619 28.5247 9.98382 28.1853 9.62672 27.9468C9.26962 27.7082 8.84963 27.5812 8.42016 27.5819H7.1311C6.91791 27.5821 6.71335 27.4978 6.56228 27.3474C6.41121 27.1969 6.32596 26.9928 6.32524 26.7796ZM10.135 44.7538L8.37328 39.5761C8.34441 39.491 8.29906 39.4125 8.23981 39.345C8.18057 39.2775 8.1086 39.2224 8.02802 39.1827C7.94744 39.143 7.85983 39.1197 7.77021 39.1139C7.68058 39.1081 7.5907 39.1201 7.5057 39.1491L2.32758 40.9112L8.21469 28.9507H8.42016C8.57911 28.9505 8.73452 28.9976 8.86666 29.0859C8.99881 29.1742 9.10172 29.2998 9.16235 29.4468L9.65571 30.6405C9.87673 31.172 10.2997 31.5939 10.8317 31.8137C11.3637 32.0334 11.9612 32.0329 12.4928 31.8124L13.6791 31.3214C13.8261 31.2602 13.988 31.2441 14.1441 31.2751C14.3003 31.3061 14.4437 31.3829 14.5561 31.4956L15.4635 32.403C15.6272 32.5621 15.8152 32.694 16.0205 32.7936L10.135 44.7538ZM26.4916 39.1491C26.4066 39.1201 26.3168 39.1081 26.2271 39.1139C26.1375 39.1197 26.0499 39.143 25.9693 39.1827C25.8888 39.2224 25.8168 39.2775 25.7575 39.345C25.6983 39.4125 25.6529 39.491 25.6241 39.5761L23.8623 44.7538L17.976 32.7948C18.1814 32.6952 18.3694 32.5633 18.5331 32.4042L19.4459 31.4917C19.5581 31.3789 19.7013 31.3021 19.8572 31.271C20.0132 31.2399 20.1749 31.2559 20.3217 31.3171L21.5143 31.8108C22.0465 32.0309 22.6443 32.0306 23.1763 31.8099C23.7082 31.5893 24.1308 31.1664 24.351 30.6343L24.8416 29.4487C24.9021 29.3016 25.0049 29.1757 25.1371 29.0873C25.2692 28.9988 25.4248 28.9516 25.5838 28.9518H25.7823L31.6694 40.9124L26.4916 39.1491Z" fill="#E00031"></path></svg>