<svg xmlns="http://www.w3.org/2000/svg" width="50" height="50" viewBox="0 0 50 50" fill="none"><path d="M5 41C5 42.1 5.9 43 7 43H44C45.1 43 46 42.1 46 41V7C46 5.9 45.1 5 44 5H7C5.9 5 5 5.9 5 7V41Z" stroke="#E00031" stroke-width="2" stroke-miterlimit="10" stroke-linecap="round" stroke-linejoin="round"></path><path d="M5 35H46" stroke="#E00031" stroke-width="2" stroke-miterlimit="10" stroke-linecap="round" stroke-linejoin="round"></path><path d="M12 22H21L24 28.25L27 12.25L29 22H39" stroke="#E00031" stroke-width="2" stroke-miterlimit="10" stroke-linecap="round" stroke-linejoin="round"></path><path d="M17 43H9V46H17V43Z" stroke="#E00031" stroke-width="2" stroke-miterlimit="10" stroke-linecap="round" stroke-linejoin="round"></path><path d="M42 43H34V46H42V43Z" stroke="#E00031" stroke-width="2" stroke-miterlimit="10" stroke-linecap="round" stroke-linejoin="round"></path><path d="M16 39H18" stroke="#E00031" stroke-width="2" stroke-miterlimit="10" stroke-linecap="round" stroke-linejoin="round"></path><path d="M22 39H24" stroke="#E00031" stroke-width="2" stroke-miterlimit="10" stroke-linecap="round" stroke-linejoin="round"></path><path d="M28 39H30" stroke="#E00031" stroke-width="2" stroke-miterlimit="10" stroke-linecap="round" stroke-linejoin="round"></path><path d="M34 39H36" stroke="#E00031" stroke-width="2" stroke-miterlimit="10" stroke-linecap="round" stroke-linejoin="round"></path></svg>