<svg xmlns="http://www.w3.org/2000/svg" width="511" height="511" viewBox="0 0 511 511" fill="none"><g clip-path="url(#clip0)"><path d="M478.611 382.162V249.835C489.96 245.738 498.1 234.857 498.1 222.108C498.1 207.032 486.712 194.572 472.092 192.849C459.192 183.941 397.753 143.96 317.266 131.504C316.026 115.274 302.428 102.444 285.886 102.444H280.432V62.9663H370.584C395.878 62.9663 416.455 42.3894 416.455 17.0951V10.9782C416.455 5.46551 411.987 0.997681 406.475 0.997681H134.425C128.916 0.997681 124.444 5.46551 124.444 10.9782V17.0951C124.444 42.3894 145.021 62.9663 170.315 62.9663H260.467V102.444H255.013C238.467 102.444 224.873 115.274 223.633 131.504C143.146 143.96 81.7074 183.941 68.8068 192.849C54.187 194.572 42.7991 207.032 42.7991 222.108C42.7991 234.857 50.9394 245.738 62.2883 249.835V338.712L43.5671 367.652L7.41516 377.27C4.14031 378.143 1.53603 380.611 0.487299 383.831C-0.557532 387.051 0.101335 390.583 2.23388 393.211L25.8284 422.244L23.805 459.601C23.6217 462.981 25.1656 466.225 27.9063 468.217C30.6432 470.205 34.2065 470.673 37.3644 469.453L72.2688 455.983L107.173 469.453C108.335 469.901 109.551 470.119 110.764 470.119C112.842 470.119 114.9 469.472 116.631 468.213C119.372 466.225 120.912 462.981 120.729 459.601L118.705 422.244L142.304 393.211C144.44 390.583 145.095 387.051 144.05 383.831C143.005 380.611 140.397 378.139 137.122 377.27L100.97 367.652L82.2493 338.716V249.835C93.6021 245.738 101.739 234.857 101.739 222.108C101.739 213.906 98.3662 206.479 92.9393 201.13C116.405 186.966 165.637 161.048 225.103 151.489C229.235 164.058 241.075 173.165 255.013 173.165H260.467V194.381C249.114 198.483 240.978 209.364 240.978 222.108C240.978 234.857 249.114 245.738 260.467 249.835V316.451C244.261 319.18 230.105 327.999 220.428 340.471C176.101 355.878 169.037 372.014 171.048 382.942C173.247 394.907 186.175 402.127 209.473 404.4C210.304 404.482 211.161 404.544 212.011 404.615C219.551 422.486 234.997 436.509 254.58 441.733C255.442 441.963 256.307 442.073 257.157 442.073C261.57 442.073 265.606 439.125 266.795 434.661C268.214 429.336 265.048 423.866 259.723 422.447C249.36 419.683 240.678 413.34 234.857 404.965C248.003 404.455 262.335 402.845 276.974 400.155C287.945 398.139 301.048 395.043 313.917 390.962C313.407 392.903 312.771 394.817 311.991 396.689C309.874 401.776 312.284 407.62 317.375 409.734C322.463 411.85 328.307 409.441 330.42 404.353C333.254 397.539 334.869 390.381 335.243 383.024C356.483 373.702 372.599 361.332 369.851 346.381C365.917 324.997 328.155 323.27 303.703 324.447C296.685 320.299 288.818 317.445 280.428 316.225V249.835C291.781 245.738 299.917 234.857 299.917 222.108C299.917 209.364 291.781 198.483 280.428 194.381V173.165H285.882C299.82 173.165 311.664 164.062 315.796 151.489C375.258 161.052 424.494 186.966 447.956 201.13C442.529 206.479 439.157 213.906 439.157 222.108C439.157 234.857 447.293 245.738 458.646 249.835V373.445C453.332 372.073 447.784 371.301 442.073 371.235C442.034 371.235 441.999 371.235 441.96 371.235C437.894 371.235 434.229 373.706 432.705 377.484C431.168 381.297 432.128 385.663 435.122 388.482C442.927 395.831 447.223 405.784 447.223 416.517C447.223 437.757 429.944 455.036 408.705 455.036C401.816 455.036 395.063 453.203 389.18 449.733C385.636 447.644 381.173 447.944 377.941 450.49C374.709 453.032 373.367 457.301 374.564 461.238C378.826 475.242 387.64 487.827 399.391 496.669C411.547 505.823 426.038 510.661 441.285 510.661C479.726 510.661 511.001 479.382 511.001 440.938C511.001 416.342 498.046 394.58 478.611 382.162V382.162ZM144.694 20.9586H396.206C394.334 33.4187 383.558 43.0054 370.584 43.0054H170.315C157.341 43.0054 146.565 33.4187 144.694 20.9586V20.9586ZM279.96 222.108C279.96 227.352 275.691 231.617 270.452 231.617C265.208 231.617 260.943 227.352 260.943 222.108C260.943 216.868 265.208 212.603 270.452 212.603C275.691 212.603 279.96 216.868 279.96 222.108V222.108ZM191.068 379.293C192.378 377.238 197.04 372.638 208.229 367.071C207.411 371.164 206.974 375.394 206.974 379.726C206.974 381.176 207.033 382.615 207.13 384.045C198.537 382.86 193.138 380.977 191.068 379.293ZM273.368 380.521C255.064 383.886 239.664 385.172 227.278 385.231C227.052 383.422 226.931 381.585 226.931 379.726C226.931 355.344 246.767 335.508 271.149 335.508C279.765 335.508 287.804 337.991 294.607 342.272C295.153 342.72 295.746 343.114 296.377 343.441C305.27 349.644 311.781 359.024 314.26 369.925C303.282 373.784 289.707 377.515 273.368 380.521V380.521ZM332.865 362.162C331.052 355.796 328.284 349.831 324.717 344.432C339.297 345.332 347.36 348.1 349.859 350.069C348.342 352.728 342.779 357.211 332.865 362.162ZM459.118 222.108C459.118 216.868 463.379 212.607 468.619 212.603H468.63C473.87 212.603 478.139 216.868 478.139 222.108C478.139 227.352 473.87 231.617 468.63 231.617C463.387 231.617 459.118 227.352 459.118 222.108V222.108ZM72.2688 231.617C67.029 231.617 62.7601 227.352 62.7601 222.108C62.7601 216.868 67.029 212.603 72.2688 212.603C77.5124 212.603 81.7775 216.868 81.7775 222.108C81.7775 227.352 77.5124 231.617 72.2688 231.617ZM92.1167 385.952L117.083 392.595L100.791 412.642C99.2278 414.568 98.4364 417.004 98.5689 419.476L99.9646 445.277L75.8633 435.975C74.7054 435.527 73.4891 435.305 72.2688 435.305C71.0524 435.305 69.8322 435.531 68.6782 435.975L44.573 445.277L45.9726 419.476C46.1051 417.004 45.3137 414.568 43.7504 412.642L27.4541 392.591L52.4209 385.952C54.8185 385.313 56.8887 383.808 58.2376 381.726L72.2688 360.034L86.3038 381.726C87.6489 383.808 89.719 385.313 92.1167 385.952ZM297.411 141.68C297.411 148.034 292.237 153.204 285.886 153.204H280.428V141.434C280.428 135.921 275.96 131.453 270.448 131.453C264.939 131.453 260.467 135.921 260.467 141.434V153.204H255.013C248.658 153.204 243.489 148.034 243.489 141.68V133.929C243.489 127.574 248.658 122.405 255.013 122.405H285.886C292.241 122.405 297.411 127.574 297.411 133.929V141.68ZM441.289 490.696C427.013 490.696 413.964 484.766 404.79 474.868C406.093 474.954 407.399 474.996 408.708 474.996C440.954 474.996 467.188 448.763 467.188 416.517C467.188 409.652 465.964 402.891 463.648 396.537C479.866 404.767 491.04 421.632 491.04 440.938C491.04 468.377 468.72 490.696 441.289 490.696Z" fill="#01212D"></path><path d="M305.231 424.081C303.625 420.159 299.539 417.628 295.309 417.932C291.169 418.233 287.567 421.168 286.424 425.153C285.278 429.153 286.814 433.589 290.21 436.003C293.57 438.389 298.12 438.459 301.559 436.186C305.477 433.597 307.032 428.404 305.231 424.081V424.081Z" fill="#01212D"></path></g><defs><clipPath id="clip0"><rect width="511" height="511" fill="white"></rect></clipPath></defs></svg>