<svg xmlns="http://www.w3.org/2000/svg" width="511" height="511" viewBox="0 0 511 511" fill="none"><g clip-path="url(#clip0)"><path d="M475.979 398.081C465.948 398.081 456.778 403.578 452.053 412.424L444.856 425.901C443.16 429.071 439.351 430.498 435.991 429.219L431.936 427.675C399.706 415.418 376.01 388.252 368.182 354.775L374.451 324.311C381.149 291.75 373.496 257.863 353.453 231.344L344.291 219.22C351.258 211.723 357.313 203.29 362.283 194.034C365.808 187.473 368.685 180.686 370.923 173.742C392.856 171.574 410.049 153.025 410.049 130.534C410.049 106.584 390.564 87.0991 366.615 87.0991C366.369 87.0991 366.12 87.1147 365.874 87.1186C356.174 65.6293 340.494 47.606 320.397 34.9628C322.923 27.4111 324.747 19.1889 325.227 10.5301C325.531 5.02521 321.317 0.319566 315.812 0.0154742C310.319 -0.288618 305.601 3.9258 305.297 9.43066C304.985 15.0369 303.929 20.4794 302.416 25.6216C297.632 23.6178 292.755 21.9413 287.812 20.5807C288.381 17.3059 288.783 13.9531 288.974 10.5301C289.274 5.02521 285.059 0.319566 279.558 0.0154742C274.065 -0.288618 269.344 3.9258 269.04 9.43066C268.9 11.9648 268.599 14.456 268.182 16.9082C262.174 16.3 256.116 16.1558 250.058 16.4677C250.307 14.5106 250.502 12.534 250.611 10.5301C250.915 5.02521 246.701 0.319566 241.196 0.0154742C235.703 -0.28472 230.985 3.9258 230.681 9.43066C230.494 12.8108 230.026 16.1207 229.364 19.3488C226.654 19.9686 223.956 20.6743 221.274 21.4813C215.278 23.2864 209.379 25.5749 203.746 28.2766C198.779 30.6626 196.681 36.6236 199.067 41.5943C201.449 46.5612 207.414 48.6586 212.381 46.2727C215.126 44.9549 217.952 43.7736 220.822 42.7054C213.808 56.1713 205.64 65.064 205.504 65.2122C201.742 69.2356 201.948 75.5396 205.964 79.3057C207.89 81.1147 210.342 82.0075 212.791 82.0075C215.453 82.0075 218.108 80.9509 220.073 78.8574C220.943 77.9295 236.518 61.0991 245.126 36.8965C250.81 36.2649 256.51 36.1206 262.171 36.4637C254.744 53.3604 244.022 65.0445 243.863 65.2161C240.104 69.2356 240.307 75.5397 244.323 79.3096C246.249 81.1147 248.705 82.0114 251.149 82.0114C253.812 82.0114 256.467 80.9509 258.432 78.8574C259.266 77.9685 273.632 62.4403 282.401 39.8048C286.572 40.9432 290.685 42.3545 294.72 44.0466C287.882 56.76 280.248 65.0718 280.116 65.2161C276.358 69.2356 276.564 75.5397 280.576 79.3096C282.506 81.1147 284.958 82.0114 287.402 82.0114C290.065 82.0114 292.72 80.9509 294.685 78.8574C295.34 78.1595 304.268 68.5182 312.322 53.5241C331.562 66.452 345.636 85.4617 352.404 107.953C353.293 110.9 354.038 113.871 354.65 116.853C354.716 117.181 354.79 117.504 354.853 117.832C354.97 118.425 355.075 119.017 355.18 119.606C355.387 120.787 355.582 121.968 355.745 123.157C355.757 123.255 355.769 123.352 355.784 123.446C356.381 127.898 356.681 132.409 356.681 136.962C356.681 145.255 355.675 153.473 353.687 161.391C353.66 161.504 353.644 161.617 353.621 161.73C351.613 169.59 348.634 177.259 344.697 184.592C339.024 195.146 331.664 204.424 322.977 212.167C322.751 212.331 322.533 212.506 322.322 212.693C322.315 212.697 322.307 212.705 322.299 212.709C322.299 212.709 322.299 212.713 322.295 212.713C315.445 218.709 307.87 223.699 299.796 227.598C299.765 227.613 299.734 227.629 299.707 227.645C298.779 228.093 297.835 228.506 296.896 228.923C296.311 229.181 295.734 229.446 295.145 229.691C294.475 229.972 293.8 230.233 293.13 230.502C292.248 230.849 291.363 231.192 290.471 231.52C289.952 231.707 289.426 231.886 288.9 232.069C287.862 232.428 286.818 232.771 285.765 233.099C285.048 233.321 284.33 233.543 283.609 233.75C283.274 233.843 282.939 233.945 282.603 234.038C281.406 234.366 280.198 234.666 278.985 234.951C278.747 235.009 278.506 235.068 278.264 235.122C276.892 235.434 275.516 235.719 274.132 235.972C274.116 235.976 274.1 235.976 274.089 235.98C268.171 237.06 262.128 237.613 256.034 237.613C242.354 237.613 228.943 234.826 216.564 229.547C216.479 229.512 216.393 229.473 216.307 229.434C215.048 228.896 213.8 228.327 212.561 227.734C212.362 227.637 212.163 227.535 211.964 227.438C210.802 226.873 209.648 226.288 208.506 225.676C208.475 225.66 208.444 225.645 208.408 225.625C207.001 224.869 205.621 224.081 204.26 223.266C203.535 222.83 202.822 222.366 202.104 221.91C201.543 221.555 200.974 221.204 200.42 220.838C199.336 220.12 198.268 219.376 197.212 218.615C197.071 218.514 196.931 218.42 196.794 218.319C194.373 216.557 192.026 214.682 189.757 212.697C189.668 212.615 189.57 212.545 189.473 212.467C175.492 200.19 165.165 184.241 159.668 165.98C157.917 160.167 156.713 154.245 156.034 148.292C156.011 148.093 155.991 147.898 155.972 147.699C155.839 146.46 155.73 145.22 155.641 143.98C155.629 143.769 155.606 143.559 155.594 143.352C155.512 142.077 155.465 140.803 155.43 139.528C155.418 139.06 155.414 138.588 155.411 138.116C155.403 137.391 155.407 136.666 155.414 135.941C155.422 135.048 155.442 134.159 155.473 133.274C155.496 132.58 155.531 131.89 155.57 131.2C155.613 130.448 155.664 129.695 155.722 128.947C155.793 128.066 155.875 127.189 155.968 126.311C156.023 125.781 156.085 125.247 156.147 124.717C156.284 123.614 156.436 122.51 156.607 121.411C156.654 121.115 156.701 120.818 156.748 120.522C156.966 119.208 157.204 117.902 157.473 116.6C157.492 116.503 157.512 116.405 157.531 116.308C159.083 108.939 161.461 101.711 164.67 94.7716C166.986 89.7657 164.802 83.8359 159.8 81.524C154.798 79.2122 148.865 81.3915 146.553 86.3934C146.444 86.6351 146.338 86.8808 146.225 87.1225C145.956 87.1186 145.683 87.103 145.411 87.103C121.465 87.103 101.988 106.588 101.988 130.538C101.988 153.056 119.216 171.625 141.188 173.754C146.685 190.951 155.777 206.389 167.781 219.239L158.631 231.348C138.588 257.867 130.935 291.754 137.633 324.315L143.894 354.748C141.247 366.073 136.756 376.802 130.479 386.662C127.52 391.309 128.884 397.48 133.535 400.439C138.186 403.402 144.354 402.034 147.317 397.383C148.713 395.188 150.038 392.958 151.29 390.693L166.494 464.611C166.502 464.642 166.498 464.669 166.502 464.697C166.514 464.79 166.526 464.884 166.518 464.973C166.506 465.083 166.479 465.192 166.444 465.293C166.44 465.305 166.44 465.32 166.432 465.332C166.424 465.355 166.409 465.375 166.397 465.398C166.303 465.597 166.171 465.776 165.984 465.905L156.732 472.4C154.487 473.979 152.607 475.956 151.149 478.201C150.771 478.778 150.409 479.375 150.085 479.991C149.508 481.11 149.029 482.279 148.658 483.484C148.541 483.862 148.436 484.236 148.338 484.619C83.1456 490.045 70.0541 490.985 68.2451 491.043H36.1048C32.1555 491.043 28.943 487.831 28.943 483.882V425.207C28.943 421.262 32.1555 418.05 36.1048 418.05C38.752 418.05 41.173 419.5 42.4206 421.835L49.6175 435.313C55.9332 447.133 70.1983 452.591 82.7987 448.014C87.9799 446.135 90.6544 440.408 88.7714 435.227C86.8922 430.049 81.1651 427.371 75.9839 429.258C72.6544 430.467 68.8923 429.028 67.2276 425.909L60.0268 412.432C55.3017 403.586 46.136 398.089 36.1048 398.089C21.1497 398.089 8.98209 410.256 8.98209 425.211V483.886C8.98209 498.833 21.1497 511.001 36.1048 511.001H68.3309C69.5394 511.001 72.0424 511.001 153.43 504.221C157.309 508.381 162.818 511.001 168.939 511.001H206.416C215.547 511.001 224.381 507.375 230.896 501.02H281.188C287.699 507.375 296.537 511.001 305.664 511.001H343.153C349.274 511.001 354.782 508.381 358.662 504.221C440.034 511.001 442.548 511.001 443.761 511.001H475.987C490.942 511.001 503.11 498.833 503.11 483.878V425.203C503.11 410.248 490.942 398.081 475.979 398.081V398.081ZM390.092 130.534C390.092 140.237 384.166 148.58 375.745 152.148C377.137 141.216 377.005 130.101 375.328 119.076C375.254 118.588 375.172 118.105 375.094 117.621C375.024 117.196 374.958 116.772 374.884 116.35C374.396 113.54 373.827 110.748 373.145 107.98C382.923 110.818 390.092 119.855 390.092 130.534ZM121.956 130.534C121.956 119.836 129.146 110.787 138.947 107.968C137.945 112.019 137.169 116.124 136.596 120.269C136.58 120.378 136.565 120.487 136.549 120.596C136.44 121.403 136.335 122.21 136.241 123.017C136.186 123.493 136.14 123.964 136.093 124.44C136.015 125.196 135.941 125.953 135.875 126.713C135.804 127.551 135.742 128.386 135.687 129.228C135.672 129.493 135.656 129.758 135.641 130.019C135.578 131.072 135.531 132.128 135.496 133.181C135.496 133.22 135.496 133.263 135.492 133.306C135.418 135.734 135.422 138.167 135.496 140.6C135.5 140.729 135.504 140.853 135.508 140.982C135.547 142.179 135.602 143.376 135.676 144.569C135.676 144.584 135.68 144.6 135.68 144.616C135.75 145.738 135.839 146.861 135.945 147.984C135.98 148.401 136.027 148.818 136.066 149.231C136.132 149.867 136.202 150.502 136.276 151.138C136.319 151.489 136.35 151.844 136.393 152.194C127.921 148.651 121.956 140.276 121.956 130.534ZM305.664 491.04C301.469 491.04 297.574 489.355 294.697 486.303C291.816 483.25 290.369 479.262 290.619 475.075L299.609 323.695C299.933 318.19 295.738 313.465 290.237 313.137C284.724 312.83 280.007 317.009 279.683 322.51L270.693 473.89C270.549 476.299 270.662 478.7 271.009 481.059H241.071C241.422 478.7 241.531 476.299 241.387 473.89L232.401 322.51C232.073 317.009 227.352 312.814 221.847 313.137C216.342 313.465 212.147 318.19 212.475 323.695L221.461 475.075C221.711 479.262 220.264 483.25 217.387 486.303C214.51 489.359 210.615 491.04 206.416 491.04H168.939C168.241 491.04 167.672 490.47 167.672 489.769C167.672 489.465 167.781 489.172 167.98 488.942C168.046 488.864 168.124 488.794 168.206 488.735L177.465 482.236C179.625 480.72 181.442 478.849 182.861 476.736C185.703 472.525 186.974 467.375 186.323 462.205C186.253 461.663 186.167 461.122 186.058 460.58L166.533 365.695L157.188 320.291C151.648 293.352 157.98 265.321 174.561 243.379L182.642 232.682C186.451 235.59 190.448 238.284 194.627 240.752C194.865 240.892 195.102 241.029 195.34 241.169C196.537 241.863 197.742 242.549 198.97 243.204C198.993 243.22 199.024 243.235 199.052 243.247C199.395 243.434 199.746 243.606 200.093 243.785C201.075 244.303 202.062 244.806 203.052 245.294C203.492 245.508 203.933 245.719 204.373 245.925C205.43 246.428 206.494 246.915 207.566 247.387C207.82 247.5 208.073 247.613 208.331 247.726C223.496 254.288 239.621 257.621 255.882 257.621C262.412 257.621 268.962 257.064 275.48 255.988C275.691 255.952 275.901 255.917 276.116 255.882C277.332 255.676 278.545 255.446 279.757 255.2C280.248 255.103 280.74 255.005 281.231 254.9C282.128 254.709 283.02 254.498 283.917 254.284C284.638 254.112 285.356 253.945 286.073 253.761C286.701 253.598 287.328 253.418 287.956 253.247C288.872 252.997 289.785 252.748 290.693 252.479C290.732 252.467 290.771 252.455 290.81 252.444C291.948 252.101 293.075 251.738 294.198 251.364C294.662 251.212 295.126 251.052 295.59 250.892C296.872 250.448 298.151 249.988 299.414 249.504C299.476 249.481 299.535 249.453 299.593 249.434C310.408 245.262 320.439 239.629 329.465 232.713L337.527 243.379C354.108 265.321 360.443 293.352 354.899 320.291L344.701 369.855L326.03 460.599C325.847 461.507 325.73 462.416 325.664 463.324C325.656 463.449 325.636 463.578 325.632 463.706C325.625 463.796 325.628 463.886 325.625 463.975C325.434 468.541 326.712 473.005 329.227 476.736C330.65 478.849 332.467 480.724 334.63 482.244L343.89 488.743C343.972 488.798 344.046 488.868 344.108 488.942C344.155 488.993 344.19 489.055 344.225 489.114C344.241 489.137 344.264 489.16 344.276 489.188C344.318 489.27 344.35 489.355 344.373 489.445C344.377 489.453 344.381 489.461 344.385 489.468C344.408 489.566 344.42 489.667 344.42 489.773C344.42 490.47 343.851 491.04 343.153 491.04H305.664ZM483.149 483.878C483.149 487.827 479.936 491.04 475.987 491.04H443.839C442.03 490.981 428.946 490.042 363.745 484.615C363.734 484.564 363.714 484.513 363.699 484.463C363.574 483.983 363.433 483.507 363.274 483.04C363.227 482.895 363.176 482.751 363.125 482.607C362.942 482.096 362.747 481.589 362.525 481.094C362.494 481.028 362.463 480.966 362.431 480.903C362.229 480.459 362.007 480.026 361.777 479.601C361.699 479.461 361.624 479.32 361.543 479.184C361.274 478.716 360.993 478.252 360.689 477.808C360.654 477.753 360.615 477.706 360.58 477.656C360.295 477.246 359.995 476.852 359.683 476.463C359.585 476.342 359.488 476.225 359.387 476.104C359.032 475.683 358.665 475.27 358.279 474.872C358.26 474.856 358.24 474.841 358.225 474.821C357.843 474.435 357.437 474.069 357.024 473.71C356.923 473.621 356.821 473.535 356.72 473.449C356.279 473.083 355.827 472.728 355.352 472.392L346.104 465.901C345.691 465.609 345.488 465.102 345.589 464.607L360.782 390.771C374.646 415.979 397.098 435.78 424.841 446.334L428.899 447.878C441.616 452.716 456.053 447.313 462.462 435.305L469.663 421.827C470.911 419.492 473.332 418.042 475.987 418.042C479.936 418.042 483.149 421.254 483.149 425.203V483.878Z" fill="#01212D"></path><path d="M171.43 67.9647C171.972 68.3234 172.549 68.6353 173.157 68.8848C173.758 69.1343 174.385 69.3215 175.025 69.454C175.664 69.5827 176.323 69.6528 176.97 69.6528C177.617 69.6528 178.276 69.5827 178.927 69.454C179.555 69.3215 180.182 69.1343 180.795 68.8848C181.391 68.6353 181.972 68.3234 182.51 67.9647C183.06 67.5944 183.566 67.185 184.038 66.7172C185.894 64.8614 186.95 62.2961 186.95 59.6607C186.95 57.0369 185.894 54.4599 184.038 52.6081C183.566 52.148 183.06 51.727 182.51 51.3683C181.972 51.0096 181.391 50.7016 180.795 50.4521C180.182 50.2026 179.555 50.0116 178.927 49.8829C177.641 49.6217 176.311 49.6217 175.025 49.8829C174.385 50.0116 173.758 50.2026 173.157 50.4521C172.549 50.7016 171.972 51.0096 171.43 51.3683C170.88 51.727 170.374 52.148 169.913 52.6081C169.453 53.0642 169.036 53.5827 168.678 54.1246C168.319 54.6626 168.007 55.2513 167.758 55.8517C167.508 56.4482 167.321 57.0759 167.188 57.7153C167.06 58.3624 166.99 59.0135 166.99 59.6607C166.99 62.2961 168.058 64.8614 169.913 66.7172C170.374 67.185 170.88 67.5944 171.43 67.9647Z" fill="#01212D"></path><path d="M105.188 425.667C105.547 426.217 105.968 426.724 106.428 427.184C106.884 427.644 107.407 428.061 107.945 428.432C108.495 428.79 109.072 429.098 109.672 429.348C110.268 429.597 110.9 429.788 111.535 429.917C112.187 430.038 112.834 430.108 113.493 430.108C114.144 430.108 114.791 430.038 115.438 429.917C116.077 429.788 116.709 429.597 117.305 429.348C117.906 429.098 118.483 428.79 119.033 428.432C119.571 428.061 120.089 427.644 120.549 427.184C121.009 426.724 121.418 426.217 121.789 425.667C122.148 425.129 122.456 424.548 122.705 423.948C122.955 423.34 123.146 422.712 123.274 422.085C123.403 421.433 123.473 420.786 123.473 420.127C123.473 419.48 123.403 418.818 123.274 418.182C123.146 417.543 122.955 416.911 122.705 416.315C122.456 415.706 122.148 415.126 121.789 414.587C121.426 414.038 121.009 413.531 120.549 413.071C118.225 410.755 114.779 409.687 111.535 410.346C110.9 410.478 110.268 410.665 109.672 410.915C109.072 411.165 108.495 411.476 107.945 411.835C107.407 412.194 106.884 412.611 106.428 413.071C105.968 413.531 105.547 414.038 105.188 414.587C104.83 415.126 104.522 415.706 104.272 416.315C104.023 416.915 103.832 417.543 103.703 418.182C103.574 418.821 103.512 419.48 103.512 420.127C103.512 420.786 103.574 421.433 103.703 422.085C103.832 422.712 104.023 423.34 104.272 423.948C104.522 424.548 104.83 425.129 105.188 425.667Z" fill="#01212D"></path><path d="M279.738 173.668C278.451 176.674 272.287 188.732 256.128 189.419C239.968 188.732 233.804 176.674 232.518 173.668C230.709 168.506 225.079 165.758 219.894 167.516C214.752 169.263 211.972 174.791 213.586 179.945L213.543 179.96C213.586 180.081 213.734 180.479 213.987 181.079C215.948 186.07 226.619 209.418 254.677 209.418C255.173 209.418 255.644 209.391 256.128 209.379C256.611 209.391 257.087 209.418 257.578 209.418C285.636 209.418 296.307 186.07 298.268 181.079C298.525 180.479 298.669 180.081 298.712 179.96L298.669 179.945C300.284 174.791 297.508 169.263 292.365 167.516C287.176 165.758 281.547 168.51 279.738 173.668V173.668Z" fill="#01212D"></path><path d="M300.369 136.541C304.299 136.541 307.96 134.078 309.527 130.491C311.165 126.748 310.225 122.269 307.321 119.419C304.163 116.319 299.114 115.735 295.301 117.961C291.687 120.074 289.785 124.421 290.588 128.514C291.488 133.099 295.703 136.541 300.369 136.541V136.541Z" fill="#01212D"></path><path d="M223.527 118C219.785 115.758 214.787 116.28 211.598 119.259C208.58 122.082 207.598 126.702 209.235 130.499C210.865 134.28 214.849 136.768 218.966 136.526C222.849 136.296 226.366 133.68 227.742 130.047C229.418 125.625 227.574 120.429 223.527 118Z" fill="#01212D"></path></g><defs><clipPath id="clip0"><rect width="511" height="511" fill="white"></rect></clipPath></defs></svg>