<svg xmlns="http://www.w3.org/2000/svg" width="512" height="512" viewBox="0 0 512 512" fill="none"><path d="M298.379 157.738C313.309 157.738 325.457 145.594 325.457 130.66C325.457 115.727 313.309 103.582 298.379 103.582C283.445 103.582 271.301 115.727 271.301 130.66C271.301 145.594 283.445 157.738 298.379 157.738ZM298.379 123.578C302.281 123.578 305.457 126.758 305.457 130.66C305.457 134.563 302.281 137.738 298.379 137.738C294.477 137.738 291.301 134.563 291.301 130.66C291.301 126.758 294.477 123.578 298.379 123.578Z" fill="#01212D"></path><path d="M90.3945 134.301C110.879 134.301 127.547 117.637 127.547 97.1523C127.547 76.6641 110.879 60 90.3945 60C69.9102 60 53.2422 76.6641 53.2422 97.1523C53.2422 117.637 69.9102 134.301 90.3945 134.301ZM90.3945 80C99.8516 80 107.547 87.6914 107.547 97.1484C107.547 106.605 99.8516 114.301 90.3945 114.301C80.9375 114.301 73.2422 106.605 73.2422 97.1484C73.2422 87.6914 80.9375 80 90.3945 80Z" fill="#01212D"></path><path d="M181.68 113.199C186.281 113.199 190.371 109.941 191.422 105.469C192.356 101.477 190.672 97.1445 187.238 94.8789C183.664 92.5156 178.828 92.6953 175.469 95.3672C172.246 97.9297 170.906 102.336 172.172 106.254C173.484 110.336 177.383 113.199 181.68 113.199Z" fill="#01212D"></path><path d="M470.875 190.742H455.453C455.512 189.691 455.551 188.641 455.551 187.59C455.551 156.566 430.309 131.328 399.281 131.328C368.258 131.328 343.02 156.566 343.02 187.59C343.02 197.492 345.582 207.012 350.367 215.402L314.145 228.973C309.332 219.625 301.281 212.266 291.27 208.426C284.551 205.84 277.262 204.941 270.195 205.828C263.188 206.699 256.141 202.813 252.656 196.145C242.391 176.461 224.223 161.84 202.809 156.027C193.715 153.562 184.18 152.719 174.797 153.562C158.379 155.031 142.582 161.566 129.723 172.66C125.641 176.176 120.164 177.523 114.695 176.363C114.609 176.348 114.523 176.328 114.434 176.312C114.355 176.297 114.277 176.277 114.195 176.262C90.1445 171.441 66.0039 185.285 58.043 208.477C53.6758 221.184 54.5898 234.762 60.6172 246.707C61.5352 248.527 62.5664 250.266 63.6797 251.938H41.125C18.4492 251.938 0 270.387 0 293.062V312.938C0 318.461 4.47656 322.938 10 322.938H26.0469C29.0234 356.109 46.6445 385.125 72.3906 403.441V430.359C72.3906 442.809 82.5195 452.938 94.9688 452.938H121.148C133.602 452.938 143.73 442.809 143.73 430.359V423.938H214.922V430.359C214.922 442.809 225.051 452.938 237.5 452.938H263.684C276.133 452.938 286.262 442.809 286.262 430.359V423.938H358.961V430.359C358.961 442.809 369.09 452.938 381.539 452.938H407.719C420.172 452.938 430.301 442.809 430.301 430.359V402.344C457.746 382.117 475.594 349.574 475.594 312.941V261.941H502C507.523 261.941 512 257.461 512 251.941V231.867C512 209.191 493.551 190.742 470.875 190.742ZM399.281 151.328C419.277 151.328 435.551 167.594 435.551 187.59C435.551 188.441 435.52 189.293 435.461 190.145C435.445 190.328 435.461 190.551 435.414 190.73C435.258 191.371 435.492 191.004 435.094 191.148C434.734 191.277 434.203 191.215 433.824 191.246C432.035 191.383 430.254 191.551 428.473 191.742C425.078 192.109 421.699 192.586 418.336 193.16C411.719 194.289 405.184 195.824 398.75 197.723C394.953 198.84 391.188 200.105 387.484 201.492L369.465 208.242C365.277 202.215 363.02 195.066 363.02 187.59C363.02 167.594 379.285 151.328 399.281 151.328V151.328ZM78.4727 237.699C74.8945 230.609 74.3594 222.543 76.957 214.977C81.6641 201.262 95.918 193.059 110.145 195.852C110.34 195.895 110.535 195.934 110.727 195.969C110.879 196 111.027 196.02 111.176 196.051C108.539 201.086 106.391 206.465 104.844 212.172C103.395 217.504 106.543 222.996 111.875 224.441C112.75 224.68 113.633 224.797 114.5 224.797C118.902 224.797 122.938 221.863 124.145 217.41C130.348 194.562 149.059 178.391 170.898 174.27C179.809 172.605 188.871 173.066 197.625 175.348C213.645 179.711 227.238 190.66 234.93 205.398C242.262 219.437 257.437 227.586 272.68 225.672C276.543 225.188 280.383 225.664 284.102 227.098C288.707 228.863 292.547 232.027 295.18 236.078L278.164 242.453C261.363 248.746 243.754 251.938 225.82 251.938H94.4023C87.4609 249.383 81.8398 244.371 78.4727 237.699V237.699ZM123.73 430.359C123.73 431.781 122.574 432.938 121.148 432.938H94.9688C93.5469 432.938 92.3906 431.781 92.3906 430.359V414.781C102.34 419.102 112.957 421.949 123.73 423.199V430.359ZM266.262 430.359C266.262 431.781 265.105 432.938 263.684 432.938H237.5C236.078 432.938 234.922 431.781 234.922 430.359V423.938H266.262V430.359ZM410.301 414.117V430.359C410.301 431.781 409.145 432.938 407.719 432.938H381.539C380.117 432.938 378.961 431.781 378.961 430.359V423.012C386.207 422.082 393.363 420.398 400.281 418.051C403.68 416.898 407.027 415.598 410.301 414.117V414.117ZM492 241.938H444.402C425.328 241.938 408.609 245.148 388.512 252.672L384.84 254.047L375.023 257.719C373.234 258.387 371.766 259.52 370.668 260.914C368.988 263.063 368.207 265.848 368.645 268.629C368.75 269.285 368.922 269.941 369.16 270.59C371.098 275.762 376.859 278.387 382.031 276.449L395.523 271.402C412.301 265.121 429.895 261.938 447.812 261.938H455.594V312.938C455.594 355.871 425.703 391.953 385.641 401.477C378.75 403.105 371.676 403.938 364.594 403.938H136.594C127.984 403.938 119.379 402.711 111.113 400.301C76.3906 390.156 50.1914 359.832 46.1406 322.938H227.191C247.508 322.938 267.461 319.324 286.492 312.203L293.121 309.723L310.836 303.094C314.715 301.641 317.16 298.039 317.324 294.145C317.383 292.848 317.184 291.516 316.699 290.223C316.527 289.773 316.32 289.348 316.098 288.938C313.898 284.902 309.187 282.859 304.715 284.078C304.418 284.16 304.121 284.254 303.828 284.363L288.852 289.969L279.48 293.473C272.617 296.043 265.617 298.086 258.516 299.609C248.25 301.816 237.777 302.938 227.188 302.938H20V293.062C20 281.414 29.4766 271.938 41.125 271.938H225.82C246.164 271.938 266.137 268.32 285.184 261.184L394.5 220.227C407.379 215.402 420.93 212.348 434.641 211.242C438.699 210.914 442.77 210.742 446.844 210.742H470.875C482.523 210.742 492 220.219 492 231.867V241.938Z" fill="#01212D"></path><path d="M457.102 117.398C461.926 117.398 466.18 113.785 466.969 109.027C467.649 104.957 465.633 100.754 462.051 98.7187C458.566 96.7383 454.149 97.0508 450.977 99.4961C447.649 102.062 446.27 106.637 447.637 110.609C449.016 114.609 452.852 117.398 457.102 117.398V117.398Z" fill="#01212D"></path><path d="M348.758 272.074C345.094 269.797 340.309 270.184 337.016 272.941C333.859 275.578 332.695 280.078 334.074 283.934C335.484 287.859 339.301 290.57 343.48 290.57C348.188 290.57 352.367 287.133 353.289 282.519C354.098 278.476 352.254 274.246 348.758 272.074Z" fill="#01212D"></path></svg>