<svg xmlns="http://www.w3.org/2000/svg" width="512" height="512" viewBox="0 0 512 512" fill="none"><g clip-path="url(#clip0)"><path d="M77.329 493.295C80.4817 504.312 90.5225 511.931 101.982 512H410.035C421.497 511.93 431.538 504.307 434.688 493.286C439.671 475.793 444.928 459.631 449.946 444.006C472.311 374.758 491.614 314.94 477.184 186.778C470.127 124.194 439.211 46.2336 426.249 15.6245C422.256 6.13672 412.956 -0.0244518 402.662 -1.91504e-05H109.338C99.0531 -0.0167195 89.7627 6.13879 85.7685 15.616C72.8064 46.2336 41.8901 124.194 34.833 186.778C20.4032 314.94 39.7056 374.758 62.0714 444.006C67.1232 459.631 72.3456 475.793 77.329 493.295V493.295ZM51.7973 188.689C58.624 128.324 88.8064 52.1984 101.487 22.2891C102.822 19.1359 105.913 17.0865 109.338 17.0837H402.662C406.087 17.0865 409.178 19.1359 410.513 22.2891C423.194 52.2155 453.402 128.341 460.203 188.689C474.231 313.199 455.441 371.388 433.681 438.758C428.561 454.528 423.322 470.827 418.261 488.602C417.264 492.335 413.883 494.933 410.018 494.933H260.267V399.224C285.178 392.496 306.373 376.102 319.147 353.681C320.519 350.956 320.332 347.705 318.658 345.154C316.983 342.604 314.075 341.14 311.029 341.314C307.983 341.489 305.261 343.276 303.889 346.001C292.631 365.412 273.682 379.149 251.733 383.812C229.831 379.134 210.926 365.42 199.68 346.052C197.573 341.834 192.446 340.123 188.228 342.229C184.01 344.336 182.299 349.463 184.405 353.681C197.159 376.084 218.32 392.475 243.2 399.224V494.933H101.982C98.1198 494.934 94.7389 492.34 93.7386 488.61C88.6784 470.827 83.4048 454.528 78.3189 438.758C56.5589 371.388 37.7685 313.173 51.7973 188.689V188.689Z" fill="#01212D"></path><path d="M146.355 253.611L142.234 259.797C139.618 263.718 140.676 269.017 144.597 271.633C148.518 274.249 153.817 273.19 156.433 269.269L161.28 261.973C171.769 267.09 182.728 271.18 194.005 274.185L192.444 278.886C191.48 281.783 192.135 284.973 194.162 287.255C196.188 289.538 199.279 290.566 202.268 289.952C205.258 289.338 207.694 287.176 208.657 284.279L210.773 277.956C221.487 279.868 232.323 281.008 243.2 281.37V290.133C243.2 294.846 247.02 298.667 251.733 298.667C256.446 298.667 260.267 294.846 260.267 290.133V281.361C271.143 281 281.98 279.859 292.693 277.948L294.81 284.271C295.773 287.167 298.208 289.329 301.198 289.943C304.188 290.557 307.278 289.529 309.305 287.247C311.331 284.964 311.986 281.774 311.023 278.878L309.461 274.176C320.738 271.174 331.697 267.087 342.187 261.973L347.034 269.252C348.726 271.789 351.642 273.23 354.685 273.033C357.728 272.836 360.434 271.03 361.785 268.297C363.135 265.563 362.925 262.317 361.233 259.78L357.111 253.594C361.1 251.081 364.894 248.271 368.461 245.188C371.929 241.995 372.153 236.595 368.96 233.126C365.767 229.658 360.367 229.434 356.898 232.627C353.959 235.078 350.851 237.319 347.597 239.334L344.183 234.214C341.568 230.293 336.269 229.235 332.348 231.851C328.427 234.466 327.368 239.765 329.984 243.686L332.544 247.586C323.359 251.881 313.806 255.34 304 257.92L302.464 253.321C301.501 250.424 299.065 248.262 296.075 247.648C293.085 247.034 289.995 248.062 287.969 250.345C285.942 252.627 285.287 255.817 286.251 258.714L287.215 261.606C278.3 263.086 269.298 263.984 260.267 264.294V256C260.267 251.287 256.446 247.467 251.733 247.467C247.02 247.467 243.2 251.287 243.2 256V264.294C234.148 263.981 225.126 263.078 216.192 261.589L217.156 258.697C218.12 255.8 217.465 252.61 215.438 250.328C213.412 248.045 210.321 247.017 207.331 247.631C204.342 248.245 201.906 250.407 200.943 253.303L199.407 257.903C189.601 255.323 180.048 251.864 170.863 247.569L173.423 243.669C175.115 241.133 175.325 237.886 173.975 235.153C172.624 232.419 169.917 230.614 166.875 230.417C163.832 230.22 160.915 231.661 159.223 234.197L155.81 239.317C152.568 237.308 149.471 235.072 146.543 232.627C143.079 229.427 137.677 229.641 134.477 233.105C131.277 236.569 131.491 241.971 134.955 245.171C138.537 248.268 142.348 251.089 146.355 253.611V253.611Z" fill="#01212D"></path><path d="M251.733 162.133C265.872 162.133 277.333 150.672 277.333 136.533C277.333 122.395 265.872 110.933 251.733 110.933C237.595 110.933 226.133 122.395 226.133 136.533C226.133 150.672 237.595 162.133 251.733 162.133ZM251.733 128C256.446 128 260.267 131.82 260.267 136.533C260.267 141.246 256.446 145.067 251.733 145.067C247.02 145.067 243.2 141.246 243.2 136.533C243.2 131.82 247.02 128 251.733 128Z" fill="#01212D"></path></g><defs><clipPath id="clip0"><rect width="512" height="512" fill="white"></rect></clipPath></defs></svg>