<svg xmlns="http://www.w3.org/2000/svg" width="511" height="511" viewBox="0 0 511 511" fill="none"><g clip-path="url(#clip0)"><path d="M438.733 194.894C429.115 194.894 419.789 197.83 411.766 203.377C394.347 215.424 370.308 228.766 339.875 238.185C338.853 228.539 334.054 219.732 326.35 213.596L299.754 192.442C295.239 188.847 292.65 183.483 292.65 177.654C292.65 170.504 296.604 164.075 302.974 160.874C333.189 145.669 351.957 116.948 351.957 85.9225C351.957 38.5421 308.943 0 256.077 0C231.324 0 207.827 8.4328 189.917 23.7428C185.726 27.3257 185.231 33.6259 188.813 37.817C192.396 42.0042 198.693 42.4993 202.884 38.9164C217.184 26.6941 236.077 19.9611 256.077 19.9611C297.937 19.9611 331.996 49.552 331.996 85.9225C331.996 109.361 317.434 131.252 294.003 143.042C280.857 149.65 272.689 162.909 272.689 177.713C272.689 189.6 278.026 200.66 287.329 208.06L313.917 229.214C317.863 232.356 320.128 237.046 320.128 242.083C320.128 242.423 320.253 243.054 320.128 243.362C319.953 243.787 318.14 243.935 317.629 244.044C315.426 244.532 313.216 244.992 311.001 245.421C306.592 246.267 302.163 247 297.719 247.647C288.915 248.925 280.046 249.764 271.161 250.212C253.13 251.124 234.997 250.423 217.098 248.021C212.326 247.382 207.566 246.617 202.833 245.736C200.318 245.269 197.812 244.766 195.312 244.22C194.681 244.083 194.049 243.943 193.422 243.803C193.157 243.74 192.326 243.678 192.17 243.479C192.01 243.276 192.17 242.352 192.17 242.083C192.17 237.042 194.431 232.348 198.365 229.218L224.954 208.064C236.463 198.921 241.769 184.262 238.79 169.79C236.416 158.379 228.634 148.344 217.971 142.944C198.439 133.065 185.059 116.363 181.266 97.1234C180.201 91.7159 174.95 88.1955 169.542 89.2637C164.135 90.328 160.614 95.5756 161.683 100.987C166.673 126.297 183.905 148.083 208.958 160.753C214.252 163.436 218.1 168.328 219.242 173.829C220.689 180.87 218.124 187.997 212.533 192.438L185.936 213.6C178.229 219.736 173.433 228.559 172.42 238.228C141.92 228.804 117.838 215.44 100.392 203.374C92.3684 197.826 83.0428 194.89 73.4209 194.89C47.2414 194.89 25.9431 216.169 25.9431 242.321C25.9431 256.501 32.1926 269.803 43.0894 278.813C62.0212 294.477 106.099 325.402 173.737 340.7V347.69H132.497C117.601 347.69 105.483 359.811 105.483 374.708V398.809C105.483 460.669 155.815 511.001 217.683 511.001H294.646C356.514 511.001 406.85 460.669 406.85 398.809V374.708C406.85 359.811 394.729 347.69 379.832 347.69H338.424V340.7C406.058 325.402 450.141 294.477 469.076 278.813C479.969 269.799 486.219 256.497 486.219 242.317C486.215 216.173 464.913 194.894 438.733 194.894V194.894ZM338.424 367.659H379.828C383.715 367.659 386.881 370.825 386.881 374.712V398.813C386.881 449.671 345.501 491.044 294.639 491.044H217.679C166.817 491.044 125.437 449.671 125.437 398.813V374.712C125.437 370.825 128.603 367.659 132.49 367.659H173.726V381.768H149.527C144.014 381.768 139.546 386.236 139.546 391.749V398.813C139.546 441.89 174.595 476.935 217.675 476.935H294.639C337.715 476.935 372.76 441.89 372.76 398.813V391.749C372.76 386.236 368.292 381.768 362.779 381.768H338.421V367.659H338.424ZM352.729 401.729C351.208 432.451 325.734 456.973 294.643 456.973H217.679C186.579 456.973 161.102 432.451 159.581 401.729H173.733V414.404C173.733 419.913 178.201 424.385 183.714 424.385H328.44C333.953 424.385 338.421 419.913 338.421 414.404V401.729H352.729ZM318.459 344.626V404.423H193.691V344.626C193.956 344.673 194.221 344.708 194.482 344.751C196.681 345.113 198.899 345.46 201.141 345.788C216.287 347.986 231.566 349.242 246.864 349.597C261.976 349.951 277.114 349.445 292.167 348.033C300.693 347.234 309.188 346.146 317.641 344.754C317.914 344.712 318.187 344.673 318.459 344.626ZM456.347 263.436C437.981 278.629 394.253 309.171 326.518 322.852C326.498 322.856 326.479 322.856 326.463 322.86C312.366 325.706 297.867 327.678 283.122 328.762C269.141 329.784 255.098 330.014 241.091 329.448C237.067 329.285 233.048 329.062 229.036 328.762C214.291 327.678 199.788 325.706 185.687 322.856C185.663 322.852 185.644 322.852 185.624 322.848C117.889 309.171 74.1734 278.629 55.8068 263.436C49.5104 258.232 45.9003 250.536 45.9003 242.325C45.9003 227.179 58.2434 214.855 73.417 214.855C78.9609 214.855 84.3606 216.563 89.0312 219.795C110.228 234.454 140.521 250.89 179.515 260.984C188.985 263.616 198.774 265.491 208.486 266.953C218.424 268.45 228.408 269.514 238.443 270.08C258.74 271.226 279.184 270.411 299.317 267.592C310.545 266.017 321.855 263.99 332.791 260.945C371.711 250.848 401.953 234.438 423.119 219.799C427.79 216.567 433.193 214.859 438.733 214.859C453.907 214.859 466.254 227.179 466.254 242.325C466.254 250.532 462.64 258.228 456.347 263.436V263.436Z" fill="#01212D"></path><path d="M165.843 64.5852C167.418 68.4293 171.398 70.9556 175.554 70.7373C179.722 70.5189 183.39 67.6612 184.607 63.6651C185.769 59.8444 184.478 55.5949 181.394 53.0568C178.053 50.3044 173.117 50.0549 169.515 52.4681C165.616 55.0802 164.034 60.246 165.843 64.5852Z" fill="#01212D"></path></g><defs><clipPath id="clip0"><rect width="511" height="511" fill="white"></rect></clipPath></defs></svg>