<svg xmlns="http://www.w3.org/2000/svg" width="512" height="512" viewBox="0 0 512 512" fill="none"><g clip-path="url(#clip0)"><path d="M505.455 107.435L459.861 56.6187C450.417 46.0973 434.231 45.2244 423.71 54.6689C413.189 64.1134 412.316 80.2989 421.76 90.8203L427.452 97.1691L402.048 119.962L384.981 100.907C376.701 91.5538 362.869 89.5656 352.29 96.2074C341.71 102.849 337.49 116.171 342.315 127.693L321.613 146.27C317.424 144.94 312.958 144.743 308.668 145.698L274.961 153.216C273.92 144.179 273.417 135.817 273.254 127.915C276.47 126.168 279.543 124.171 282.445 121.941C287.85 117.8 290.244 110.822 288.521 104.235C287.667 100.975 286.148 95.1809 284.433 87.7227L318.566 83.9169C325.695 83.1232 332.164 79.3753 336.398 73.5856C340.632 67.7958 342.243 60.4953 340.838 53.4614L339.379 46.1483C338.031 39.396 334.019 33.4715 328.25 29.7126C322.481 25.9537 315.441 24.6774 308.719 26.1718L274.97 33.6726C274.287 27.5115 273.784 21.5809 273.468 15.9574C273.149 10.2797 269.988 5.14564 265.062 2.30406C260.017 -0.612283 253.84 -0.779249 248.644 1.86033C224.127 12.7313 197.472 17.9292 170.667 17.0667C143.861 17.9292 117.207 12.7313 92.6891 1.86033C87.495 -0.778823 81.3173 -0.605345 76.2795 2.32113C71.3537 5.16271 68.1931 10.2967 67.8742 15.9745C67.5584 21.5979 67.0208 27.5286 66.3723 33.6897L32.623 26.2145C25.9014 24.7201 18.8612 25.9964 13.092 29.7553C7.32286 33.5142 3.31115 39.4386 1.96271 46.191L0.503509 53.5041C-0.900964 60.538 0.709905 67.8385 4.94395 73.6282C9.17799 79.418 15.6468 83.1659 22.7755 83.9595L56.9088 87.7654C55.2022 95.2577 53.6918 101.035 52.8214 104.277C51.08 110.874 53.4685 117.872 58.88 122.027C61.7863 124.254 64.8619 126.251 68.079 128C67.8998 135.936 67.3878 144.307 66.3723 153.31L32.6998 145.792C25.9695 144.28 18.9137 145.547 13.1308 149.308C7.34781 153.068 3.3272 159.003 1.97978 165.769L0.537643 173.09C-0.869512 180.127 0.7412 187.431 4.97734 193.223C9.21348 199.015 15.6861 202.763 22.8182 203.554L56.9515 207.3C55.3046 214.443 53.8283 220.177 52.8726 223.872C51.1757 230.487 53.5982 237.476 59.0251 241.621C61.938 243.799 65.0037 245.764 68.1984 247.501C68.2861 258.792 67.6734 270.078 66.3638 281.293L32.7254 273.792C25.9951 272.28 18.9393 273.547 13.1564 277.308C7.37341 281.068 3.3528 287.003 2.00538 293.769L0.563242 301.09C-0.843912 308.127 0.766799 315.431 5.00294 321.223C9.23908 327.015 15.7117 330.763 22.8438 331.554L56.9771 335.3C55.3302 342.443 53.8539 348.177 52.8982 351.872C51.2098 358.413 53.5587 365.332 58.88 369.493C61.7866 371.704 64.8656 373.679 68.0875 375.398C67.9083 383.343 67.3963 391.723 66.3808 400.725L32.7083 393.208C25.9781 391.695 18.9222 392.963 13.1393 396.723C7.35634 400.484 3.33573 406.419 1.98831 413.184L0.546176 420.506C-0.860978 427.542 0.749733 434.846 4.98587 440.638C9.22201 446.43 15.6946 450.179 22.8267 450.97L56.96 454.716C55.3131 461.858 53.8368 467.593 52.8811 471.288C51.1923 477.86 53.5739 484.807 58.9398 488.96C79.2064 504.678 114.705 512 170.667 512C226.628 512 262.127 504.678 282.453 488.96C287.821 484.819 290.21 477.881 288.529 471.313C287.573 467.593 286.089 461.85 284.442 454.699L318.575 450.953C325.702 450.159 332.169 446.412 336.403 440.624C340.637 434.836 342.249 427.538 340.847 420.506L339.396 413.15C338.047 406.386 334.025 400.453 328.243 396.694C322.46 392.936 315.405 391.669 308.676 393.182L274.97 400.7C273.929 391.654 273.425 383.283 273.263 375.39C276.477 373.67 279.55 371.699 282.453 369.493C287.821 365.352 290.21 358.414 288.529 351.846C287.573 348.126 286.089 342.383 284.442 335.232L318.575 331.486C325.702 330.692 332.169 326.945 336.403 321.158C340.637 315.37 342.249 308.072 340.847 301.039L339.371 293.564C339.209 292.838 338.918 292.173 338.705 291.465L351.07 280.371L422.093 216.661C425.415 218.509 429.11 219.585 432.905 219.81H434.321C444.406 219.786 453.537 213.845 457.643 204.634C461.749 195.423 460.065 184.66 453.342 177.144L436.275 158.089L461.653 135.279L467.354 141.628C473.462 148.435 482.738 151.467 491.687 149.582C500.637 147.696 507.9 141.179 510.742 132.485C513.584 123.792 511.572 114.242 505.464 107.435H505.455ZM409.532 204.971L396.8 216.363L385.4 203.657C383.428 201.169 380.238 199.981 377.119 200.573C374.001 201.166 371.469 203.44 370.546 206.478C369.624 209.515 370.464 212.814 372.728 215.04L384.12 227.746L371.413 239.147L360.013 226.441C357.973 224.171 354.878 223.162 351.892 223.793C348.907 224.425 346.485 226.601 345.539 229.502C344.593 232.403 345.267 235.588 347.307 237.858L358.707 250.556L346.01 261.973L334.609 249.267C332.587 246.944 329.47 245.89 326.453 246.511C323.436 247.131 320.987 249.33 320.046 252.263C319.106 255.196 319.818 258.408 321.912 260.668L333.304 273.365L326.955 279.066C315.63 289.387 299.64 292.843 285.064 288.12C270.487 283.397 259.562 271.221 256.442 256.22C253.322 241.218 258.485 225.696 269.969 215.552L352.538 141.466L381.039 173.227L409.532 204.971ZM241.297 298.581C239.784 296.896 239.003 294.678 239.126 292.416C239.249 290.155 240.267 288.035 241.954 286.524L248.781 280.371C250.347 282.769 252.084 285.05 253.978 287.198C255.902 289.308 257.972 291.282 260.173 293.103L253.346 299.247C249.835 302.39 244.441 302.092 241.297 298.581ZM24.6614 67.0038C22.2845 66.7394 20.1277 65.4896 18.7163 63.5591C17.3049 61.6285 16.7683 59.1942 17.2374 56.8491L18.6966 49.4934C19.5064 45.526 22.993 42.674 27.0422 42.6667C27.6735 42.6673 28.3029 42.736 28.9195 42.8715L71.8336 52.4118C74.1634 52.9274 76.6027 52.4439 78.5597 51.0787C80.5167 49.7135 81.8127 47.5912 82.1334 45.2267C83.4902 35.2939 84.4288 25.7793 85.0262 17.1094C90.191 19.6133 95.5127 21.7796 100.958 23.5947C100.121 40.7972 97.8372 57.8986 94.1312 74.7179C93.5785 76.9132 93.9208 79.2382 95.0827 81.1811C96.2446 83.124 98.1309 84.5256 100.326 85.0774C101.005 85.2446 101.701 85.3306 102.4 85.3334C106.308 85.3304 109.715 82.6725 110.669 78.8822C114.41 62.2538 116.782 45.3467 117.76 28.3307C135.114 32.2929 152.867 34.24 170.667 34.1334C200.194 35.0996 229.544 29.2173 256.418 16.9473C256.905 25.7793 257.843 35.2939 259.2 45.2267C259.521 47.5912 260.817 49.7135 262.774 51.0787C264.731 52.4439 267.17 52.9274 269.5 52.4118L312.414 42.8715C314.657 42.3673 317.009 42.7894 318.936 44.0424C320.864 45.2953 322.204 47.273 322.654 49.5275L324.113 56.8491C324.582 59.1942 324.046 61.6285 322.634 63.5591C321.223 65.4896 319.066 66.7394 316.689 67.0038L273.067 71.8507C270.675 72.1167 268.506 73.3805 267.096 75.3305C265.685 77.2806 265.164 79.7357 265.66 82.0907C268.271 94.3617 270.78 104.004 271.94 108.493C255.07 121.626 221.944 128 170.667 128C119.39 128 86.2635 121.626 69.3334 108.681C70.5707 104.056 73.0368 94.4385 75.6566 82.1078C76.1581 79.7529 75.6414 77.2957 74.234 75.3421C72.8265 73.3886 70.6593 72.1206 68.2667 71.8507L24.6614 67.0038ZM24.6614 186.47C22.2824 186.204 20.1247 184.951 18.7145 183.017C17.3043 181.083 16.7715 178.645 17.2459 176.299L18.688 168.977C19.1357 166.705 20.4879 164.712 22.4342 163.456C24.3592 162.206 26.7108 161.797 28.9451 162.321L71.7824 171.878C74.1044 172.397 76.5375 171.923 78.4947 170.57C80.4519 169.217 81.7554 167.109 82.0907 164.753C83.5755 154.266 84.5227 144.324 84.992 134.972C90.2955 136.732 95.6944 138.191 101.163 139.341C100.37 157.777 98.0149 176.113 94.1227 194.15C93.57 196.346 93.9122 198.671 95.0741 200.614C96.236 202.557 98.1224 203.958 100.318 204.51C100.998 204.689 101.697 204.787 102.4 204.8C106.308 204.797 109.715 202.139 110.669 198.349C114.717 179.852 117.195 161.046 118.076 142.131C135.526 144.225 153.092 145.205 170.667 145.067C199.574 146.099 228.468 142.706 256.35 135.006C256.811 144.313 257.775 154.237 259.243 164.779C259.576 167.136 260.879 169.246 262.836 170.601C264.793 171.956 267.228 172.431 269.551 171.913L300.809 164.941L258.56 202.837C247.416 212.844 240.461 226.69 239.087 241.604C216.556 246 193.618 247.965 170.667 247.467C128.529 247.467 98.9867 243.2 80.2134 234.522C76.3882 232.742 72.7494 230.587 69.3504 228.088C70.6816 222.968 73.1392 213.393 75.6651 201.549C76.1694 199.191 75.6529 196.731 74.2433 194.775C72.8338 192.819 70.6627 191.551 68.2667 191.283L24.6614 186.47ZM312.422 409.813C314.647 409.302 316.984 409.715 318.899 410.957C320.838 412.21 322.187 414.196 322.637 416.461L324.088 423.825C324.554 426.166 324.018 428.596 322.611 430.524C321.203 432.452 319.053 433.702 316.681 433.971L273.075 438.75C270.682 439.014 268.511 440.277 267.099 442.227C265.686 444.177 265.164 446.634 265.66 448.99C268.22 460.834 270.643 470.392 271.932 475.443C255.053 488.568 221.926 494.933 170.667 494.933C119.407 494.933 86.2806 488.568 69.359 475.554C70.6902 470.434 73.1478 460.86 75.6736 449.016C76.1779 446.657 75.6603 444.195 74.2489 442.239C72.8376 440.282 70.6642 439.015 68.2667 438.75L24.6699 433.971C22.291 433.705 20.1332 432.452 18.723 430.518C17.3129 428.584 16.78 426.146 17.2544 423.8L18.6966 416.478C19.1443 414.205 20.4965 412.213 22.4427 410.957C24.3663 409.703 26.7195 409.293 28.9536 409.822L71.791 419.379C74.113 419.898 76.5461 419.424 78.5032 418.071C80.4604 416.718 81.7639 414.609 82.0992 412.254C83.584 401.809 84.5227 391.919 84.992 382.601C90.4482 384.398 96.0043 385.877 101.632 387.029C101.047 408.262 98.5369 429.397 94.1312 450.176C93.5757 452.371 93.9155 454.698 95.0759 456.642C96.2363 458.587 98.1221 459.991 100.318 460.544C100.999 460.711 101.698 460.797 102.4 460.8C106.306 460.798 109.712 458.144 110.669 454.357C115.242 433.089 117.887 411.452 118.571 389.709C135.861 391.725 153.26 392.668 170.667 392.533C199.571 393.623 228.471 390.27 256.358 382.592C256.819 391.865 257.781 401.749 259.243 412.245C259.576 414.602 260.879 416.713 262.836 418.068C264.793 419.422 267.228 419.898 269.551 419.379L312.422 409.813ZM322.662 311.074C321.248 313.01 319.075 314.252 316.689 314.488L273.084 319.266C270.69 319.53 268.52 320.793 267.107 322.743C265.695 324.694 265.172 327.15 265.668 329.506C268.228 341.35 270.652 350.908 271.898 355.96C268.501 358.548 264.826 360.749 260.941 362.522C242.347 371.26 212.813 375.467 170.667 375.467C128.521 375.467 98.9867 371.26 80.4523 362.667C76.5435 360.864 72.8269 358.671 69.359 356.122C70.6902 351.002 73.1478 341.427 75.6736 329.583C76.1889 327.219 75.6765 324.748 74.264 322.784C72.8515 320.819 70.6716 319.547 68.2667 319.283L24.6699 314.505C22.291 314.238 20.1332 312.985 18.723 311.051C17.3129 309.117 16.78 306.679 17.2544 304.333L18.6966 297.011C19.1443 294.739 20.4965 292.746 22.4427 291.49C24.3696 290.245 26.7192 289.836 28.9536 290.355L71.791 299.913C74.1207 300.434 76.5621 299.955 78.5226 298.593C80.4831 297.231 81.7834 295.11 82.1078 292.745C83.8901 280.11 84.9358 267.382 85.2395 254.626C90.6189 256.368 96.0916 257.807 101.632 258.936C101.043 280.202 98.5321 301.371 94.1312 322.185C93.5785 324.38 93.9208 326.705 95.0827 328.648C96.2446 330.591 98.1309 331.992 100.326 332.544C101.005 332.711 101.701 332.797 102.4 332.8C106.308 332.797 109.715 330.139 110.669 326.349C115.251 305.058 117.91 283.399 118.613 261.632C135.887 263.686 153.272 264.655 170.667 264.533C193.892 264.959 217.101 263.061 239.949 258.867C240.302 260.671 240.737 262.454 241.254 264.218L230.554 273.826C222.539 281.079 219.944 292.584 224.068 302.575L178.432 343.535C176.109 345.557 175.055 348.674 175.676 351.691C176.296 354.708 178.495 357.157 181.427 358.098C184.36 359.038 187.573 358.326 189.833 356.233L235.494 315.273C244.947 320.558 256.719 319.223 264.747 311.953L275.422 302.379C281.717 305.025 288.419 306.572 295.236 306.953C296.337 307.012 297.438 307.038 298.539 307.038C307.171 307.036 315.698 305.149 323.524 301.508L324.088 304.376C324.568 306.716 324.035 309.15 322.62 311.074H322.662ZM442.846 194.68C442.661 198.127 440.416 201.123 437.16 202.27C433.904 203.417 430.277 202.489 427.972 199.919L359.544 123.733C356.471 120.217 356.796 114.883 360.273 111.765C363.75 108.647 369.088 108.904 372.25 112.341L406.443 150.451L417.835 163.149L440.636 188.561C442.136 190.235 442.915 192.434 442.803 194.68H442.846ZM424.926 145.365L417.818 137.438L413.551 132.668L438.955 109.867L445.065 116.693L450.347 122.59L424.926 145.365ZM492.177 130.859C488.668 134.004 483.274 133.71 480.128 130.202L468.651 117.53L457.25 104.832L434.458 79.4198C432.209 76.9149 431.643 73.3221 433.013 70.2473C434.383 67.1725 437.432 65.1901 440.798 65.1862H441.267C443.531 65.295 445.656 66.3098 447.164 68.0022L492.749 118.81C494.267 120.496 495.052 122.718 494.928 124.983C494.805 127.249 493.784 129.373 492.092 130.884L492.177 130.859Z" fill="#01212D"></path></g><defs><clipPath id="clip0"><rect width="512" height="512" fill="white"></rect></clipPath></defs></svg>