<svg xmlns="http://www.w3.org/2000/svg" width="512" height="512" viewBox="0 0 512 512" fill="none"><g clip-path="url(#clip0)"><path d="M110.933 0H76.8C53.2475 0.0282122 34.1615 19.1142 34.1333 42.6667V469.333C34.1615 492.886 53.2475 511.972 76.8 512H452.267C466.405 512 477.867 500.539 477.867 486.4V25.6C477.867 11.4615 466.405 0 452.267 0H110.933ZM76.8 17.0667H102.4V85.3333H76.8C67.5373 85.3647 58.542 88.4411 51.2 94.0885V42.6667C51.2 28.5282 62.6615 17.0667 76.8 17.0667ZM76.8 102.4H102.4V119.467H76.8C67.5373 119.498 58.542 122.574 51.2 128.222V128C51.2 113.862 62.6615 102.4 76.8 102.4ZM76.8 136.533H102.4V290.133H76.8C67.5373 290.165 58.542 293.241 51.2 298.889V162.133C51.2 147.995 62.6615 136.533 76.8 136.533V136.533ZM76.8 307.2H102.4V324.267H76.8C67.5373 324.298 58.542 327.374 51.2 333.022V332.8C51.2 318.662 62.6615 307.2 76.8 307.2ZM76.8 341.333H102.4V426.667H76.8C67.5373 426.698 58.542 429.774 51.2 435.422V366.933C51.2 360.144 53.8971 353.632 58.698 348.831C63.499 344.03 70.0104 341.333 76.8 341.333ZM426.667 494.933H76.8C62.6615 494.933 51.2 483.472 51.2 469.333C51.2 455.195 62.6615 443.733 76.8 443.733H426.667V494.933ZM452.267 494.933H443.733V443.733H452.267C455.18 443.705 458.067 443.174 460.8 442.163V486.4C460.8 491.113 456.979 494.933 452.267 494.933ZM460.8 25.6V418.133C460.8 422.846 456.979 426.667 452.267 426.667H119.467V17.0667H452.267C456.979 17.0667 460.8 20.8872 460.8 25.6Z" fill="#01212D"></path><path d="M76.7999 469.333C76.7999 474.046 80.6204 477.867 85.3333 477.867H119.467C124.179 477.867 128 474.046 128 469.333C128 464.621 124.179 460.8 119.467 460.8H85.3333C80.6204 460.8 76.7999 464.621 76.7999 469.333Z" fill="#01212D"></path><path d="M153.6 477.867H401.067C405.779 477.867 409.6 474.046 409.6 469.333C409.6 464.621 405.779 460.8 401.067 460.8H153.6C148.887 460.8 145.067 464.621 145.067 469.333C145.067 474.046 148.887 477.867 153.6 477.867Z" fill="#01212D"></path><path d="M392.533 162.133C375.309 120.794 334.917 93.8667 290.133 93.8667C245.349 93.8667 204.958 120.794 187.733 162.133C164.169 162.133 145.067 181.236 145.067 204.8C145.067 228.364 164.169 247.467 187.733 247.467C204.958 288.806 245.349 315.733 290.133 315.733C334.917 315.733 375.309 288.806 392.533 247.467C416.097 247.467 435.2 228.364 435.2 204.8C435.2 181.236 416.097 162.133 392.533 162.133ZM162.133 204.8C162.151 192.832 170.457 182.474 182.135 179.857C178.222 196.255 178.222 213.345 182.135 229.743C170.457 227.126 162.151 216.768 162.133 204.8V204.8ZM290.133 298.667C238.292 298.711 196.23 256.722 196.186 204.881C196.141 153.04 238.13 110.978 289.971 110.933C291.558 111.061 298.667 112.495 298.667 128C298.667 143.701 291.354 144.973 290.133 145.067C285.42 145.067 281.6 148.887 281.6 153.6C281.6 158.313 285.42 162.133 290.133 162.133C298.991 162.133 315.733 155 315.733 128C315.757 123.279 315.082 118.58 313.728 114.057C359.444 125.912 389.217 169.905 383.23 216.752C377.242 263.599 337.361 298.69 290.133 298.667ZM398.131 229.743C402.045 213.345 402.045 196.255 398.131 179.857C409.812 182.466 418.118 192.831 418.118 204.8C418.118 216.769 409.812 227.134 398.131 229.743Z" fill="#01212D"></path><path d="M273.067 196.267C273.067 182.128 261.605 170.667 247.467 170.667C233.328 170.667 221.867 182.128 221.867 196.267C221.867 210.405 233.328 221.867 247.467 221.867C261.605 221.867 273.067 210.405 273.067 196.267ZM247.467 204.8C242.754 204.8 238.933 200.98 238.933 196.267C238.933 191.554 242.754 187.733 247.467 187.733C252.18 187.733 256 191.554 256 196.267C256 200.98 252.18 204.8 247.467 204.8Z" fill="#01212D"></path><path d="M332.8 170.667C318.661 170.667 307.2 182.128 307.2 196.267C307.2 210.405 318.661 221.867 332.8 221.867C346.938 221.867 358.4 210.405 358.4 196.267C358.4 182.128 346.938 170.667 332.8 170.667ZM332.8 204.8C328.087 204.8 324.267 200.98 324.267 196.267C324.267 191.554 328.087 187.733 332.8 187.733C337.513 187.733 341.333 191.554 341.333 196.267C341.333 200.98 337.513 204.8 332.8 204.8Z" fill="#01212D"></path><path d="M309.803 241.34C304.191 245.671 297.212 247.845 290.133 247.467C283.07 247.836 276.109 245.666 270.507 241.348C267.106 238.356 261.96 238.542 258.785 241.772C255.609 245.002 255.51 250.15 258.56 253.5C267.293 261.069 278.587 265.015 290.133 264.533C301.7 265.031 313.018 261.083 321.766 253.5C325.065 250.209 325.088 244.872 321.818 241.553C318.538 238.223 313.198 238.129 309.803 241.34V241.34Z" fill="#01212D"></path><path d="M153.6 76.8001H196.267C200.979 76.8001 204.8 72.9796 204.8 68.2667C204.8 63.5539 200.979 59.7334 196.267 59.7334H153.6C148.887 59.7334 145.067 63.5539 145.067 68.2667C145.067 72.9796 148.887 76.8001 153.6 76.8001Z" fill="#01212D"></path><path d="M426.667 59.7334H230.4C225.687 59.7334 221.867 63.5539 221.867 68.2667C221.867 72.9796 225.687 76.8001 230.4 76.8001H426.667C431.38 76.8001 435.2 72.9796 435.2 68.2667C435.2 63.5539 431.38 59.7334 426.667 59.7334Z" fill="#01212D"></path><path d="M238.933 349.867C238.933 345.154 235.113 341.333 230.4 341.333H196.267C191.554 341.333 187.733 345.154 187.733 349.867C187.733 354.579 191.554 358.4 196.267 358.4H230.4C235.113 358.4 238.933 354.579 238.933 349.867Z" fill="#01212D"></path><path d="M384 341.333H264.533C259.821 341.333 256 345.154 256 349.867C256 354.579 259.821 358.4 264.533 358.4H384C388.713 358.4 392.533 354.579 392.533 349.867C392.533 345.154 388.713 341.333 384 341.333Z" fill="#01212D"></path><path d="M358.4 375.467H221.867C217.154 375.467 213.333 379.287 213.333 384C213.333 388.713 217.154 392.533 221.867 392.533H358.4C363.113 392.533 366.933 388.713 366.933 384C366.933 379.287 363.113 375.467 358.4 375.467Z" fill="#01212D"></path></g><defs><clipPath id="clip0"><rect width="512" height="512" fill="white"></rect></clipPath></defs></svg>