<svg xmlns="http://www.w3.org/2000/svg" width="512" height="512" viewBox="0 0 512 512" fill="none"><g clip-path="url(#clip0)"><path d="M388.267 187.383C394.658 208.657 416.708 221.867 442.027 221.867C449.475 221.85 456.881 220.743 464.009 218.581C479.317 214.202 492.732 204.849 502.136 192C511.056 180.239 513.958 164.981 509.978 150.767C504.976 135.824 492.985 124.269 477.867 119.825V68.2667C477.867 31.4197 451.712 8.53333 409.6 8.53333C389.436 8.53333 372.275 18.5003 354.133 29.0645C350.404 31.2405 346.453 33.4848 342.34 35.7291C322.901 12.416 293.325 0 256 0C218.675 0 189.107 12.416 169.685 35.7205C165.606 33.4933 161.638 31.2491 157.892 29.056C139.725 18.5003 122.564 8.53333 102.4 8.53333C60.2881 8.53333 34.1334 31.4197 34.1334 68.2667V119.825C19.0125 124.26 7.01892 135.814 2.02247 150.758C-1.96036 164.975 0.941666 180.237 9.86461 192C19.2734 204.844 32.6908 214.191 48.0001 218.564C55.1241 220.731 62.5271 221.844 69.9734 221.867C95.2747 221.867 117.333 208.674 123.733 187.409C131.294 162.244 114.347 134.502 85.3334 122.368V68.2667C85.3334 63.4965 85.3334 59.7333 102.4 59.7333C108.749 59.7333 120.653 66.6539 132.173 73.3867L133.624 74.24C138.086 76.8 142.916 79.5563 147.942 82.304C146.016 91.725 145.053 101.317 145.067 110.933C145.394 149.425 154.296 187.359 171.128 221.978C180.053 242.91 187.733 260.992 187.733 281.6C186.979 303.757 183.042 325.69 176.043 346.726C167.664 372.553 162.981 399.435 162.133 426.573C160.853 445.135 167.241 463.41 179.806 477.133C189.325 486.401 201.545 492.402 214.699 494.268C218.082 504.805 227.867 511.964 238.933 512H273.067C284.134 511.964 293.918 504.805 297.301 494.268C310.455 492.402 322.675 486.401 332.194 477.133C344.76 463.41 351.147 445.135 349.867 426.573C349.019 399.435 344.336 372.553 335.957 346.726C328.958 325.69 325.021 303.757 324.267 281.6C324.267 260.992 331.947 242.91 340.873 221.978C357.704 187.359 366.607 149.425 366.933 110.933C366.951 101.3 365.987 91.6906 364.058 82.2528C369.084 79.5051 373.914 76.7744 378.377 74.1888L379.844 73.3355C391.347 66.6539 403.251 59.7333 409.6 59.7333C426.667 59.7333 426.667 63.4965 426.667 68.2667V122.342C397.653 134.434 380.689 162.219 388.267 187.383V187.383ZM493.645 155.682C496.047 164.867 494.035 174.646 488.201 182.135C481.001 191.884 470.76 198.958 459.093 202.24C434.56 209.604 410.112 200.764 404.608 182.494C399.104 164.224 414.609 143.343 439.151 135.962C463.693 128.58 488.107 137.387 493.628 155.682H493.645ZM256 17.0667C286.421 17.0667 310.682 26.2485 326.827 43.7163C304.761 54.4242 280.526 59.905 256 59.7333C231.473 59.9091 207.236 54.4251 185.173 43.7077C201.327 26.24 225.587 17.0667 256 17.0667ZM107.401 182.468C101.897 200.738 77.4401 209.579 52.9067 202.24C41.2508 198.969 31.0139 191.915 23.8081 182.187C17.9739 174.697 15.9612 164.918 18.3638 155.733C22.5537 141.833 37.6918 133.385 55.5009 133.385C61.3774 133.389 67.2218 134.251 72.8491 135.945C97.3995 143.36 112.888 164.19 107.401 182.468V182.468ZM179.2 426.761C180.07 401.13 184.537 375.748 192.469 351.36C199.942 328.828 204.096 305.328 204.8 281.6C204.8 257.51 196.07 237.005 186.829 215.287C170.974 182.76 162.539 147.117 162.133 110.933C162.182 104.068 162.792 97.2186 163.96 90.4533C177.65 96.9231 191.986 101.929 206.729 105.387C210.583 106.281 213.317 109.707 213.333 113.664V187.733C213.445 207.084 217.038 226.257 223.94 244.335C227.684 253.484 229.868 263.196 230.4 273.067L230.716 402.381C220.322 405.923 213.334 415.686 213.333 426.667V476.587C205.27 474.849 197.857 470.881 191.94 465.135C182.659 454.604 178.06 440.751 179.2 426.761V426.761ZM325.171 215.287C315.93 237.005 307.2 257.51 307.2 281.6C307.904 305.328 312.058 328.828 319.531 351.36C327.463 375.748 331.93 401.13 332.8 426.761C333.926 440.687 329.375 454.478 320.179 464.998C314.253 470.823 306.791 474.842 298.667 476.587V426.667C298.661 415.777 291.839 406.056 281.6 402.347V273.067C282.133 263.196 284.316 253.484 288.06 244.335C294.962 226.257 298.555 207.084 298.667 187.733V113.664C298.662 109.694 301.397 106.245 305.263 105.344C320.01 101.891 334.349 96.8854 348.041 90.4107C349.21 97.19 349.821 104.054 349.867 110.933C349.461 147.117 341.026 182.76 325.171 215.287V215.287ZM409.6 42.6667C398.652 42.6667 385.954 50.0395 371.277 58.5813L369.826 59.4347C363.853 62.8907 357.444 66.6112 350.396 70.2549C334.92 78.4525 318.471 84.6654 301.44 88.7467C289.811 91.3865 281.568 101.739 281.6 113.664V187.733C281.48 205.211 278.196 222.523 271.906 238.831C267.506 249.736 265.012 261.317 264.533 273.067V402.347C264.436 409.593 268.945 416.104 275.763 418.56C279.239 419.74 281.584 422.996 281.6 426.667V486.4C281.6 491.113 277.78 494.933 273.067 494.933H238.933C234.221 494.933 230.4 491.113 230.4 486.4V426.667C230.382 423.024 232.678 419.771 236.117 418.569C242.971 416.132 247.527 409.62 247.467 402.347V273.067C246.988 261.317 244.494 249.736 240.094 238.831C233.805 222.523 230.52 205.211 230.4 187.733V113.664C230.435 101.735 222.186 91.3802 210.552 88.7467C193.527 84.6713 177.084 78.464 161.613 70.272C154.556 66.6283 148.139 62.9077 142.174 59.4517L140.74 58.5984C126.046 50.0395 113.348 42.6667 102.4 42.6667C71.8081 42.6667 68.2667 57.2757 68.2667 68.2667V117.436C62.6327 116.469 56.9055 116.159 51.2001 116.514V68.2667C51.2001 41.1477 69.8625 25.6 102.4 25.6C117.965 25.6 132.489 34.0395 149.333 43.8101C155.179 47.2235 161.357 50.7819 167.868 54.1184C194.795 69.1588 225.157 76.9728 256 76.8C286.805 76.9817 317.134 69.1916 344.038 54.1867C350.669 50.7733 356.838 47.2149 362.692 43.8187C379.512 34.0395 394.035 25.6 409.6 25.6C442.138 25.6 460.8 41.1477 460.8 68.2667V116.514C455.095 116.159 449.367 116.469 443.733 117.436V68.2667C443.733 57.2757 440.192 42.6667 409.6 42.6667V42.6667Z" fill="#01212D"></path></g><defs><clipPath id="clip0"><rect width="512" height="512" fill="white"></rect></clipPath></defs></svg>