<svg xmlns="http://www.w3.org/2000/svg" width="512" height="512" viewBox="0 0 512 512" fill="none"><g clip-path="url(#clip0)"><path d="M150.921 435.482C141.944 457.053 137.065 480.108 136.533 503.467C136.533 508.179 140.354 512 145.067 512H401.067C403.576 511.999 405.957 510.895 407.578 508.979C409.199 507.064 409.895 504.533 409.481 502.059C408.781 497.792 391.817 397.611 357.504 328.994C349.657 311.602 345.669 292.718 345.813 273.638C363.867 277.236 382.096 279.885 400.427 281.574L401.067 281.6C404.981 281.6 408.393 278.937 409.344 275.14C423.091 220.177 420.6 144.077 418.953 93.7216C418.517 80.3243 418.099 68.7019 418.099 59.9296C418.075 43.1064 411.515 26.9508 399.804 14.8736C391.217 5.5554 379.177 0.177176 366.507 -1.61901e-05H265.958C256.984 -0.0258557 248.66 4.67939 244.053 12.3819C232.727 31.7765 217.34 48.4916 198.946 61.3803C194.426 64.3672 189.611 66.8807 184.576 68.8811C164.276 76.7976 151.355 96.8563 152.542 118.613C153.12 134.742 160.159 149.96 172.075 160.845C170.29 161.481 168.546 162.225 166.852 163.072C156.384 168.124 148.759 177.636 146.108 188.954C106.552 215.017 83.5014 259.865 85.3333 307.2C85.3333 378.027 119.509 415.753 150.921 435.482V435.482ZM258.645 21.2139C260.186 18.6432 262.962 17.069 265.958 17.0667H306.628C304.853 33.5957 297.242 68.2667 264.533 68.2667C250.622 68.2599 236.743 66.9427 223.078 64.3328C237.001 51.7975 248.987 37.2664 258.645 21.2139V21.2139ZM169.6 118.033C168.627 103.48 177.244 89.99 190.857 84.7531C195.705 82.7737 200.383 80.3991 204.843 77.6533C224.344 82.7525 244.419 85.3334 264.576 85.3333C307.166 85.3333 321.468 44.5696 323.883 17.0667H339.166C325.53 73.3441 322.767 131.708 331.025 189.022C317.818 186.474 304.452 184.829 291.021 184.098C280.131 183.776 269.308 182.279 258.739 179.635C251.571 177.246 244.233 174.234 237.201 171.324C226.109 166.323 214.577 162.364 202.752 159.497C184.059 154.056 170.794 137.465 169.6 118.033V118.033ZM174.481 178.304C181.843 174.906 190.131 174.067 198.025 175.923C198.724 176.155 199.449 176.302 200.183 176.358C210.622 179.077 220.813 182.671 230.647 187.102C237.986 190.123 245.572 193.254 253.303 195.831C265.196 198.977 277.41 200.75 289.707 201.114C314.018 202.931 341.589 204.988 361.813 220.16C364.252 221.989 367.482 222.378 370.285 221.181C373.089 219.983 375.041 217.381 375.405 214.354C375.77 211.327 374.492 208.336 372.053 206.507C365.069 201.386 357.384 197.297 349.235 194.364C339.39 135.39 341.912 75.0137 356.642 17.0667H366.507C374.576 17.3231 382.198 20.8354 387.635 26.8032C396.109 35.6909 400.907 47.4547 401.067 59.7333C401.067 68.8469 401.451 80.6656 401.92 94.2763C403.465 141.483 405.76 211.738 394.487 263.825C368.64 260.932 278.707 248.32 201.301 206.362C190.81 197.103 177.948 190.948 164.156 188.587C166.334 184.1 169.976 180.488 174.481 178.347V178.304ZM153.472 204.8H153.6C167.15 205.17 180.13 210.331 190.234 219.366C190.811 219.941 191.466 220.432 192.179 220.826C235.154 243.417 281.037 259.979 328.533 270.046C327.98 292.981 332.648 315.741 342.187 336.606C369.263 390.673 385.613 467.755 390.827 494.933H154.035C155.348 477.352 159.378 460.08 165.982 443.733C192.419 456.027 221.256 462.293 250.411 462.08C258.308 462.08 266.199 461.642 274.048 460.766C277.078 460.427 279.698 458.498 280.92 455.704C282.142 452.911 281.781 449.678 279.973 447.222C278.165 444.767 275.184 443.463 272.154 443.802C235.701 448.302 198.74 441.64 166.153 424.695C137.054 408.482 102.4 374.963 102.4 307.2C102.4 262.767 119.714 228.429 153.472 204.8V204.8Z" fill="#01212D"></path><path d="M175.292 377.481C180.139 381.525 185.293 385.835 190.711 390.477C193.905 393.208 198.611 393.208 201.805 390.477C207.223 385.835 212.378 381.525 217.225 377.481C245.76 353.707 264.533 338.005 264.533 313.668C264.932 303.163 261.086 292.939 253.862 285.301C246.638 277.664 236.645 273.254 226.133 273.067C214.834 273.051 204.028 277.698 196.267 285.909C188.505 277.698 177.699 273.051 166.4 273.067C155.889 273.254 145.895 277.664 138.671 285.301C131.448 292.939 127.602 303.163 128 313.668C128 338.005 146.773 353.707 175.292 377.481ZM166.4 290.133C175.729 290.459 184.192 295.69 188.655 303.889C190.107 306.731 193.024 308.525 196.215 308.54H196.267C199.467 308.527 202.395 306.734 203.861 303.889C208.326 295.683 216.797 290.451 226.133 290.133C232.125 290.307 237.787 292.916 241.813 297.357C245.839 301.798 247.88 307.688 247.467 313.668C247.467 330.018 231.979 342.955 206.31 364.382C203.093 367.07 199.74 369.86 196.267 372.796C192.794 369.86 189.44 367.07 186.223 364.382C160.555 342.955 145.067 330.018 145.067 313.668C144.653 307.688 146.695 301.798 150.72 297.357C154.746 292.916 160.408 290.307 166.4 290.133Z" fill="#01212D"></path></g><defs><clipPath id="clip0"><rect width="512" height="512" fill="white"></rect></clipPath></defs></svg>