<svg xmlns="http://www.w3.org/2000/svg" width="512" height="512" viewBox="0 0 512 512" fill="none"><g clip-path="url(#clip0)"><path d="M177.363 453.07C177.363 462.445 182.137 468.59 184.941 471.383C187.773 474.226 193.918 479 203.293 479H307.945C322.246 479 333.883 467.367 333.883 453.07C333.883 438.766 322.246 427.129 307.945 427.129H203.293C188.996 427.129 177.363 438.766 177.363 453.07V453.07ZM313.887 453.07C313.887 456.34 311.223 459 307.945 459H203.293C201.262 459 199.906 458.062 199.086 457.238C198.301 456.457 197.363 455.101 197.363 453.07C197.363 449.793 200.023 447.129 203.293 447.129H307.945C311.223 447.129 313.887 449.793 313.887 453.07V453.07Z" fill="#01212D"></path><path d="M411.024 133.648C407.914 133.719 404.844 133.77 401.777 133.812C399.36 105.855 389.106 79.5469 372.067 57.4297C359.332 40.8281 342.985 26.9492 324.524 17.0976C307.004 7.74999 287.606 2.09764 267.813 0.48827C255.84 -0.48048 243.746 -0.0156362 231.891 1.93358C212.129 5.15624 193.211 12.3711 176.25 23.3008C153.219 38.1406 134.832 59.0312 123.082 83.7187C122.86 84.1914 122.688 84.6797 122.539 85.1758C115.543 100.172 111.02 116.52 109.488 133.695C106.344 133.676 103.199 133.664 100.059 133.648C94.5158 133.66 90.0314 138.066 90.0002 143.59C89.9689 149.113 94.422 153.613 99.9416 153.648C102.988 153.664 106.043 153.668 109.086 153.687C109.879 170.535 113.531 187.012 119.883 202.465C122.945 210.324 127.031 217.898 131.528 225.02C141.406 240.672 154.156 254.312 169.117 265.23C169.156 265.262 169.192 265.289 169.231 265.312C171.852 267.227 174.543 269.051 177.297 270.793C177.457 270.891 177.617 270.992 177.778 271.094C180.426 272.75 183.133 274.328 185.899 275.824C186.145 275.957 186.395 276.09 186.645 276.223C188.004 276.949 189.375 277.66 190.762 278.348C203.129 284.457 210.813 296.738 210.813 310.398V319.465C210.813 323.266 212.93 326.566 216.047 328.262C217.465 329.031 219.09 329.469 220.817 329.469H226.055V380.699C226.055 388.105 220.031 394.129 212.625 394.129H203.293C170.801 394.129 144.363 420.57 144.363 453.07C144.363 468.801 150.492 483.598 161.629 494.746C172.766 505.871 187.567 512 203.293 512H307.945C340.445 512 366.887 485.562 366.887 453.07C366.887 437.332 360.758 422.531 349.629 411.391C349.629 411.391 349.625 411.387 349.621 411.383C338.485 400.258 323.684 394.129 307.945 394.129H298.625C291.215 394.129 285.184 388.105 285.184 380.699V329.469H290.434C295.957 329.469 300.434 324.992 300.434 319.469V310.395C300.434 296.715 308.067 284.461 320.352 278.414C321.715 277.742 323.063 277.043 324.399 276.332C324.684 276.18 324.965 276.031 325.246 275.879C327.977 274.406 330.649 272.852 333.266 271.219C333.445 271.105 333.629 270.992 333.809 270.879C336.547 269.152 339.219 267.344 341.824 265.453C341.86 265.43 341.895 265.402 341.926 265.379C358.262 253.5 371.973 238.387 382.199 220.949C385.75 214.898 388.801 208.602 391.508 202.133C397.758 186.812 401.356 170.492 402.156 153.809C405.238 153.766 408.336 153.715 411.465 153.645C416.988 153.523 421.363 148.949 421.242 143.426C421.117 137.906 416.551 133.527 411.024 133.648V133.648ZM298.625 414.129H307.945C318.344 414.129 328.125 418.18 335.488 425.535C342.836 432.895 346.883 442.676 346.883 453.07C346.883 474.535 329.418 492 307.945 492H203.293C192.903 492 183.125 487.949 175.77 480.602C168.414 473.242 164.363 463.461 164.363 453.07C164.363 431.598 181.828 414.129 203.293 414.129H212.625C231.059 414.129 246.055 399.133 246.055 380.699V329.746H265.184V380.699C265.184 399.133 280.184 414.129 298.625 414.129V414.129ZM367.231 86.6367C365.883 88.0273 364.902 88.4141 364.637 88.4141C364.371 88.4141 362.473 87.4648 360.442 83.2578C355.391 72.7969 347.297 66.793 338.235 66.793C333.086 66.793 323.262 68.8594 315.34 82.6836C312.59 87.4766 310.231 88.5156 309.793 88.5156C309.531 88.5156 307.641 87.5625 305.61 83.3594C300.563 72.8945 292.465 66.8945 283.403 66.8945C278.254 66.8945 268.434 68.957 260.508 82.7812C257.758 87.5781 255.399 88.6172 254.965 88.6172C254.699 88.6172 252.797 87.6641 250.77 83.4609C245.719 72.9961 237.629 66.9961 228.574 66.9961C223.422 66.9961 213.602 69.0586 205.676 82.8828C202.926 87.6758 200.57 88.7148 200.133 88.7148C199.867 88.7148 197.969 87.7656 195.938 83.5586C190.887 73.0976 182.793 67.0976 173.731 67.0976C168.578 67.0976 158.75 69.1601 150.844 82.9883C148.281 87.4609 145.91 88.8164 145.309 88.8164C145.305 88.8164 145.301 88.8164 145.297 88.8164C145.141 88.8125 144.516 88.5273 143.656 87.5976C161.93 53.2617 195.539 28.168 235.176 21.6641C252.942 18.7851 271.258 19.6719 288.641 24.3476C305.875 28.9844 322.09 37.3164 335.883 48.6484C343.551 54.9531 350.481 62.1289 356.512 70.0156C360.5 75.2539 364.09 80.8086 367.231 86.6367ZM283.141 133.648C283.121 133.648 283.102 133.648 283.082 133.648C232.422 133.937 180.914 133.98 129.567 133.785C130.539 124.297 132.574 115.113 135.543 106.348C139.02 108.184 142.266 108.723 144.594 108.805C144.817 108.812 145.051 108.816 145.289 108.816C150.758 108.816 160.387 106.574 168.207 92.918C170.942 88.1328 173.297 87.0937 173.735 87.0937C174 87.0937 175.899 88.0469 177.93 92.2539C182.977 102.715 191.074 108.715 200.133 108.715C205.285 108.715 215.11 106.652 223.031 92.8281C225.781 88.0312 228.137 86.9961 228.574 86.9961C228.836 86.9961 230.731 87.9453 232.758 92.1523C237.809 102.617 245.903 108.617 254.965 108.617C260.113 108.617 269.938 106.551 277.863 92.7266C280.61 87.9336 282.969 86.8945 283.406 86.8945C283.672 86.8945 285.57 87.8476 287.598 92.0508C292.653 102.516 300.742 108.516 309.797 108.516C314.945 108.516 324.77 106.453 332.692 92.6289C335.442 87.832 337.801 86.7969 338.235 86.7969C338.5 86.7969 340.403 87.7461 342.43 91.9531C347.481 102.414 355.574 108.414 364.637 108.414C367.305 108.414 371.227 107.855 375.485 105.402C378.633 114.559 380.731 124.102 381.707 133.891C376.004 133.855 370.227 133.777 364.262 133.648C358.719 133.508 354.168 137.91 354.051 143.434C353.934 148.953 358.313 153.527 363.836 153.645C370.09 153.777 376.149 153.859 382.125 153.895C381.633 162.641 380.246 171.258 378 179.637C375.094 178.215 371.985 177.457 368.746 177.457C363.535 177.457 353.59 179.508 345.52 193.254C342.684 198.09 340.199 199.176 339.555 199.176C338.91 199.176 336.953 197.898 334.996 193.937C329.844 183.535 321.645 177.566 312.504 177.566C307.293 177.566 297.352 179.621 289.289 193.375C286.453 198.207 283.977 199.297 283.332 199.297C282.688 199.297 280.719 198.012 278.758 194.055C273.613 183.652 265.418 177.684 256.274 177.684C251.067 177.684 241.129 179.738 233.059 193.484C230.223 198.316 227.738 199.406 227.094 199.406C226.449 199.406 224.488 198.121 222.528 194.164C217.383 183.762 209.188 177.797 200.031 177.797C194.836 177.797 184.906 179.848 176.817 193.594C173.981 198.426 171.504 199.516 170.863 199.516C170.215 199.516 168.25 198.238 166.297 194.281C159.465 180.477 149.731 178.105 144.535 177.922C141.813 177.82 137.832 178.238 133.481 180.523C131.082 171.828 129.613 162.867 129.11 153.77C150.016 153.852 170.938 153.906 191.832 153.906C222.445 153.906 252.973 153.82 283.199 153.645C288.719 153.613 293.172 149.109 293.141 143.586C293.11 138.086 288.637 133.648 283.141 133.648ZM370.867 199.457C361.426 220.078 346.434 237.824 327.875 250.82C322.688 254.449 317.18 257.684 311.5 260.477C292.613 269.77 280.781 288.48 280.442 309.465H230.805C230.465 288.492 218.61 269.773 199.695 260.453C179.61 250.559 162.168 235.25 149.871 216.531C146.399 211.246 143.297 205.738 140.633 199.996C142.211 198.336 143.399 197.902 143.82 197.91C144.336 197.93 146.278 198.93 148.367 203.152C153.512 213.551 161.711 219.52 170.86 219.52C176.063 219.52 185.996 217.465 194.059 203.73C196.91 198.887 199.387 197.797 200.031 197.797C200.676 197.797 202.641 199.078 204.602 203.035C209.75 213.441 217.949 219.406 227.094 219.406C232.301 219.406 242.238 217.355 250.305 203.609C253.145 198.777 255.625 197.687 256.274 197.687C256.914 197.687 258.875 198.965 260.832 202.926C265.981 213.332 274.184 219.297 283.332 219.297C288.535 219.297 298.469 217.246 306.539 203.496C309.375 198.656 311.856 197.566 312.504 197.566C313.145 197.566 315.11 198.852 317.067 202.809C322.211 213.211 330.406 219.18 339.551 219.18C344.758 219.18 354.699 217.125 362.766 203.379C363.945 201.371 365.426 199.211 367.457 197.969C367.805 197.754 368.266 197.465 368.695 197.461C369.039 197.457 369.36 197.652 369.641 197.836C369.871 197.988 370.082 198.168 370.285 198.348C370.688 198.707 371.11 198.926 370.867 199.457V199.457Z" fill="#01212D"></path><path d="M318.332 152.227C321.852 154.57 326.613 154.422 329.969 151.84C333.141 149.398 334.574 145.187 333.531 141.32C332.422 137.184 328.695 134.156 324.414 133.926C320.168 133.695 316.141 136.289 314.582 140.238C312.871 144.574 314.473 149.629 318.332 152.227Z" fill="#01212D"></path></g><defs><clipPath id="clip0"><rect width="512" height="512" fill="white"></rect></clipPath></defs></svg>