<svg xmlns="http://www.w3.org/2000/svg" width="512" height="512" viewBox="0 0 512 512" fill="none"><g clip-path="url(#clip0)"><path d="M484.155 327.01C480.768 319.373 476.229 312.377 472.581 306.756C467.682 299.201 462.753 292.737 457.511 286.991C445.542 273.869 430.808 262.498 413.726 253.186C401.671 246.616 388.792 241.225 375.441 237.17C374.499 236.881 373.499 236.545 372.464 236.194C373.578 234.057 374.66 231.893 375.663 229.682C377.945 224.651 375.718 218.725 370.691 216.44C365.66 214.159 359.734 216.385 357.449 221.417C352.402 232.546 345.644 242.565 337.578 251.237C337.32 251.51 337.054 251.784 336.793 252.057C336.367 252.51 335.929 252.956 335.492 253.401C326.32 262.678 314.648 271.248 300.801 277.401C288.203 282.967 274.676 286.135 260.922 286.799C257.016 286.987 253.113 286.951 249.211 286.729C190.7 283.299 144.18 234.585 144.251 175.241C144.321 113.773 194.352 63.816 255.805 63.816H255.938C276.777 63.8434 297.203 69.7535 314.754 80.6636C324.234 86.5893 332.82 93.9291 340.144 102.378C352.418 116.577 361.031 133.73 364.929 152.124C366.074 157.526 371.382 160.98 376.785 159.831C382.187 158.687 385.64 153.378 384.495 147.976C383.523 143.386 382.296 138.859 380.839 134.417C406.296 123.562 423.292 98.4604 423.292 70.0308C423.292 31.4139 391.878 0 353.265 0C322.715 0 296.359 19.4491 286.922 47.5622C276.84 45.1052 266.445 43.8279 255.961 43.8162C255.906 43.8162 255.856 43.8162 255.801 43.8162C244.707 43.8162 233.828 45.1833 223.344 47.8318C219.36 35.9256 212.211 25.1991 202.567 16.9062C189.887 6.00778 173.68 0.00390623 156.934 0.00390623C118.321 0.00390623 86.9034 31.4178 86.9034 70.0308C86.9034 86.0034 92.4268 101.628 102.45 114.027C109.923 123.273 119.665 130.456 130.571 134.905C126.431 147.761 124.266 161.323 124.251 175.218C124.224 197.264 129.661 218.065 139.266 236.346C138.653 236.549 138.048 236.745 137.473 236.917C125.099 240.616 113.056 245.495 101.681 251.413C85.63 259.76 71.5207 269.916 59.7434 281.592C51.2474 290.018 43.4584 300.018 36.5912 311.318L35.3998 313.268C29.4311 323.025 22.0015 335.17 22.0015 348.689C22.0015 373.713 42.3607 394.068 67.3801 394.068C84.7784 394.068 100.853 384.006 108.337 368.431C111.114 362.646 117.263 358.912 124.001 358.912H136.091C133.571 363.588 131.079 368.642 128.681 374.072C128.481 374.517 128.286 374.959 128.091 375.404C127.61 376.513 127.134 377.642 126.661 378.779C120.821 392.806 116.294 407.755 113.102 423.552C111.095 433.462 109.653 443.494 108.731 453.56C108.087 460.638 109.243 467.599 112.169 474.251C114.395 479.302 120.298 481.599 125.352 479.372C130.407 477.146 132.7 471.243 130.473 466.189C128.934 462.693 128.321 459.075 128.649 455.431C129.696 444.451 138.462 436.052 147.43 430.665C158.743 423.869 172.075 420.478 185.196 419.876C193.477 419.494 201.84 420.236 209.907 422.185C217.743 424.091 224.883 427.087 230.867 431.072C236.516 434.833 245.992 442.872 245.992 454.474C245.992 471.958 224.723 487.767 196.5 491.278C193.543 491.567 188.258 492.001 185.86 492.001C185.723 492.001 185.602 491.997 185.477 491.997C180.024 491.997 175.559 496.384 175.485 501.856C175.407 507.38 179.821 511.919 185.34 511.997C185.489 512.001 185.641 512.001 185.797 512.001C190.083 512.001 197.707 511.255 198.594 511.169C198.672 511.161 198.75 511.149 198.829 511.142C223.883 508.056 244.496 497.075 256.016 482.165C260.024 487.357 265.148 492.126 271.281 496.243C286.406 506.403 306.199 511.997 327.007 511.997C353.21 511.997 377.167 502.888 391.089 487.634C400.222 477.63 404.452 465.849 403.327 453.564C402.405 443.474 400.96 433.427 398.945 423.498C395.753 407.697 391.222 392.752 385.378 378.724C384.956 377.713 384.535 376.713 384.109 375.728C383.859 375.15 383.605 374.576 383.351 374.006C380.96 368.599 378.48 363.568 375.968 358.916H388.05C394.777 358.916 400.925 362.642 403.706 368.416C411.218 383.998 427.276 394.064 444.612 394.064C469.632 394.064 489.991 373.709 489.991 348.685C489.987 340.822 487.229 333.943 484.155 327.01V327.01ZM333.39 69.1363C333.527 69.0543 333.66 68.9683 333.793 68.8863C341.359 64.2379 348.402 66.9371 352.472 71.0113C356.414 74.9527 359.062 81.6831 354.996 88.9682C353.39 87.1323 351.757 85.2768 350.011 83.5698C346.609 80.0698 343.003 76.7496 339.211 73.6363C337.312 72.0777 335.367 70.5816 333.39 69.1363V69.1363ZM353.265 20.0038C380.851 20.0038 403.296 42.4451 403.296 70.0308C403.296 90.2651 391.257 108.14 373.199 115.945C371.507 112.609 369.663 109.363 367.699 106.195C369.07 104.183 370.382 102.16 371.621 100.14C380.335 85.9722 378.324 68.5855 366.617 56.8708C354.902 45.1482 337.504 43.1326 323.308 51.8552C320.402 53.6481 317.48 55.6012 314.578 57.6676C311.75 56.2497 308.871 54.9255 305.941 53.7184C312.754 33.7732 331.531 20.0038 353.265 20.0038ZM155.618 89.6714C150.973 82.1167 153.669 75.0777 157.739 71.0074C160.294 68.4488 164.016 66.4371 168.301 66.4371C170.84 66.4371 173.579 67.148 176.383 68.8707C176.77 69.1129 177.157 69.3551 177.544 69.6012C172.407 73.4175 167.508 77.6363 162.891 82.2378C160.407 84.7222 158.036 87.2886 155.774 89.9292C155.719 89.8432 155.669 89.7573 155.618 89.6714ZM106.903 70.0308C106.903 42.4451 129.345 20.0038 156.934 20.0038C178.907 20.0038 197.766 33.9803 204.422 54.1989C201.622 55.3864 198.868 56.6715 196.157 58.0543C193.098 55.863 190 53.777 186.879 51.8474C172.704 43.1326 155.309 45.1482 143.595 56.8629C131.88 68.5777 129.864 85.9722 138.571 100.136C140.012 102.488 141.571 104.859 143.216 107.234C141.395 110.234 139.692 113.3 138.122 116.425C119.403 108.913 106.903 90.8276 106.903 70.0308ZM201.028 388.259C202.387 358.201 226.328 334.654 255.527 334.654C284.715 334.654 308.629 358.197 309.965 388.256C310.152 392.42 309.902 396.545 309.215 400.584C306.179 400.959 303.14 401.47 300.152 402.111C290.117 404.244 281.008 407.767 273.242 412.384C272.473 412.837 271.684 413.318 270.887 413.83C270.852 413.853 270.82 413.873 270.781 413.896C270.613 414.001 270.441 414.126 270.27 414.236C265.453 417.384 260.27 421.572 255.984 426.97C250.379 419.947 243.242 414.935 237.606 411.709C227.676 406.048 216.586 402.607 205.309 400.939C204.125 400.763 202.942 400.603 201.754 400.466C201.082 396.459 200.84 392.377 201.028 388.259V388.259ZM376.32 474.15C366.117 485.325 347.683 491.997 327.007 491.997C310.371 491.997 294.125 487.493 282.43 479.638C271.828 472.517 265.992 463.583 265.992 454.474C265.992 435.669 291.996 419.779 322.781 419.779C349.949 419.779 374.566 432.224 381.538 448.236C381.57 448.314 381.605 448.396 381.636 448.474C381.839 448.951 382.027 449.431 382.195 449.911C382.265 450.118 382.327 450.329 382.398 450.536C382.515 450.908 382.636 451.283 382.738 451.658C382.847 452.083 382.941 452.509 383.031 452.939C383.066 453.115 383.113 453.286 383.144 453.462C383.257 454.103 383.347 454.747 383.41 455.392C383.41 455.407 383.413 455.423 383.413 455.443C384.148 463.673 379.964 470.154 376.32 474.15V474.15ZM444.612 374.064C434.753 374.064 425.983 368.568 421.722 359.728C415.624 347.084 402.409 338.912 388.046 338.912H374.777C371.331 338.912 367.96 339.521 364.828 340.666C352.222 322.365 341.261 313.432 340.273 312.647C335.949 309.209 329.66 309.924 326.222 314.248C322.785 318.568 323.5 324.861 327.824 328.299C328.062 328.49 340.285 338.459 353.324 359.764C353.699 360.377 354.066 360.994 354.437 361.611C362.339 374.877 370.421 392.291 376.23 414.216C372.703 411.998 368.882 409.986 364.831 408.216C357.734 405.111 350.097 402.853 342.074 401.451C337.914 400.713 333.711 400.244 329.492 399.99C329.98 395.826 330.136 391.607 329.945 387.361C328.129 346.592 295.437 314.651 255.524 314.651C215.61 314.651 182.895 346.588 181.047 387.353C180.852 391.595 181.004 395.814 181.493 399.982C169.797 400.771 158.403 403.42 148.016 407.857C143.61 409.744 139.571 411.826 135.903 414.084C141.981 391.259 150.399 373.681 157.856 361.224C158.126 360.779 158.391 360.33 158.665 359.889C158.938 359.439 159.212 358.99 159.485 358.553C172.157 338.225 184.016 328.475 184.262 328.275C188.563 324.834 189.27 318.561 185.84 314.244C182.403 309.924 176.11 309.209 171.79 312.647C170.801 313.432 159.837 322.365 147.235 340.662C144.098 339.521 140.727 338.912 137.282 338.912H124.001C109.622 338.912 96.3956 347.1 90.3058 359.767C86.0714 368.588 77.2863 374.068 67.3801 374.068C53.388 374.068 42.0013 362.681 42.0013 348.689C42.0013 340.799 47.5599 331.717 52.4622 323.705L53.681 321.705C59.7083 311.791 66.4856 303.072 73.8293 295.791C84.1691 285.533 96.6495 276.573 110.911 269.155C121.169 263.815 132.032 259.416 143.204 256.077C144.317 255.745 145.505 255.35 146.735 254.94C147.817 254.581 149.005 254.182 150.161 253.838C158.555 265.186 170.083 276.506 184.329 285.764C202.68 297.674 223.836 304.904 245.66 306.537C252.313 307.033 259 307.053 265.648 306.553C285.809 305.088 304.84 299.17 322.34 288.881C337.789 279.799 351.238 267.717 361.558 253.698C363.031 254.116 364.585 254.643 365.98 255.112C367.249 255.541 368.472 255.952 369.624 256.303C381.675 259.963 393.292 264.823 404.152 270.741C419.284 278.991 432.265 288.991 442.733 300.467C447.229 305.397 451.503 311.014 455.804 317.639C459.237 322.928 463.128 328.924 465.87 335.111C468.124 340.193 469.987 344.725 469.987 348.682C469.987 362.678 458.604 374.064 444.612 374.064V374.064Z" fill="#01212D"></path><path d="M385.066 182.081C382.726 178.503 378.097 176.839 374.003 178.022C370.054 179.163 367.116 182.702 366.788 186.815C366.456 190.987 368.816 195.003 372.628 196.729C376.378 198.432 380.906 197.604 383.823 194.702C387.163 191.382 387.671 185.987 385.066 182.081Z" fill="#01212D"></path><path d="M198.668 131.414C198.668 126.562 202.618 122.617 207.469 122.617C212.321 122.617 216.266 126.566 216.266 131.414C216.266 136.937 220.743 141.414 226.266 141.414C231.79 141.414 236.266 136.937 236.266 131.414C236.266 115.535 223.348 102.617 207.469 102.617C191.59 102.617 178.668 115.535 178.668 131.414C178.668 136.937 183.149 141.414 188.668 141.414C194.192 141.414 198.668 136.937 198.668 131.414Z" fill="#01212D"></path><path d="M297.125 131.414C297.125 126.562 301.07 122.617 305.922 122.617C310.773 122.617 314.719 126.566 314.719 131.414C314.719 136.937 319.195 141.414 324.719 141.414C330.242 141.414 334.719 136.937 334.719 131.414C334.719 115.535 321.801 102.617 305.922 102.617C290.043 102.617 277.125 115.535 277.125 131.414C277.125 136.937 281.602 141.414 287.125 141.414C292.648 141.414 297.125 136.937 297.125 131.414Z" fill="#01212D"></path><path d="M201.262 259.05C216.032 269.854 235.465 275.804 255.997 275.804C276.512 275.804 295.891 269.847 310.567 259.03C326.141 247.546 334.719 231.972 334.719 215.183C334.719 191.015 316.86 169.827 288.754 160.038C287.754 158.011 286.395 156.144 284.696 154.542L280.559 150.636C276.973 147.249 272.286 145.386 267.352 145.386H244.262C239.329 145.386 234.637 147.249 231.055 150.636L226.918 154.542C225.219 156.144 223.86 158.011 222.86 160.038C194.75 169.823 176.887 191.015 176.887 215.183C176.887 231.968 185.547 247.55 201.262 259.05V259.05ZM244.567 165.382H267.047L270.266 168.425L255.809 178.112L246.196 171.675L241.348 168.425L244.567 165.382ZM225.145 180.593C226.024 181.679 227.024 182.671 228.133 183.558C228.196 183.604 228.254 183.651 228.313 183.698C228.637 183.952 228.965 184.194 229.309 184.429C229.344 184.452 229.379 184.483 229.418 184.507L234.899 188.179L245.098 195.015C249.415 197.905 254.833 198.952 259.911 197.839C262.696 197.226 265.145 195.933 267.489 194.362C271.762 191.499 276.036 188.636 280.309 185.772C282.567 184.261 284.731 182.741 286.465 180.593C303.672 187.948 314.719 201.144 314.719 215.179C314.719 237.577 288.375 255.804 255.993 255.804C223.954 255.804 196.887 237.198 196.887 215.179C196.887 201.144 207.934 187.948 225.145 180.593Z" fill="#01212D"></path><path d="M221.235 231.233C232.36 237.706 244.133 240.987 256.242 240.987H256.262C268.371 240.987 280.149 237.706 291.27 231.233C296.043 228.456 297.66 222.335 294.883 217.561C292.106 212.788 285.985 211.171 281.211 213.948C273.184 218.62 264.789 220.987 256.258 220.987C256.254 220.987 256.246 220.987 256.242 220.987C247.715 220.987 239.321 218.62 231.297 213.948C226.524 211.167 220.403 212.788 217.621 217.561C214.844 222.335 216.461 228.456 221.235 231.233Z" fill="#01212D"></path><path d="M157.337 490.778C155.723 486.907 151.762 484.392 147.567 484.618C143.407 484.845 139.747 487.716 138.536 491.7C137.337 495.63 138.747 500.036 142.012 502.536C145.376 505.106 150.13 505.27 153.657 502.919C157.571 500.31 159.145 495.122 157.337 490.778Z" fill="#01212D"></path></g><defs><clipPath id="clip0"><rect width="512" height="512" fill="white"></rect></clipPath></defs></svg>